<svg xmlns="http://www.w3.org/2000/svg" xmlns:xlink="http://www.w3.org/1999/xlink" viewBox="0 0 128 137.27" width="128"><defs><style>.cls-1{fill:none;}.cls-2{isolation:isolate;}.cls-3{clip-path:url(#clip-path);}.cls-4{opacity:0.6;mix-blend-mode:multiply;}.cls-5{clip-path:url(#clip-path-3);}.cls-6{fill:#049681;}.cls-7{opacity:0.15;}.cls-8{clip-path:url(#clip-path-4);}.cls-9{fill:#1876c4;}.cls-10{opacity:0.2;}.cls-11{clip-path:url(#clip-path-5);}.cls-12{opacity:0.1;}.cls-13{clip-path:url(#clip-path-6);}.cls-14{fill:#a4a9ad;}.cls-15{fill:#c3c6c8;}.cls-16{fill:#4c636f;}.cls-17{fill:#90caf9;}.cls-18{fill:#b3b8ba;}.cls-19{fill:#203945;}.cls-20{fill:#fff;}.cls-21{fill:#0455a4;}.cls-22{fill:#474f59;}.cls-23{fill:#353f49;}.cls-24{fill:#1e88e5;}.cls-25{fill:#8497a0;}.cls-26{fill:#bc2879;}.cls-27{opacity:0.3;mix-blend-mode:overlay;}.cls-28{clip-path:url(#clip-path-7);}.cls-29{clip-path:url(#clip-path-8);}.cls-30{fill:url(#Безымянный_градиент_37);}.cls-31{clip-path:url(#clip-path-9);}.cls-32{fill:url(#Безымянный_градиент_37-2);}.cls-33{clip-path:url(#clip-path-10);}.cls-34{fill:url(#Безымянный_градиент_37-3);}.cls-35{clip-path:url(#clip-path-11);}.cls-36{fill:url(#Безымянный_градиент_37-4);}.cls-37{clip-path:url(#clip-path-12);}.cls-38{fill:url(#Безымянный_градиент_37-5);}.cls-39{clip-path:url(#clip-path-13);}.cls-40{fill:url(#Безымянный_градиент_37-6);}.cls-41{clip-path:url(#clip-path-14);}.cls-42{fill:url(#Безымянный_градиент_37-7);}.cls-43{clip-path:url(#clip-path-15);}.cls-44{fill:url(#Безымянный_градиент_37-8);}.cls-45{clip-path:url(#clip-path-16);}.cls-46{fill:url(#Безымянный_градиент_37-9);}.cls-47{clip-path:url(#clip-path-17);}.cls-48{fill:url(#Безымянный_градиент_37-10);}.cls-49{clip-path:url(#clip-path-18);}.cls-50{fill:url(#Безымянный_градиент_37-11);}.cls-51{clip-path:url(#clip-path-19);}.cls-52{fill:url(#Безымянный_градиент_37-12);}.cls-53{clip-path:url(#clip-path-20);}.cls-54{fill:url(#Безымянный_градиент_37-13);}.cls-55{clip-path:url(#clip-path-21);}.cls-56{fill:url(#Безымянный_градиент_37-14);}.cls-57{clip-path:url(#clip-path-22);}.cls-58{fill:url(#Безымянный_градиент_37-15);}.cls-59{clip-path:url(#clip-path-23);}.cls-60{fill:url(#Безымянный_градиент_37-16);}.cls-61{clip-path:url(#clip-path-24);}.cls-62{fill:url(#Безымянный_градиент_37-17);}.cls-63{clip-path:url(#clip-path-25);}.cls-64{fill:url(#Безымянный_градиент_37-18);}.cls-65{clip-path:url(#clip-path-26);}.cls-66{fill:url(#Безымянный_градиент_37-19);}.cls-67{clip-path:url(#clip-path-27);}.cls-68{fill:url(#Безымянный_градиент_37-20);}.cls-69{clip-path:url(#clip-path-28);}.cls-70{fill:url(#Безымянный_градиент_37-21);}.cls-71{clip-path:url(#clip-path-29);}.cls-72{fill:url(#Безымянный_градиент_37-22);}.cls-73{clip-path:url(#clip-path-30);}.cls-74{fill:url(#Безымянный_градиент_37-23);}.cls-75{clip-path:url(#clip-path-31);}.cls-76{fill:url(#Безымянный_градиент_37-24);}.cls-77{clip-path:url(#clip-path-32);}.cls-78{fill:url(#Безымянный_градиент_37-25);}.cls-79{clip-path:url(#clip-path-33);}.cls-80{fill:url(#Безымянный_градиент_37-26);}.cls-81{clip-path:url(#clip-path-34);}.cls-82{fill:url(#Безымянный_градиент_37-27);}.cls-83{clip-path:url(#clip-path-35);}.cls-84{fill:url(#Безымянный_градиент_37-28);}.cls-85{clip-path:url(#clip-path-36);}.cls-86{fill:url(#Безымянный_градиент_37-29);}.cls-87{clip-path:url(#clip-path-37);}.cls-88{fill:url(#Безымянный_градиент_37-30);}.cls-89{clip-path:url(#clip-path-38);}.cls-90{fill:url(#Безымянный_градиент_37-31);}.cls-91{clip-path:url(#clip-path-39);}.cls-92{fill:url(#Безымянный_градиент_37-32);}.cls-93{clip-path:url(#clip-path-40);}.cls-94{fill:url(#Безымянный_градиент_37-33);}.cls-95{clip-path:url(#clip-path-41);}.cls-96{fill:url(#Безымянный_градиент_37-34);}.cls-97{clip-path:url(#clip-path-42);}.cls-98{fill:url(#Безымянный_градиент_37-35);}.cls-99{clip-path:url(#clip-path-43);}.cls-100{fill:url(#Безымянный_градиент_37-36);}.cls-101{clip-path:url(#clip-path-44);}.cls-102{fill:url(#Безымянный_градиент_37-37);}</style><clipPath id="clip-path" transform="translate(0 0)"><rect class="cls-1" width="128" height="137.27"/></clipPath><clipPath id="clip-path-3" transform="translate(0 0)"><rect class="cls-1" y="5.08" width="128" height="128"/></clipPath><clipPath id="clip-path-4" transform="translate(0 0)"><rect class="cls-1" x="81" width="20.83" height="20.83"/></clipPath><clipPath id="clip-path-5" transform="translate(0 0)"><rect class="cls-1" x="5.61" y="98.72" width="25.99" height="25.99"/></clipPath><clipPath id="clip-path-6" transform="translate(0 0)"><rect class="cls-1" x="83.45" y="107.9" width="29.37" height="29.37"/></clipPath><clipPath id="clip-path-7" transform="translate(0 0)"><rect class="cls-1" x="14" y="10.43" width="100" height="104.49"/></clipPath><clipPath id="clip-path-8" transform="translate(0 0)"><path class="cls-1" d="M18.6,95.29a4.62,4.62,0,0,1-4.6-4.6V32.42c0-2.53,2.07-5.83,4.6-5.83h87.1a4.61,4.61,0,0,1,4.6,4.6v59.5a4.61,4.61,0,0,1-4.6,4.6Z"/></clipPath><linearGradient id="Безымянный_градиент_37" y1="137.27" x2="1" y2="137.27" gradientTransform="matrix(96.3, 0, 0, -96.3, 13.98, 13279.76)" gradientUnits="userSpaceOnUse"><stop offset="0" stop-color="#fff"/><stop offset="0.04" stop-color="#eceeef"/><stop offset="0.18" stop-color="#b7bfc3"/><stop offset="0.32" stop-color="#88969c"/><stop offset="0.46" stop-color="#63747d"/><stop offset="0.6" stop-color="#465a64"/><stop offset="0.74" stop-color="#314853"/><stop offset="0.87" stop-color="#243d48"/><stop offset="1" stop-color="#203945"/></linearGradient><clipPath id="clip-path-9" transform="translate(0 0)"><rect class="cls-1" x="17.7" y="26.59" width="96.3" height="68.7" rx="4.6" ry="4.6"/></clipPath><linearGradient id="Безымянный_градиент_37-2" x1="0" y1="137.27" x2="1" y2="137.27" gradientTransform="matrix(96.3, 0, 0, -96.3, 17.68, 13279.76)" xlink:href="#Безымянный_градиент_37"/><clipPath id="clip-path-10" transform="translate(0 0)"><path class="cls-1" d="M22.3,26.59h87.1a4.61,4.61,0,0,1,4.6,4.6V86.93H17.7V31.19a4.61,4.61,0,0,1,4.6-4.6"/></clipPath><linearGradient id="Безымянный_градиент_37-3" x1="0" y1="137.27" x2="1" y2="137.27" gradientTransform="matrix(96.3, 0, 0, -96.3, 17.68, 13275.58)" xlink:href="#Безымянный_градиент_37"/><clipPath id="clip-path-11" transform="translate(0 0)"><rect class="cls-1" x="23.84" y="32.72" width="84.03" height="48.07"/></clipPath><linearGradient id="Безымянный_градиент_37-4" x1="0" y1="137.27" x2="1" y2="137.27" gradientTransform="matrix(84.03, 0, 0, -84.03, 23.82, 11591.65)" xlink:href="#Безымянный_градиент_37"/><clipPath id="clip-path-12" transform="translate(0 0)"><polygon class="cls-1" points="68.31 111.87 46.22 111.87 51.74 95.29 73.83 95.29 68.31 111.87"/></clipPath><linearGradient id="Безымянный_градиент_37-5" x1="0" y1="137.27" x2="1" y2="137.27" gradientTransform="matrix(27.6, 0, 0, -27.6, 46.22, 3892.53)" xlink:href="#Безымянный_градиент_37"/><clipPath id="clip-path-13" transform="translate(0 0)"><path class="cls-1" d="M75.82,111.87a1.52,1.52,0,0,1,0,3H53.89v-3Z"/></clipPath><linearGradient id="Безымянный_градиент_37-6" x1="0" y1="137.27" x2="1" y2="137.27" gradientTransform="matrix(23.45, 0, 0, -23.45, 53.89, 3332.21)" xlink:href="#Безымянный_градиент_37"/><clipPath id="clip-path-14" transform="translate(0 0)"><path class="cls-1" d="M45.37,114.92A2.47,2.47,0,0,1,43,111.63h0l5.44-16.34h3.27l-5.52,16.59h7.67a1.52,1.52,0,1,1,0,3H45.37Z"/></clipPath><linearGradient id="Безымянный_градиент_37-7" x1="0" y1="137.27" x2="1" y2="137.27" gradientTransform="matrix(12.51, 0, 0, -12.51, 42.89, 1823.03)" xlink:href="#Безымянный_градиент_37"/><clipPath id="clip-path-15" transform="translate(0 0)"><path class="cls-1" d="M68.15,91.2a2.3,2.3,0,1,1-2.3-2.3,2.3,2.3,0,0,1,2.3,2.3"/></clipPath><linearGradient id="Безымянный_градиент_37-8" x1="0" y1="137.27" x2="1" y2="137.27" gradientTransform="matrix(4.6, 0, 0, -4.6, 63.55, 722.74)" xlink:href="#Безымянный_градиент_37"/><clipPath id="clip-path-16" transform="translate(0 0)"><rect class="cls-1" x="36.96" y="16.07" width="59.34" height="64.73"/></clipPath><linearGradient id="Безымянный_градиент_37-9" x1="0" y1="137.27" x2="1" y2="137.27" gradientTransform="matrix(59.34, 0, 0, -59.34, 36.94, 8194.07)" xlink:href="#Безымянный_градиент_37"/><clipPath id="clip-path-17" transform="translate(0 0)"><rect class="cls-1" x="36.96" y="10.43" width="59.34" height="5.64"/></clipPath><linearGradient id="Безымянный_градиент_37-10" x1="0" y1="137.27" x2="1" y2="137.27" gradientTransform="matrix(59.34, 0, 0, -59.34, 36.94, 8158.89)" xlink:href="#Безымянный_градиент_37"/><clipPath id="clip-path-18" transform="translate(0 0)"><rect class="cls-1" x="36.96" y="34.46" width="59.34" height="30.43"/></clipPath><linearGradient id="Безымянный_градиент_37-11" x1="0" y1="137.27" x2="1" y2="137.27" gradientTransform="matrix(59.34, 0, 0, -59.34, 36.94, 8195.32)" xlink:href="#Безымянный_градиент_37"/><clipPath id="clip-path-19" transform="translate(0 0)"><polygon class="cls-1" points="44.9 49.68 48.37 53.15 48.37 46.2 44.9 49.68"/></clipPath><linearGradient id="Безымянный_градиент_37-12" x1="0" y1="137.27" x2="1" y2="137.27" gradientTransform="matrix(3.48, 0, 0, -3.48, 44.9, 526.84)" xlink:href="#Безымянный_градиент_37"/><clipPath id="clip-path-20" transform="translate(0 0)"><polygon class="cls-1" points="88.36 49.68 84.88 53.15 84.88 46.2 88.36 49.68"/></clipPath><linearGradient id="Безымянный_градиент_37-13" x1="0" y1="137.27" x2="1" y2="137.27" gradientTransform="matrix(3.48, 0, 0, -3.48, 84.88, 527.68)" xlink:href="#Безымянный_градиент_37"/><clipPath id="clip-path-21" transform="translate(0 0)"><rect class="cls-1" x="54.19" y="37.24" width="24.87" height="24.87"/></clipPath><linearGradient id="Безымянный_градиент_37-14" x1="0" y1="137.27" x2="1" y2="137.27" gradientTransform="matrix(24.87, 0, 0, -24.87, 54.18, 3463.72)" xlink:href="#Безымянный_градиент_37"/><clipPath id="clip-path-22" transform="translate(0 0)"><polygon class="cls-1" points="67.24 41.54 66.01 41.54 65.65 43.34 67.6 43.34 67.24 41.54"/></clipPath><linearGradient id="Безымянный_градиент_37-15" x1="0" y1="137.27" x2="1" y2="137.27" gradientTransform="matrix(1.96, 0, 0, -1.96, 65.65, 310.86)" xlink:href="#Безымянный_градиент_37"/><clipPath id="clip-path-23" transform="translate(0 0)"><polygon class="cls-1" points="63.09 42.33 62.03 42.94 62.61 44.68 64.3 43.7 63.09 42.33"/></clipPath><linearGradient id="Безымянный_градиент_37-16" x1="0" y1="137.27" x2="1" y2="137.27" gradientTransform="matrix(2.28, 0, 0, -2.28, 62.03, 356.03)" xlink:href="#Безымянный_градиент_37"/><clipPath id="clip-path-24" transform="translate(0 0)"><polygon class="cls-1" points="59.9 45.08 59.27 46.15 60.65 47.35 61.63 45.67 59.9 45.08"/></clipPath><linearGradient id="Безымянный_градиент_37-17" x1="0" y1="137.27" x2="1" y2="137.27" gradientTransform="matrix(2.35, 0, 0, -2.35, 59.27, 369.15)" xlink:href="#Безымянный_градиент_37"/><clipPath id="clip-path-25" transform="translate(0 0)"><polygon class="cls-1" points="58.49 49.06 58.49 50.3 60.29 50.66 60.29 48.7 58.49 49.06"/></clipPath><linearGradient id="Безымянный_градиент_37-18" x1="0" y1="137.27" x2="1" y2="137.27" gradientTransform="matrix(1.79, 0, 0, -1.79, 58.5, 295.85)" xlink:href="#Безымянный_градиент_37"/><clipPath id="clip-path-26" transform="translate(0 0)"><polygon class="cls-1" points="59.27 53.2 59.9 54.27 61.63 53.69 60.65 52 59.27 53.2"/></clipPath><linearGradient id="Безымянный_градиент_37-19" x1="0" y1="137.27" x2="1" y2="137.27" gradientTransform="matrix(2.35, 0, 0, -2.35, 59.27, 376.07)" xlink:href="#Безымянный_градиент_37"/><clipPath id="clip-path-27" transform="translate(0 0)"><polygon class="cls-1" points="62.03 56.41 63.09 57.02 64.3 55.65 62.61 54.67 62.03 56.41"/></clipPath><linearGradient id="Безымянный_градиент_37-20" x1="0" y1="137.27" x2="1" y2="137.27" gradientTransform="matrix(2.28, 0, 0, -2.28, 62.03, 368.38)" xlink:href="#Безымянный_градиент_37"/><clipPath id="clip-path-28" transform="translate(0 0)"><polygon class="cls-1" points="66.01 57.81 67.24 57.81 67.6 56.01 65.65 56.01 66.01 57.81"/></clipPath><linearGradient id="Безымянный_градиент_37-21" x1="0" y1="137.27" x2="1" y2="137.27" gradientTransform="matrix(1.96, 0, 0, -1.96, 65.65, 325.32)" xlink:href="#Безымянный_градиент_37"/><clipPath id="clip-path-29" transform="translate(0 0)"><polygon class="cls-1" points="70.16 57.02 71.23 56.41 70.64 54.67 68.95 55.65 70.16 57.02"/></clipPath><linearGradient id="Безымянный_градиент_37-22" x1="0" y1="137.27" x2="1" y2="137.27" gradientTransform="matrix(2.28, 0, 0, -2.28, 68.95, 368.98)" xlink:href="#Безымянный_градиент_37"/><clipPath id="clip-path-30" transform="translate(0 0)"><polygon class="cls-1" points="73.36 54.27 73.97 53.2 72.6 52 71.62 53.69 73.36 54.27"/></clipPath><linearGradient id="Безымянный_градиент_37-23" x1="0" y1="137.27" x2="1" y2="137.27" gradientTransform="matrix(2.35, 0, 0, -2.35, 71.62, 375.95)" xlink:href="#Безымянный_градиент_37"/><clipPath id="clip-path-31" transform="translate(0 0)"><polygon class="cls-1" points="74.76 50.3 74.76 49.06 72.96 48.7 72.96 50.66 74.76 50.3"/></clipPath><linearGradient id="Безымянный_градиент_37-24" x1="0" y1="137.27" x2="1" y2="137.27" gradientTransform="matrix(1.8, 0, 0, -1.8, 72.96, 296.33)" xlink:href="#Безымянный_градиент_37"/><clipPath id="clip-path-32" transform="translate(0 0)"><polygon class="cls-1" points="73.97 46.15 73.36 45.08 71.62 45.67 72.6 47.35 73.97 46.15"/></clipPath><linearGradient id="Безымянный_градиент_37-25" x1="0" y1="137.27" x2="1" y2="137.27" gradientTransform="matrix(2.35, 0, 0, -2.35, 71.62, 369.03)" xlink:href="#Безымянный_градиент_37"/><clipPath id="clip-path-33" transform="translate(0 0)"><polygon class="cls-1" points="71.23 42.94 70.16 42.33 68.95 43.7 70.64 44.68 71.23 42.94"/></clipPath><linearGradient id="Безымянный_градиент_37-26" x1="0" y1="137.27" x2="1" y2="137.27" gradientTransform="matrix(2.28, 0, 0, -2.28, 68.95, 356.63)" xlink:href="#Безымянный_градиент_37"/><clipPath id="clip-path-34" transform="translate(0 0)"><path class="cls-1" d="M66.62,43.27A6.41,6.41,0,1,0,73,49.68a6.41,6.41,0,0,0-6.41-6.41m0,8.19a1.77,1.77,0,1,1,1.78-1.78,1.78,1.78,0,0,1-1.78,1.78"/></clipPath><linearGradient id="Безымянный_градиент_37-27" x1="0" y1="137.27" x2="1" y2="137.27" gradientTransform="matrix(12.82, 0, 0, -12.82, 60.22, 1809.12)" xlink:href="#Безымянный_градиент_37"/><clipPath id="clip-path-35" transform="translate(0 0)"><path class="cls-1" d="M66.62,46.6a3.08,3.08,0,1,0,3.08,3.08,3.08,3.08,0,0,0-3.08-3.08m0,4.62a1.54,1.54,0,1,1,1.54-1.54,1.54,1.54,0,0,1-1.54,1.54"/></clipPath><linearGradient id="Безымянный_градиент_37-28" x1="0" y1="137.27" x2="1" y2="137.27" gradientTransform="matrix(6.15, 0, 0, -6.15, 63.55, 894.01)" xlink:href="#Безымянный_градиент_37"/><clipPath id="clip-path-36" transform="translate(0 0)"><rect class="cls-1" x="48.45" y="28.08" width="36.35" height="1.88"/></clipPath><linearGradient id="Безымянный_градиент_37-29" x1="0" y1="137.27" x2="1" y2="137.27" gradientTransform="matrix(36.35, 0, 0, -36.35, 48.44, 5018.63)" xlink:href="#Безымянный_градиент_37"/><clipPath id="clip-path-37" transform="translate(0 0)"><rect class="cls-1" x="44.9" y="24.33" width="43.46" height="1.88"/></clipPath><linearGradient id="Безымянный_градиент_37-30" x1="0" y1="137.27" x2="1" y2="137.27" gradientTransform="matrix(43.46, 0, 0, -43.46, 44.89, 5991.2)" xlink:href="#Безымянный_градиент_37"/><clipPath id="clip-path-38" transform="translate(0 0)"><rect class="cls-1" x="55.15" y="20.57" width="22.96" height="1.88"/></clipPath><linearGradient id="Безымянный_градиент_37-31" x1="0" y1="137.27" x2="1" y2="137.27" gradientTransform="matrix(22.96, 0, 0, -22.96, 55.14, 3173.23)" xlink:href="#Безымянный_градиент_37"/><clipPath id="clip-path-39" transform="translate(0 0)"><rect class="cls-1" x="44.9" y="77.75" width="43.46" height="1.88"/></clipPath><linearGradient id="Безымянный_градиент_37-32" x1="0" y1="137.27" x2="1" y2="137.27" gradientTransform="matrix(43.46, 0, 0, -43.46, 44.89, 6044.62)" xlink:href="#Безымянный_градиент_37"/><clipPath id="clip-path-40" transform="translate(0 0)"><rect class="cls-1" x="44.9" y="73.99" width="43.46" height="1.88"/></clipPath><linearGradient id="Безымянный_градиент_37-33" x1="0" y1="137.27" x2="1" y2="137.27" gradientTransform="matrix(43.46, 0, 0, -43.46, 44.89, 6040.87)" xlink:href="#Безымянный_градиент_37"/><clipPath id="clip-path-41" transform="translate(0 0)"><rect class="cls-1" x="44.9" y="70.23" width="43.46" height="1.88"/></clipPath><linearGradient id="Безымянный_градиент_37-34" x1="0" y1="137.27" x2="1" y2="137.27" gradientTransform="matrix(43.46, 0, 0, -43.46, 44.89, 6037.11)" xlink:href="#Безымянный_градиент_37"/><clipPath id="clip-path-42" transform="translate(0 0)"><path class="cls-1" d="M41.26,13.25a.92.92,0,1,1-.92-.92.92.92,0,0,1,.92.92"/></clipPath><linearGradient id="Безымянный_градиент_37-35" x1="0" y1="137.27" x2="1" y2="137.27" gradientTransform="matrix(1.83, 0, 0, -1.83, 39.42, 264.91)" xlink:href="#Безымянный_градиент_37"/><clipPath id="clip-path-43" transform="translate(0 0)"><path class="cls-1" d="M44.22,13.25a.92.92,0,1,1-.92-.92.92.92,0,0,1,.92.92"/></clipPath><linearGradient id="Безымянный_градиент_37-36" x1="0" y1="137.27" x2="1" y2="137.27" gradientTransform="matrix(1.83, 0, 0, -1.83, 42.38, 264.91)" xlink:href="#Безымянный_градиент_37"/><clipPath id="clip-path-44" transform="translate(0 0)"><path class="cls-1" d="M47.53,13.25a.92.92,0,1,1-.92-.92.92.92,0,0,1,.92.92"/></clipPath><linearGradient id="Безымянный_градиент_37-37" x1="0" y1="137.27" x2="1" y2="137.27" gradientTransform="matrix(1.83, 0, 0, -1.83, 45.7, 264.91)" xlink:href="#Безымянный_градиент_37"/></defs><title>Ресурс 1</title><g class="cls-2"><g id="Слой_2" data-name="Слой 2"><g id="Слой_1-2" data-name="Слой 1"><g class="cls-3"><g class="cls-3"><g class="cls-4"><g class="cls-5"><path class="cls-6" d="M61.45,6.13,1.06,66.52a3.61,3.61,0,0,0,0,5.11L61.45,132a3.61,3.61,0,0,0,5.1,0l60.39-60.39a3.61,3.61,0,0,0,0-5.1L66.55,6.13a3.61,3.61,0,0,0-5.1,0" transform="translate(0 0)"/></g></g><g class="cls-7"><g class="cls-8"><path class="cls-9" d="M91,.17,81.18,10a.59.59,0,0,0,0,.83L91,20.66a.59.59,0,0,0,.83,0l9.83-9.83a.59.59,0,0,0,0-.83L91.83.17a.59.59,0,0,0-.83,0" transform="translate(0 0)"/></g></g><g class="cls-10"><g class="cls-11"><path class="cls-9" d="M18.08,98.94,5.82,111.2a.73.73,0,0,0,0,1L18.08,124.5a.73.73,0,0,0,1,0l12.26-12.26a.73.73,0,0,0,0-1L19.12,98.94a.73.73,0,0,0-1,0" transform="translate(0 0)"/></g></g><g class="cls-12"><g class="cls-13"><path class="cls-9" d="M97.55,108.15,83.69,122a.83.83,0,0,0,0,1.17L97.55,137a.83.83,0,0,0,1.17,0l13.86-13.86a.83.83,0,0,0,0-1.17L98.72,108.15a.83.83,0,0,0-1.17,0" transform="translate(0 0)"/></g></g><path class="cls-14" d="M18.6,95.29a4.62,4.62,0,0,1-4.6-4.6V32.42c0-2.53,2.07-5.83,4.6-5.83h87.1a4.61,4.61,0,0,1,4.6,4.6v59.5a4.61,4.61,0,0,1-4.6,4.6Z" transform="translate(0 0)"/><rect class="cls-15" x="17.7" y="26.59" width="96.3" height="68.7" rx="4.6" ry="4.6"/><path class="cls-16" d="M22.3,26.59h87.1a4.61,4.61,0,0,1,4.6,4.6V86.93H17.7V31.19a4.61,4.61,0,0,1,4.6-4.6" transform="translate(0 0)"/><rect class="cls-17" x="23.84" y="32.72" width="84.03" height="48.07"/><polygon class="cls-18" points="68.31 111.87 46.22 111.87 51.74 95.29 73.83 95.29 68.31 111.87"/><path class="cls-15" d="M75.82,111.87a1.52,1.52,0,0,1,0,3H53.89v-3Z" transform="translate(0 0)"/><path class="cls-14" d="M45.37,114.91A2.47,2.47,0,0,1,43,111.63h0l5.44-16.34h3.27l-5.52,16.59h7.67a1.52,1.52,0,1,1,0,3H45.37Z" transform="translate(0 0)"/><path class="cls-19" d="M68.15,91.2a2.3,2.3,0,1,1-2.3-2.3,2.3,2.3,0,0,1,2.3,2.3" transform="translate(0 0)"/><rect class="cls-20" x="36.96" y="16.06" width="59.34" height="64.73"/><rect class="cls-9" x="36.96" y="10.43" width="59.34" height="5.64"/><rect class="cls-21" x="36.96" y="34.46" width="59.34" height="30.43"/><polygon class="cls-20" points="44.9 49.68 48.37 53.15 48.37 46.2 44.9 49.68"/><polygon class="cls-20" points="88.36 49.68 84.88 53.15 84.88 46.2 88.36 49.68"/><rect class="cls-20" x="54.19" y="37.24" width="24.87" height="24.87"/><polygon class="cls-22" points="67.24 41.54 66.01 41.54 65.65 43.34 67.6 43.34 67.24 41.54"/><polygon class="cls-22" points="63.09 42.33 62.03 42.94 62.61 44.68 64.3 43.7 63.09 42.33"/><polygon class="cls-22" points="59.9 45.08 59.27 46.15 60.65 47.35 61.63 45.66 59.9 45.08"/><polygon class="cls-22" points="58.49 49.06 58.49 50.3 60.29 50.66 60.29 48.7 58.49 49.06"/><polygon class="cls-22" points="59.27 53.2 59.9 54.27 61.63 53.69 60.65 52 59.27 53.2"/><polygon class="cls-22" points="62.03 56.41 63.09 57.02 64.3 55.65 62.61 54.67 62.03 56.41"/><polygon class="cls-22" points="66.01 57.81 67.24 57.81 67.6 56.01 65.65 56.01 66.01 57.81"/><polygon class="cls-22" points="70.16 57.02 71.23 56.41 70.64 54.67 68.95 55.65 70.16 57.02"/><polygon class="cls-22" points="73.36 54.27 73.97 53.2 72.6 52 71.62 53.69 73.36 54.27"/><polygon class="cls-22" points="74.76 50.3 74.76 49.06 72.96 48.7 72.96 50.65 74.76 50.3"/><polygon class="cls-22" points="73.97 46.15 73.36 45.08 71.62 45.67 72.6 47.35 73.97 46.15"/><polygon class="cls-22" points="71.23 42.94 70.16 42.33 68.95 43.7 70.64 44.68 71.23 42.94"/><path class="cls-23" d="M66.62,43.26A6.41,6.41,0,1,0,73,49.68a6.41,6.41,0,0,0-6.41-6.41m0,8.19a1.77,1.77,0,1,1,1.77-1.77,1.78,1.78,0,0,1-1.77,1.77" transform="translate(0 0)"/><path class="cls-24" d="M66.62,46.6a3.08,3.08,0,1,0,3.08,3.08,3.08,3.08,0,0,0-3.08-3.08m0,4.62a1.54,1.54,0,1,1,1.54-1.54,1.54,1.54,0,0,1-1.54,1.54" transform="translate(0 0)"/><rect class="cls-25" x="48.45" y="28.08" width="36.35" height="1.88"/><rect class="cls-25" x="44.9" y="24.32" width="43.46" height="1.88"/><rect class="cls-16" x="55.15" y="20.56" width="22.96" height="1.88"/><rect class="cls-25" x="44.9" y="77.75" width="43.46" height="1.88"/><rect class="cls-25" x="44.9" y="73.99" width="43.46" height="1.88"/><rect class="cls-16" x="44.9" y="70.23" width="43.46" height="1.88"/><path class="cls-26" d="M41.26,13.25a.92.92,0,1,1-.92-.92.92.92,0,0,1,.92.92" transform="translate(0 0)"/><path class="cls-20" d="M44.22,13.25a.92.92,0,1,1-.92-.92.92.92,0,0,1,.92.92" transform="translate(0 0)"/><path class="cls-6" d="M47.53,13.25a.92.92,0,1,1-.92-.92.92.92,0,0,1,.92.92" transform="translate(0 0)"/><g class="cls-27"><g class="cls-28"><g class="cls-29"><rect class="cls-30" x="14" y="26.59" width="96.3" height="68.7"/></g><g class="cls-31"><rect class="cls-32" x="17.7" y="26.59" width="96.3" height="68.7"/></g><g class="cls-33"><rect class="cls-34" x="17.7" y="26.59" width="96.3" height="60.34"/></g><g class="cls-35"><rect class="cls-36" x="23.84" y="32.72" width="84.03" height="48.07"/></g><g class="cls-37"><rect class="cls-38" x="46.22" y="95.29" width="27.6" height="16.59"/></g><g class="cls-39"><rect class="cls-40" x="53.89" y="111.87" width="23.45" height="3.04"/></g><g class="cls-41"><rect class="cls-42" x="42.9" y="95.29" width="12.51" height="19.63"/></g><g class="cls-43"><rect class="cls-44" x="63.55" y="88.9" width="4.6" height="4.6"/></g><g class="cls-45"><rect class="cls-46" x="36.96" y="16.06" width="59.34" height="64.73"/></g><g class="cls-47"><rect class="cls-48" x="36.96" y="10.43" width="59.34" height="5.64"/></g><g class="cls-49"><rect class="cls-50" x="36.96" y="34.46" width="59.34" height="30.43"/></g><g class="cls-51"><rect class="cls-52" x="44.9" y="46.2" width="3.48" height="6.95"/></g><g class="cls-53"><rect class="cls-54" x="84.88" y="46.2" width="3.48" height="6.95"/></g><g class="cls-55"><rect class="cls-56" x="54.19" y="37.24" width="24.87" height="24.87"/></g><g class="cls-57"><rect class="cls-58" x="65.65" y="41.54" width="1.96" height="1.8"/></g><g class="cls-59"><rect class="cls-60" x="62.03" y="42.33" width="2.28" height="2.35"/></g><g class="cls-61"><rect class="cls-62" x="59.27" y="45.08" width="2.35" height="2.27"/></g><g class="cls-63"><rect class="cls-64" x="58.5" y="48.7" width="1.79" height="1.96"/></g><g class="cls-65"><rect class="cls-66" x="59.27" y="52" width="2.35" height="2.27"/></g><g class="cls-67"><rect class="cls-68" x="62.03" y="54.67" width="2.28" height="2.35"/></g><g class="cls-69"><rect class="cls-70" x="65.65" y="56.01" width="1.96" height="1.8"/></g><g class="cls-71"><rect class="cls-72" x="68.95" y="54.67" width="2.28" height="2.35"/></g><g class="cls-73"><rect class="cls-74" x="71.62" y="52" width="2.35" height="2.27"/></g><g class="cls-75"><rect class="cls-76" x="72.96" y="48.7" width="1.8" height="1.96"/></g><g class="cls-77"><rect class="cls-78" x="71.62" y="45.08" width="2.35" height="2.27"/></g><g class="cls-79"><rect class="cls-80" x="68.95" y="42.33" width="2.28" height="2.35"/></g><g class="cls-81"><rect class="cls-82" x="60.22" y="43.26" width="12.82" height="12.82"/></g><g class="cls-83"><rect class="cls-84" x="63.55" y="46.6" width="6.15" height="6.16"/></g><g class="cls-85"><rect class="cls-86" x="48.45" y="28.08" width="36.35" height="1.88"/></g><g class="cls-87"><rect class="cls-88" x="44.9" y="24.32" width="43.46" height="1.88"/></g><g class="cls-89"><rect class="cls-90" x="55.15" y="20.56" width="22.96" height="1.88"/></g><g class="cls-91"><rect class="cls-92" x="44.9" y="77.75" width="43.46" height="1.88"/></g><g class="cls-93"><rect class="cls-94" x="44.9" y="73.99" width="43.46" height="1.88"/></g><g class="cls-95"><rect class="cls-96" x="44.9" y="70.23" width="43.46" height="1.88"/></g><g class="cls-97"><rect class="cls-98" x="39.42" y="12.33" width="1.83" height="1.83"/></g><g class="cls-99"><rect class="cls-100" x="42.38" y="12.33" width="1.83" height="1.83"/></g><g class="cls-101"><rect class="cls-102" x="45.7" y="12.33" width="1.83" height="1.83"/></g></g></g></g></g></g></g></g></svg>