<svg xmlns="http://www.w3.org/2000/svg" xmlns:xlink="http://www.w3.org/1999/xlink" viewBox="0 0 128 132.19" width="128"><defs><style>.cls-1{fill:none;}.cls-2{isolation:isolate;}.cls-3{clip-path:url(#clip-path);}.cls-4{opacity:0.6;mix-blend-mode:multiply;}.cls-5{clip-path:url(#clip-path-3);}.cls-6{fill:#90caf9;}.cls-7{opacity:0.15;}.cls-8{clip-path:url(#clip-path-4);}.cls-9{fill:#1876c4;}.cls-10{opacity:0.2;}.cls-11{clip-path:url(#clip-path-5);}.cls-12{opacity:0.1;}.cls-13{clip-path:url(#clip-path-6);}.cls-14{fill:#a4a9ad;}.cls-15{fill:#c3c6c8;}.cls-16{fill:#8497a0;}.cls-17{fill:#242d3c;}.cls-18{fill:#fff;}.cls-19{fill:#ff6d3b;}.cls-20{fill:#f15424;}.cls-21{fill:#e64717;}.cls-22{fill:#e6e5e5;}.cls-23{fill:#cdd3da;}.cls-24{fill:#203945;}.cls-25{fill:#f6f8fb;}.cls-26{fill:#4c636f;}</style><clipPath id="clip-path"><rect class="cls-1" width="128" height="132.19"/></clipPath><clipPath id="clip-path-3"><rect class="cls-1" width="128" height="128"/></clipPath><clipPath id="clip-path-4"><rect class="cls-1" x="107.17" y="20.87" width="20.83" height="20.83"/></clipPath><clipPath id="clip-path-5"><rect class="cls-1" x="5.61" y="93.65" width="25.99" height="25.99"/></clipPath><clipPath id="clip-path-6"><rect class="cls-1" x="83.45" y="102.83" width="29.37" height="29.37"/></clipPath></defs><title>Ресурс 1</title><g class="cls-2"><g id="Слой_2" data-name="Слой 2"><g id="Слой_1-2" data-name="Слой 1"><g class="cls-3"><g class="cls-3"><g class="cls-4"><g class="cls-5"><path class="cls-6" d="M61.45,1.06,1.06,61.45a3.61,3.61,0,0,0,0,5.11l60.39,60.39a3.61,3.61,0,0,0,5.1,0l60.39-60.39a3.61,3.61,0,0,0,0-5.1L66.55,1.06a3.61,3.61,0,0,0-5.1,0"/></g></g><g class="cls-7"><g class="cls-8"><path class="cls-9" d="M117.17,21l-9.83,9.83a.59.59,0,0,0,0,.83l9.83,9.83a.59.59,0,0,0,.83,0l9.83-9.83a.59.59,0,0,0,0-.83L118,21a.59.59,0,0,0-.83,0"/></g></g><g class="cls-10"><g class="cls-11"><path class="cls-9" d="M18.08,93.86,5.82,106.12a.73.73,0,0,0,0,1l12.26,12.26a.73.73,0,0,0,1,0l12.26-12.26a.73.73,0,0,0,0-1L19.12,93.86a.73.73,0,0,0-1,0"/></g></g><g class="cls-12"><g class="cls-13"><path class="cls-9" d="M97.55,103.07,83.69,116.92a.83.83,0,0,0,0,1.17L97.55,132a.83.83,0,0,0,1.17,0l13.86-13.86a.83.83,0,0,0,0-1.17L98.72,103.07a.83.83,0,0,0-1.17,0"/></g></g><path class="cls-14" d="M86.43,28a1.71,1.71,0,0,0-1.22-.5H11A1.72,1.72,0,0,0,9.28,29.2V84.1A1.73,1.73,0,0,0,11,85.82H85.21a1.73,1.73,0,0,0,1.73-1.72V29.2A1.71,1.71,0,0,0,86.43,28"/><path class="cls-15" d="M67.21,97.39H37v-.51a.71.71,0,0,1,.2-.49.7.7,0,0,1,.49-.2H66.52a.69.69,0,0,1,.69.7v.51Z"/><path class="cls-15" d="M90.94,84.1a1.73,1.73,0,0,1-1.73,1.72H15a1.73,1.73,0,0,1-1.72-1.72V78.92H90.94Z"/><polygon class="cls-16" points="62.9 96.17 41.32 96.17 42.5 85.82 61.73 85.82 62.9 96.17"/><path class="cls-17" d="M90.94,29.2a1.73,1.73,0,0,0-1.73-1.73H15a1.73,1.73,0,0,0-1.72,1.73V78.92H90.94Z"/><rect class="cls-18" x="17.17" y="31.36" width="69.89" height="43.68"/><rect class="cls-19" x="22.13" y="63.72" width="5" height="7.22"/><rect class="cls-20" x="27.13" y="51.25" width="4.99" height="19.69"/><rect class="cls-21" x="32.12" y="57.81" width="5" height="13.13"/><rect class="cls-19" x="37.12" y="54.97" width="5" height="15.97"/><rect class="cls-20" x="42.12" y="60.11" width="4.99" height="10.83"/><rect class="cls-21" x="47.11" y="47.1" width="5" height="23.85"/><rect class="cls-19" x="52.12" y="55.41" width="4.99" height="15.53"/><rect class="cls-20" x="57.1" y="56.94" width="5" height="14"/><rect class="cls-21" x="62.11" y="51.25" width="5" height="19.69"/><rect class="cls-19" x="67.1" y="44.91" width="5" height="26.03"/><rect class="cls-20" x="72.1" y="42.07" width="5" height="28.87"/><rect class="cls-21" x="77.1" y="48.74" width="5" height="22.2"/><rect class="cls-21" x="47.11" y="36.47" width="2.72" height="2.72"/><rect class="cls-22" x="51.2" y="37.83" width="6.13" height="1.36"/><rect class="cls-19" x="59.5" y="36.47" width="2.72" height="2.72"/><rect class="cls-22" x="63.58" y="37.83" width="6.14" height="1.36"/><rect class="cls-20" x="71.89" y="36.47" width="2.72" height="2.72"/><rect class="cls-22" x="75.97" y="37.83" width="6.13" height="1.36"/><rect class="cls-17" x="22.13" y="34.2" width="19.99" height="5"/><rect class="cls-18" x="24.41" y="36.09" width="7.71" height="1.36"/><rect class="cls-22" x="22.13" y="40.56" width="19.99" height="1.36"/><rect class="cls-22" x="22.13" y="43.28" width="9.99" height="1.36"/><path class="cls-17" d="M13.28,59.45a.29.29,0,1,1,.29-.29.29.29,0,0,1-.29.29"/><path class="cls-23" d="M89.57,40.88A17.1,17.1,0,0,0,72.47,58V68.13h5.47V58a11.63,11.63,0,0,1,23.25,0V68.13h5.48V58a17.09,17.09,0,0,0-17.1-17.08"/><rect class="cls-24" x="66.14" y="68.13" width="46.85" height="35.04"/><rect class="cls-25" x="70.4" y="80.68" width="38.33" height="9.94"/><path class="cls-26" d="M76.61,87.39a1.75,1.75,0,1,1,1.75-1.75,1.75,1.75,0,0,1-1.75,1.75"/><path class="cls-26" d="M83.09,87.39a1.75,1.75,0,1,1,1.74-1.75,1.75,1.75,0,0,1-1.74,1.75"/><path class="cls-26" d="M89.56,87.39a1.75,1.75,0,1,1,1.75-1.75,1.75,1.75,0,0,1-1.75,1.75"/><path class="cls-26" d="M96,87.39a1.75,1.75,0,1,1,1.75-1.75A1.75,1.75,0,0,1,96,87.39"/><path class="cls-26" d="M102.52,87.39a1.75,1.75,0,1,1,1.75-1.75,1.75,1.75,0,0,1-1.75,1.75"/><rect class="cls-26" x="66.14" y="103.17" width="46.85" height="7.45"/></g></g></g></g></g></svg>