<svg xmlns="http://www.w3.org/2000/svg" xmlns:xlink="http://www.w3.org/1999/xlink" viewBox="0 0 128 137.34" width="128"><defs><style>.cls-1{fill:none;}.cls-2{isolation:isolate;}.cls-3{clip-path:url(#clip-path);}.cls-4{opacity:0.6;mix-blend-mode:multiply;}.cls-5{clip-path:url(#clip-path-3);}.cls-6{fill:#bc2879;}.cls-7{opacity:0.15;}.cls-8{clip-path:url(#clip-path-4);}.cls-9{fill:#1876c4;}.cls-10{opacity:0.2;}.cls-11{clip-path:url(#clip-path-5);}.cls-12{opacity:0.1;}.cls-13{clip-path:url(#clip-path-6);}.cls-14{fill:#a4a9ad;}.cls-15{fill:#c3c6c8;}.cls-16{fill:#4c636f;}.cls-17{fill:#90caf9;}.cls-18{fill:#b3b8ba;}.cls-19{fill:#203945;}.cls-20{fill:#fff;}.cls-21{fill:#faa629;}.cls-22{fill:#8497a0;}.cls-23{fill:#049681;}.cls-24{fill:#d9d8d7;}.cls-25{fill:#353f49;}.cls-26{fill:#f7b661;}.cls-27{opacity:0.3;mix-blend-mode:overlay;}.cls-28{clip-path:url(#clip-path-7);}.cls-29{clip-path:url(#clip-path-8);}.cls-30{fill:url(#Безымянный_градиент);}</style><clipPath id="clip-path" transform="translate(0 0)"><rect class="cls-1" width="128" height="137.34"/></clipPath><clipPath id="clip-path-3" transform="translate(0 0)"><rect class="cls-1" y="5.14" width="128" height="128"/></clipPath><clipPath id="clip-path-4" transform="translate(0 0)"><rect class="cls-1" x="27.95" width="20.83" height="20.83"/></clipPath><clipPath id="clip-path-5" transform="translate(0 0)"><rect class="cls-1" x="5.61" y="98.79" width="25.99" height="25.99"/></clipPath><clipPath id="clip-path-6" transform="translate(0 0)"><rect class="cls-1" x="83.45" y="107.97" width="29.37" height="29.37"/></clipPath><clipPath id="clip-path-7" transform="translate(0 0)"><rect class="cls-1" x="14" y="15.04" width="100" height="103.21"/></clipPath><clipPath id="clip-path-8" transform="translate(0 0)"><path class="cls-1" d="M109.4,29.93H95.33V23.09h-.09V15H35.9V29.93H18.6c-2.53,0-4.6,3.3-4.6,5.83V94a4.62,4.62,0,0,0,4.6,4.6H48.47L43,115h0a2.47,2.47,0,0,0,2.33,3.29H75.82a1.52,1.52,0,0,0,0-3H68.31l5.52-16.59H109.4A4.61,4.61,0,0,0,114,94V34.53a4.61,4.61,0,0,0-4.6-4.6M46.22,115.21l5.52-16.59h0Z"/></clipPath><linearGradient id="Безымянный_градиент" y1="137.34" x2="1" y2="137.34" gradientTransform="matrix(100, 0, 0, -100, 13.97, 13800.35)" gradientUnits="userSpaceOnUse"><stop offset="0" stop-color="#fff"/><stop offset="0.04" stop-color="#eceeef"/><stop offset="0.18" stop-color="#b7bfc3"/><stop offset="0.32" stop-color="#88969c"/><stop offset="0.46" stop-color="#63747d"/><stop offset="0.6" stop-color="#465a64"/><stop offset="0.74" stop-color="#314853"/><stop offset="0.87" stop-color="#243d48"/><stop offset="1" stop-color="#203945"/></linearGradient></defs><title>Ресурс 1</title><g class="cls-2"><g id="Слой_2" data-name="Слой 2"><g id="Слой_1-2" data-name="Слой 1"><g class="cls-3"><g class="cls-3"><g class="cls-4"><g class="cls-5"><path class="cls-6" d="M61.45,6.2,1.06,66.59a3.61,3.61,0,0,0,0,5.11l60.39,60.39a3.61,3.61,0,0,0,5.1,0L126.94,71.7a3.61,3.61,0,0,0,0-5.11L66.55,6.2a3.61,3.61,0,0,0-5.1,0" transform="translate(0 0)"/></g></g><g class="cls-7"><g class="cls-8"><path class="cls-9" d="M37.95.17,28.12,10a.59.59,0,0,0,0,.83l9.83,9.83a.59.59,0,0,0,.83,0l9.83-9.83a.59.59,0,0,0,0-.83L38.78.17a.59.59,0,0,0-.83,0" transform="translate(0 0)"/></g></g><g class="cls-10"><g class="cls-11"><path class="cls-9" d="M18.08,99,5.82,111.27a.73.73,0,0,0,0,1l12.26,12.26a.73.73,0,0,0,1,0L31.38,112.3a.73.73,0,0,0,0-1L19.12,99a.73.73,0,0,0-1,0" transform="translate(0 0)"/></g></g><g class="cls-12"><g class="cls-13"><path class="cls-9" d="M97.55,108.21,83.69,122.07a.83.83,0,0,0,0,1.17l13.86,13.86a.83.83,0,0,0,1.17,0l13.86-13.86a.83.83,0,0,0,0-1.17L98.72,108.21a.83.83,0,0,0-1.17,0" transform="translate(0 0)"/></g></g><path class="cls-14" d="M18.6,98.62A4.61,4.61,0,0,1,14,94V35.75c0-2.53,2.07-5.83,4.6-5.83h87.1a4.61,4.61,0,0,1,4.6,4.6V94a4.61,4.61,0,0,1-4.6,4.6Z" transform="translate(0 0)"/><rect class="cls-15" x="17.7" y="29.93" width="96.3" height="68.7" rx="4.6" ry="4.6"/><path class="cls-16" d="M22.3,29.93h87.1a4.61,4.61,0,0,1,4.6,4.6V90.26H17.7V34.53a4.61,4.61,0,0,1,4.6-4.6" transform="translate(0 0)"/><rect class="cls-17" x="23.84" y="36.06" width="84.03" height="48.07"/><polygon class="cls-18" points="68.31 115.21 46.23 115.21 51.74 98.62 73.83 98.62 68.31 115.21"/><path class="cls-15" d="M75.82,115.21a1.52,1.52,0,1,1,0,3H53.89v-3Z" transform="translate(0 0)"/><path class="cls-14" d="M45.37,118.25A2.47,2.47,0,0,1,43,115h0l5.44-16.34h3.27l-5.52,16.59h7.67a1.52,1.52,0,1,1,0,3H45.37Z" transform="translate(0 0)"/><path class="cls-19" d="M68.15,94.53a2.3,2.3,0,1,1-2.3-2.3,2.3,2.3,0,0,1,2.3,2.3" transform="translate(0 0)"/><rect class="cls-20" x="35.9" y="20.68" width="59.34" height="63.45"/><rect class="cls-21" x="35.9" y="15.04" width="59.34" height="5.64"/><rect class="cls-22" x="43.84" y="72.06" width="43.46" height="1.88"/><rect class="cls-22" x="43.84" y="68.3" width="43.46" height="1.88"/><rect class="cls-22" x="43.84" y="64.54" width="43.46" height="1.88"/><rect class="cls-16" x="43.84" y="60.78" width="43.46" height="1.88"/><rect class="cls-22" x="43.84" y="75.82" width="43.46" height="1.88"/><rect class="cls-22" x="43.84" y="79.59" width="21.73" height="1.88"/><path class="cls-6" d="M40.2,17.86a.92.92,0,1,1-.92-.92.92.92,0,0,1,.92.92" transform="translate(0 0)"/><path class="cls-20" d="M43.16,17.86a.92.92,0,1,1-.92-.92.92.92,0,0,1,.92.92" transform="translate(0 0)"/><path class="cls-23" d="M46.47,17.86a.92.92,0,1,1-.92-.92.92.92,0,0,1,.92.92" transform="translate(0 0)"/><rect class="cls-24" x="35.9" y="27.39" width="32.12" height="29.96"/><polygon class="cls-25" points="56.97 37.26 46.95 37.26 46.26 51.83 57.66 51.83 56.97 37.26"/><path class="cls-20" d="M63,54.1a3.65,3.65,0,0,0-2.12-2.29l-5.18-2.05a1.51,1.51,0,0,1-.67-.54,1.45,1.45,0,0,1-.25-.82V45.88H49.13v2.53a1.46,1.46,0,0,1-.92,1.35L43,51.81a3.58,3.58,0,0,0-1.32.91,3.64,3.64,0,0,0-.81,1.38l-1,3.25H64Z" transform="translate(0 0)"/><path class="cls-26" d="M45,53.75a11.57,11.57,0,0,1-.55,3.6h15.1a11.51,11.51,0,0,1-.55-3.6,11.18,11.18,0,0,1,.29-2.58l-1.39-.55-.6,2.4a5.47,5.47,0,0,1-1.94,3,5.66,5.66,0,0,1-6.74,0,5.47,5.47,0,0,1-1.94-3l-.6-2.4-1.39.55A11.08,11.08,0,0,1,45,53.75" transform="translate(0 0)"/><path class="cls-20" d="M52,33.06c-3.1,0-5.31,2.26-5.31,7,0,4,2.38,7.46,5.31,7.46s5.31-3.42,5.31-7.46c0-4.78-2.21-7-5.31-7" transform="translate(0 0)"/><path class="cls-19" d="M56.72,33.31H47.2s-.68,4.76.19,5.73c0-.39.38-.51,1-.51a5.32,5.32,0,0,0,.92-2.23,7,7,0,0,1,.16,2.27c.68,0,1.51.11,2.49.12h.72a1.13,1.13,0,0,0,.42-.6,1.18,1.18,0,0,1,.2.57c2-.11,3.17-.35,3.24.38.87-1,.19-5.73.19-5.73" transform="translate(0 0)"/><path class="cls-19" d="M48.21,49.76a1.46,1.46,0,0,0,.92-1.35V47.33h-1.6a32.77,32.77,0,0,1-.32-4.39c0-4.16.29-5.71,1.43-7.11A6.44,6.44,0,0,1,52,33.64a6.43,6.43,0,0,1,3.32,2.18c1.15,1.4,1.43,3,1.43,7.11a32.42,32.42,0,0,1-.32,4.39h-1.6V48.4a1.45,1.45,0,0,0,.25.82,1.5,1.5,0,0,0,.67.54l3,1.18a2.47,2.47,0,0,0,.55-1.56v-2a57,57,0,0,0-.83-11.21c-.64-2.81-3-5.52-6.43-4.79-3.4-.74-5.79,2-6.43,4.79a56.84,56.84,0,0,0-.84,11.21v2a2.47,2.47,0,0,0,.56,1.56Z" transform="translate(0 0)"/><rect class="cls-19" x="35.9" y="23.09" width="32.12" height="4.3"/><rect class="cls-21" x="71.79" y="23.09" width="23.54" height="8.61"/><rect class="cls-22" x="71.79" y="33.05" width="23.54" height="1.36"/><rect class="cls-22" x="71.79" y="35.78" width="23.54" height="1.36"/><rect class="cls-22" x="71.79" y="38.51" width="11.77" height="1.36"/><path class="cls-24" d="M82.05,47.09a1.9,1.9,0,1,1-1.9,1.9,1.9,1.9,0,0,1,1.9-1.9" transform="translate(0 0)"/><polygon class="cls-25" points="85.9 58.52 82.05 48.99 91.59 52.84 87.87 54.81 85.9 58.52"/><rect class="cls-25" x="88.33" y="53.78" width="1.52" height="4.49" transform="translate(-13.51 79.45) rotate(-45.03)"/><rect class="cls-22" x="78.1" y="43.98" width="0.59" height="2.7" transform="translate(-9.1 68.69) rotate(-44.98)"/><rect class="cls-22" x="76.98" y="45.66" width="0.59" height="2.7" transform="translate(4.29 100.44) rotate(-67.52)"/><rect class="cls-22" x="75.53" y="48.69" width="2.7" height="0.59"/><rect class="cls-22" x="75.93" y="50.67" width="2.7" height="0.59" transform="translate(-13.55 33.05) rotate(-22.25)"/><rect class="cls-22" x="77.04" y="52.35" width="2.7" height="0.59" transform="translate(-14.26 70.85) rotate(-45)"/><rect class="cls-22" x="78.72" y="53.47" width="2.7" height="0.59" transform="translate(-0.24 107.16) rotate(-67.5)"/><rect class="cls-22" x="81.76" y="52.81" width="0.59" height="2.7"/><rect class="cls-22" x="85.87" y="48.69" width="2.7" height="0.59"/><rect class="cls-22" x="85.48" y="46.71" width="2.7" height="0.59" transform="translate(-11.36 36.66) rotate(-22.41)"/><rect class="cls-22" x="84.36" y="45.03" width="2.7" height="0.59" transform="translate(-6.91 73.99) rotate(-45.07)"/><rect class="cls-22" x="82.68" y="43.91" width="2.7" height="0.59" transform="translate(11.03 104.92) rotate(-67.5)"/><rect class="cls-22" x="81.76" y="42.47" width="0.59" height="2.7"/><rect class="cls-22" x="79.77" y="42.86" width="0.59" height="2.7" transform="translate(-10.83 34.02) rotate(-22.51)"/><g class="cls-27"><g class="cls-28"><g class="cls-29"><rect class="cls-30" x="14" y="15.04" width="100" height="103.21"/></g></g></g></g></g></g></g></g></svg>