<svg xmlns="http://www.w3.org/2000/svg" xmlns:xlink="http://www.w3.org/1999/xlink" viewBox="0 0 128 132.19" width="128"><defs><style>.cls-1{fill:none;}.cls-2{isolation:isolate;}.cls-3{clip-path:url(#clip-path);}.cls-4{opacity:0.6;mix-blend-mode:multiply;}.cls-5{clip-path:url(#clip-path-3);}.cls-6{fill:#90caf9;}.cls-7{opacity:0.15;}.cls-8{clip-path:url(#clip-path-4);}.cls-9{fill:#1876c4;}.cls-10{opacity:0.2;}.cls-11{clip-path:url(#clip-path-5);}.cls-12{opacity:0.1;}.cls-13{clip-path:url(#clip-path-6);}.cls-14{fill:#cccbca;}.cls-15{fill:#f2f2f2;}.cls-16{fill:#fff;}.cls-17{fill:#242d3c;}.cls-18{fill:#e6e5e5;}.cls-19{fill:#ff6d3b;}.cls-20{fill:#ffd55c;}.cls-21{fill:#ffcdd2;}.cls-22{fill:#ffebee;}.cls-23{fill:#212121;}.cls-24{fill:#545554;}</style><clipPath id="clip-path"><rect class="cls-1" width="128" height="132.19"/></clipPath><clipPath id="clip-path-3"><rect class="cls-1" width="128" height="128"/></clipPath><clipPath id="clip-path-4"><rect class="cls-1" x="107.17" y="20.87" width="20.83" height="20.83"/></clipPath><clipPath id="clip-path-5"><rect class="cls-1" x="5.61" y="93.65" width="25.99" height="25.99"/></clipPath><clipPath id="clip-path-6"><rect class="cls-1" x="83.45" y="102.83" width="29.37" height="29.37"/></clipPath></defs><title>Ресурс 1</title><g class="cls-2"><g id="Слой_2" data-name="Слой 2"><g id="Слой_1-2" data-name="Слой 1"><g class="cls-3"><g class="cls-3"><g class="cls-4"><g class="cls-5"><path class="cls-6" d="M61.45,1.06,1.06,61.45a3.61,3.61,0,0,0,0,5.11l60.39,60.39a3.61,3.61,0,0,0,5.1,0l60.39-60.39a3.61,3.61,0,0,0,0-5.1L66.55,1.06a3.61,3.61,0,0,0-5.1,0"/></g></g><g class="cls-7"><g class="cls-8"><path class="cls-9" d="M117.17,21l-9.83,9.83a.59.59,0,0,0,0,.83l9.83,9.83a.59.59,0,0,0,.83,0l9.83-9.83a.59.59,0,0,0,0-.83L118,21a.59.59,0,0,0-.83,0"/></g></g><g class="cls-10"><g class="cls-11"><path class="cls-9" d="M18.08,93.86,5.82,106.12a.73.73,0,0,0,0,1l12.26,12.26a.73.73,0,0,0,1,0l12.26-12.26a.73.73,0,0,0,0-1L19.12,93.86a.73.73,0,0,0-1,0"/></g></g><g class="cls-12"><g class="cls-13"><path class="cls-9" d="M97.55,103.07,83.69,116.92a.83.83,0,0,0,0,1.17L97.55,132a.83.83,0,0,0,1.17,0l13.86-13.86a.83.83,0,0,0,0-1.17L98.72,103.07a.83.83,0,0,0-1.17,0"/></g></g><path class="cls-14" d="M107.07,13.52a6.93,6.93,0,0,0-6.93,6.93H114a6.93,6.93,0,0,0-6.93-6.93"/><path class="cls-15" d="M62.48,13.52a6.93,6.93,0,0,0-6.93,6.93V76.6H93.22a6.93,6.93,0,0,0,6.93-6.93V20.45a6.93,6.93,0,0,1,6.93-6.93Z"/><path class="cls-16" d="M79.37,50.44a6.93,6.93,0,0,0-6.93,6.93v49.22a6.92,6.92,0,0,1-6.93,6.93H27.85V57.37a6.93,6.93,0,0,1,6.93-6.93Z"/><path class="cls-14" d="M86.3,69.67V57.37a6.93,6.93,0,0,0-13.85,0V76.6H93.22a6.93,6.93,0,0,1-6.93-6.93"/><path class="cls-14" d="M27.85,106.59v6.93H20.93a6.92,6.92,0,0,0,6.93-6.93"/><rect class="cls-17" x="32.84" y="57.37" width="34.61" height="1.54"/><rect class="cls-18" x="32.84" y="60.45" width="17.31" height="1.54"/><rect class="cls-18" x="32.84" y="95.74" width="34.61" height="1.54"/><rect class="cls-18" x="32.84" y="98.81" width="34.61" height="1.54"/><rect class="cls-18" x="32.84" y="101.89" width="17.31" height="1.54"/><path class="cls-17" d="M52.54,87A11.54,11.54,0,1,1,40,68.2l4.41,10.66Z"/><path class="cls-19" d="M55.92,78.86H44.38V67.32A11.54,11.54,0,0,1,55.92,78.86"/><path class="cls-18" d="M55.92,78.86A11.5,11.5,0,0,1,52.54,87l-8.16-8.16Z"/><path class="cls-20" d="M44.38,67.32V78.86L40,68.2a11.4,11.4,0,0,1,4.41-.88"/><rect class="cls-19" x="58.68" y="67.32" width="2.69" height="2.69"/><rect class="cls-18" x="58.68" y="74.12" width="2.69" height="2.69"/><rect class="cls-17" x="58.68" y="80.91" width="2.69" height="2.69"/><rect class="cls-20" x="58.68" y="87.71" width="2.69" height="2.69"/><rect class="cls-18" x="63.18" y="68.47" width="4.27" height="1.54"/><rect class="cls-18" x="63.18" y="75.27" width="4.27" height="1.54"/><rect class="cls-18" x="63.18" y="82.06" width="4.27" height="1.54"/><rect class="cls-18" x="63.18" y="88.86" width="4.27" height="1.54"/><rect class="cls-17" x="60.54" y="35.34" width="4.95" height="4.15"/><rect class="cls-14" x="67.96" y="29.38" width="4.95" height="10.1"/><rect class="cls-14" x="75.38" y="32.72" width="4.94" height="6.76"/><rect class="cls-19" x="82.8" y="20.45" width="4.94" height="19.04"/><rect class="cls-14" x="90.22" y="27.26" width="4.94" height="12.23"/><rect class="cls-14" x="60.54" y="42.66" width="34.62" height="1.54"/><rect class="cls-14" x="60.54" y="45.73" width="34.62" height="1.54"/><rect class="cls-14" x="60.54" y="20.45" width="12.37" height="4.61"/><rect class="cls-16" x="62.08" y="21.98" width="9.29" height="1.54"/><polygon class="cls-14" points="70.44 27.54 67.96 25.06 70.44 25.06 70.44 27.54"/><path class="cls-21" d="M85.26,64.2C84,64.2,84,65.55,84,65.55v-1.4a133.81,133.81,0,0,1-17.1,1.26c-1.22,0-2.44,0-3.65-.07-5.5-.2-10.58-.8-13.46-1.19V74l4.89,12.22L61,91.06a3.66,3.66,0,0,0,2.74,1.23h6.48a3.66,3.66,0,0,0,2.74-1.23l6.24-4.88,3.92-9.8c3.46-.25,4.63-5.5,4.63-9.47a2.78,2.78,0,0,0-2.44-2.72"/><path class="cls-22" d="M49.84,64.16v1.4s0-1.36-1.22-1.36a2.79,2.79,0,0,0-2.44,2.72c0,4,1.17,9.23,4.63,9.48l3.92,9.79L61,91.06a3.66,3.66,0,0,0,2.74,1.23h3.24V65.42c-1.22,0-2.44,0-3.65-.07-5.5-.2-10.58-.8-13.46-1.19"/><path class="cls-23" d="M101.14,99.62A7.31,7.31,0,0,0,97.43,96L79.16,91.07V86.18l-6.24,4.88a3.65,3.65,0,0,1-2.74,1.23H63.7A3.66,3.66,0,0,1,61,91.06l-6.24-4.88v4.89L36.45,96a7.32,7.32,0,0,0-3.72,3.64l-4.89,13.44H106Z"/><path class="cls-23" d="M66.94,63C53,63,47.4,60.53,47.4,60.53V64.2s1.4,8.55,11.17,8.55c3.88,0,8.38-3.67,8.38-4.89,0,1.22,4.49,4.89,8.38,4.89,9.77,0,11.17-8.55,11.17-8.55V60.53S80.9,63,66.94,63"/><path class="cls-16" d="M63.28,66.64c0,.9-1.64,2.39-3.67,2.4-3.66,0-4.89-1.51-4.89-2.4Z"/><path class="cls-16" d="M70.6,66.64c0,.9,1.64,2.39,3.66,2.4,3.66,0,4.89-1.51,4.89-2.4Z"/><path class="cls-23" d="M86.48,55.69s-.46.1-1.34.25c-1.08-15.13-9.64-17.4-18.21-17.4s-17.13,2.27-18.21,17.4c-.35-.06-1-.18-1.34-.25a2.19,2.19,0,0,0-1.73,1A3.84,3.84,0,0,0,45,58.93h0v1.62c0,1.78,1.1,3.24,2.44,3.24a140.46,140.46,0,0,0,15.9,1.55c1.2,0,2.42.07,3.64.07a136.74,136.74,0,0,0,19.54-1.62c1.34,0,2.44-1.46,2.44-3.24V58.93c0-1.79-1.1-3.25-2.44-3.25"/><path class="cls-24" d="M48.73,55.94c-.88-.15-1.34-.25-1.34-.25-1.34,0-2.44,1.46-2.44,3.24v1.62c0,1.79,1.1,3.24,2.44,3.24a136.76,136.76,0,0,0,19.54,1.62V38.54c-8.57,0-17.13,2.27-18.21,17.4"/><path class="cls-23" d="M75.49,81.3c-.11-3,.57-6.11-8.55-6.11s-8.44,3.13-8.55,6.11c-.15,4.28,3.66,6.11,8.55,9.77,4.89-3.66,8.7-5.49,8.55-9.77M66.94,85c-6.1,0-5.89-6.06-6.1-6.11H73c-.21,0,0,6.14-6.11,6.11"/><path class="cls-14" d="M58.59,106.59H14a6.93,6.93,0,0,0,6.93,6.93H65.52a6.93,6.93,0,0,1-6.92-6.93"/></g></g></g></g></g></svg>