<svg xmlns="http://www.w3.org/2000/svg" xmlns:xlink="http://www.w3.org/1999/xlink" viewBox="0 0 128 132.19" width="128"><defs><style>.cls-1{fill:none;}.cls-2{isolation:isolate;}.cls-3{clip-path:url(#clip-path);}.cls-4{opacity:0.6;mix-blend-mode:multiply;}.cls-5{clip-path:url(#clip-path-3);}.cls-6{fill:#90caf9;}.cls-7{opacity:0.15;}.cls-8{clip-path:url(#clip-path-4);}.cls-9{fill:#1876c4;}.cls-10{opacity:0.2;}.cls-11{clip-path:url(#clip-path-5);}.cls-12{opacity:0.1;}.cls-13{clip-path:url(#clip-path-6);}.cls-14{fill:#06b2b8;}.cls-15{fill:#21d8de;}.cls-16{fill:#b0bec5;}.cls-17{fill:#fff;}.cls-18{fill:#ff6d3b;}.cls-19{fill:#cccbca;}.cls-20{fill:#ffd55c;}.cls-21{fill:#ffb733;}.cls-22{fill:#242d3c;}.cls-23{fill:#ffc640;}</style><clipPath id="clip-path"><rect class="cls-1" width="128" height="132.19"/></clipPath><clipPath id="clip-path-3"><rect class="cls-1" width="128" height="128"/></clipPath><clipPath id="clip-path-4"><rect class="cls-1" x="107.17" y="20.87" width="20.83" height="20.83"/></clipPath><clipPath id="clip-path-5"><rect class="cls-1" x="5.61" y="93.65" width="25.99" height="25.99"/></clipPath><clipPath id="clip-path-6"><rect class="cls-1" x="83.45" y="102.83" width="29.37" height="29.37"/></clipPath></defs><title>Ресурс 1</title><g class="cls-2"><g id="Слой_2" data-name="Слой 2"><g id="Слой_1-2" data-name="Слой 1"><g class="cls-3"><g class="cls-3"><g class="cls-4"><g class="cls-5"><path class="cls-6" d="M61.45,1.06,1.06,61.45a3.61,3.61,0,0,0,0,5.11l60.39,60.39a3.61,3.61,0,0,0,5.1,0l60.39-60.39a3.61,3.61,0,0,0,0-5.1L66.55,1.06a3.61,3.61,0,0,0-5.11,0"/></g></g><g class="cls-7"><g class="cls-8"><path class="cls-9" d="M117.17,21l-9.83,9.83a.59.59,0,0,0,0,.83l9.83,9.83a.59.59,0,0,0,.83,0l9.83-9.83a.59.59,0,0,0,0-.83L118,21a.59.59,0,0,0-.83,0"/></g></g><g class="cls-10"><g class="cls-11"><path class="cls-9" d="M18.08,93.86,5.82,106.12a.73.73,0,0,0,0,1l12.26,12.26a.73.73,0,0,0,1,0l12.26-12.26a.73.73,0,0,0,0-1L19.12,93.86a.73.73,0,0,0-1,0"/></g></g><g class="cls-12"><g class="cls-13"><path class="cls-9" d="M97.55,103.07,83.69,116.92a.83.83,0,0,0,0,1.17L97.55,132a.83.83,0,0,0,1.17,0l13.85-13.86a.83.83,0,0,0,0-1.17L98.72,103.07a.83.83,0,0,0-1.17,0"/></g></g></g><rect class="cls-14" x="32.61" y="63.52" width="77.39" height="44.85"/><rect class="cls-15" x="36.61" y="63.52" width="77.39" height="44.85"/><rect class="cls-14" x="38.94" y="65.85" width="72.73" height="40.21"/><rect class="cls-15" x="41.35" y="68.26" width="67.9" height="35.38"/><g class="cls-3"><path class="cls-14" d="M61.71,86a13.59,13.59,0,1,1,13.6,13.59A13.6,13.6,0,0,1,61.71,86"/><path class="cls-15" d="M76.56,86.94H74a3.93,3.93,0,1,1,0-7.85H79.5v2H74A1.94,1.94,0,0,0,72.1,83a1.89,1.89,0,0,0,.56,1.37A1.93,1.93,0,0,0,74,85h2.52v2Z"/><path class="cls-15" d="M76.56,92.81H71.11v-2h5.45a2,2,0,0,0,1.38-.57,1.94,1.94,0,0,0,.56-1.37A1.91,1.91,0,0,0,78,87.52a1.94,1.94,0,0,0-1.39-.58H74V85h2.52a3.91,3.91,0,0,1,2.78,1.16,3.93,3.93,0,0,1-2.78,6.7"/><rect class="cls-15" x="74.31" y="78.4" width="1.98" height="15.1"/><path class="cls-14" d="M111.67,76.87v-11h-11a13.55,13.55,0,0,0,11,11"/><path class="cls-14" d="M38.94,95v11H50a13.55,13.55,0,0,0-11-11"/><path class="cls-14" d="M38.94,76.87a13.55,13.55,0,0,0,11-11h-11Z"/><path class="cls-14" d="M100.64,106.06h11V95a13.56,13.56,0,0,0-11,11"/><path class="cls-16" d="M72.14,19.63a2.82,2.82,0,0,1,2.81,2.81V55.06a2.8,2.8,0,0,1-2.81,2.81H20.38a2.8,2.8,0,0,1-2.81-2.81V22.44a2.8,2.8,0,0,1,2.81-2.81Z"/><path class="cls-17" d="M77.14,19.63a2.82,2.82,0,0,1,2.81,2.81V55.06a2.8,2.8,0,0,1-2.81,2.81H25.38a2.8,2.8,0,0,1-2.81-2.81V22.44a2.8,2.8,0,0,1,2.81-2.81Z"/><path class="cls-18" d="M58.73,38.75A8.21,8.21,0,0,1,62.27,32a7.21,7.21,0,1,0-2.53,14,7.1,7.1,0,0,0,2.53-.47,8.2,8.2,0,0,1-3.53-6.74"/><path class="cls-19" d="M66.95,46a7.21,7.21,0,1,1,0-14.42V32a6.77,6.77,0,1,0,0,13.55Z"/><path class="cls-19" d="M66.95,46c-1,0-2-.77-2.67-2.17a11.52,11.52,0,0,1-1-5,11.51,11.51,0,0,1,1-5c.7-1.4,1.65-2.17,2.67-2.17V32c-.85,0-1.66.68-2.28,1.92a11.15,11.15,0,0,0-1,4.85,11.12,11.12,0,0,0,1,4.85c.62,1.25,1.43,1.93,2.28,1.93Z"/><rect class="cls-19" x="66.73" y="31.76" width="0.44" height="13.98"/><path class="cls-19" d="M66.95,46v-.44c.84,0,1.66-.68,2.28-1.93a11.11,11.11,0,0,0,1-4.85,11.14,11.14,0,0,0-1-4.85C68.6,32.66,67.79,32,66.95,32v-.44c1,0,2,.77,2.67,2.17a11.55,11.55,0,0,1,1,5,11.56,11.56,0,0,1-1,5C68.92,45.19,68,46,66.95,46"/><path class="cls-19" d="M66.95,46v-.44a6.77,6.77,0,0,0,0-13.55v-.44a7.21,7.21,0,1,1,0,14.42"/><rect class="cls-19" x="60.89" y="35.04" width="12.11" height="0.44"/><rect class="cls-19" x="59.96" y="38.53" width="13.98" height="0.44"/><rect class="cls-19" x="60.89" y="42.03" width="12.11" height="0.44"/><path class="cls-20" d="M37.89,41.77a.77.77,0,0,1-.76.76h-8a.77.77,0,0,1-.77-.76v-6a.77.77,0,0,1,.77-.76h8a.77.77,0,0,1,.76.76Z"/><rect class="cls-21" x="28.35" y="36.84" width="9.53" height="3.82"/><rect class="cls-19" x="28.35" y="50.51" width="9.53" height="1.14"/><rect class="cls-19" x="40.44" y="50.51" width="9.53" height="1.14"/><rect class="cls-19" x="52.53" y="50.51" width="9.53" height="1.14"/><rect class="cls-19" x="64.62" y="50.51" width="9.54" height="1.14"/><rect class="cls-22" x="28.35" y="24.2" width="21.62" height="2.68"/><rect class="cls-18" x="22.57" y="28.11" width="57.37" height="0.54"/><rect class="cls-23" x="17.21" y="103.65" width="22.6" height="4.72"/><rect class="cls-20" x="17.21" y="103.17" width="22.6" height="4.72"/><rect class="cls-21" x="14" y="98.46" width="22.6" height="4.72"/><rect class="cls-23" x="14" y="97.99" width="22.6" height="4.72"/><rect class="cls-23" x="19.03" y="93.26" width="22.6" height="4.73"/><rect class="cls-20" x="19.03" y="92.78" width="22.6" height="4.73"/><rect class="cls-23" x="19.74" y="88.06" width="22.59" height="4.72"/><rect class="cls-21" x="19.74" y="87.59" width="22.59" height="4.73"/><rect class="cls-21" x="17.71" y="82.87" width="22.6" height="4.72"/><rect class="cls-23" x="17.71" y="82.4" width="22.6" height="4.72"/><rect class="cls-21" x="18.49" y="77.67" width="22.6" height="4.72"/><rect class="cls-23" x="18.49" y="77.2" width="22.6" height="4.73"/><rect class="cls-23" x="17.21" y="72.49" width="22.6" height="4.72"/><rect class="cls-20" x="17.21" y="72.01" width="22.6" height="4.72"/><path class="cls-21" d="M60.75,97.07a11.3,11.3,0,1,1-11.3-11.3,11.3,11.3,0,0,1,11.3,11.3"/><path class="cls-20" d="M58.49,97.07a9,9,0,1,1-9-9,9,9,0,0,1,9,9"/><path class="cls-21" d="M50.4,97.82H48.5a3,3,0,0,1-3-3,3,3,0,0,1,3-3h4.11v1.5H48.5a1.46,1.46,0,0,0-1,2.49,1.47,1.47,0,0,0,1,.44h1.9v1.49Z"/><path class="cls-21" d="M50.4,102.24H46.29v-1.49H50.4a1.46,1.46,0,0,0,1.47-1.46,1.42,1.42,0,0,0-.43-1,1.46,1.46,0,0,0-1-.44H48.5V96.33h1.9a2.94,2.94,0,0,1,2.09.87,2.9,2.9,0,0,1,.87,2.09,3,3,0,0,1-3,3"/><rect class="cls-21" x="48.71" y="91.38" width="1.48" height="11.39"/></g></g></g></g></g></svg>