<svg xmlns="http://www.w3.org/2000/svg" xmlns:xlink="http://www.w3.org/1999/xlink" viewBox="0 0 128 134.68" width="128"><defs><style>.cls-1{fill:none;}.cls-2{isolation:isolate;}.cls-3{clip-path:url(#clip-path);}.cls-4{opacity:0.6;mix-blend-mode:multiply;}.cls-5{clip-path:url(#clip-path-3);}.cls-6{fill:#1876c4;}.cls-7{opacity:0.15;}.cls-8{clip-path:url(#clip-path-4);}.cls-9{opacity:0.2;}.cls-10{clip-path:url(#clip-path-5);}.cls-11{opacity:0.1;}.cls-12{clip-path:url(#clip-path-6);}.cls-13{fill:#a4a9ad;}.cls-14{fill:#c3c6c8;}.cls-15{fill:#4c636f;}.cls-16{fill:#90caf9;}.cls-17{fill:#b3b8ba;}.cls-18{fill:#203945;}.cls-19{fill:#fff;}.cls-20{fill:#00897b;}.cls-21{fill:#bc2879;}.cls-22{fill:#049681;}.cls-23{fill:#8497a0;}.cls-24{fill:#faa629;}.cls-25{fill:#242d3c;}.cls-26{fill:#e6e5e5;}.cls-27{opacity:0.3;mix-blend-mode:overlay;}.cls-28{clip-path:url(#clip-path-7);}.cls-29{clip-path:url(#clip-path-8);}.cls-30{fill:url(#Безымянный_градиент);}</style><clipPath id="clip-path" transform="translate(0 0)"><rect class="cls-1" width="128" height="134.68"/></clipPath><clipPath id="clip-path-3" transform="translate(0 0)"><rect class="cls-1" y="2.49" width="128" height="128"/></clipPath><clipPath id="clip-path-4" transform="translate(0 0)"><rect class="cls-1" x="27.37" width="20.83" height="20.83"/></clipPath><clipPath id="clip-path-5" transform="translate(0 0)"><rect class="cls-1" x="5.61" y="96.13" width="25.99" height="25.99"/></clipPath><clipPath id="clip-path-6" transform="translate(0 0)"><rect class="cls-1" x="83.45" y="105.31" width="29.37" height="29.37"/></clipPath><clipPath id="clip-path-7" transform="translate(0 0)"><rect class="cls-1" x="12.82" y="8.1" width="100" height="103.21"/></clipPath><clipPath id="clip-path-8" transform="translate(0 0)"><path class="cls-1" d="M108.22,23H94.06V8.1H34.72V23H17.42c-2.53,0-4.6,3.3-4.6,5.83V87.08a4.61,4.61,0,0,0,4.6,4.6H47.29L41.85,108h0a2.51,2.51,0,0,0-.14.82,2.47,2.47,0,0,0,2.47,2.47H74.64a1.52,1.52,0,0,0,0-3H67.13l5.52-16.59h35.58a4.61,4.61,0,0,0,4.6-4.6V27.59a4.61,4.61,0,0,0-4.6-4.6M45,108.27l5.52-16.59h0Z"/></clipPath><linearGradient id="Безымянный_градиент" y1="134.68" x2="1" y2="134.68" gradientTransform="matrix(100, 0, 0, -100, 12.79, 13527.81)" gradientUnits="userSpaceOnUse"><stop offset="0" stop-color="#fff"/><stop offset="0.04" stop-color="#eceeef"/><stop offset="0.18" stop-color="#b7bfc3"/><stop offset="0.32" stop-color="#88969c"/><stop offset="0.46" stop-color="#63747d"/><stop offset="0.6" stop-color="#465a64"/><stop offset="0.74" stop-color="#314853"/><stop offset="0.87" stop-color="#243d48"/><stop offset="1" stop-color="#203945"/></linearGradient></defs><title>Ресурс 1</title><g class="cls-2"><g id="Слой_2" data-name="Слой 2"><g id="Слой_1-2" data-name="Слой 1"><g class="cls-3"><g class="cls-3"><g class="cls-4"><g class="cls-5"><path class="cls-6" d="M61.45,3.55,1.06,63.94a3.61,3.61,0,0,0,0,5.11l60.39,60.39a3.61,3.61,0,0,0,5.1,0L126.94,69a3.61,3.61,0,0,0,0-5.11L66.55,3.55a3.61,3.61,0,0,0-5.11,0" transform="translate(0 0)"/></g></g><g class="cls-7"><g class="cls-8"><path class="cls-6" d="M37.37.17,27.55,10a.59.59,0,0,0,0,.83l9.83,9.83a.59.59,0,0,0,.83,0L48,10.83A.59.59,0,0,0,48,10L38.2.17a.59.59,0,0,0-.83,0" transform="translate(0 0)"/></g></g><g class="cls-9"><g class="cls-10"><path class="cls-6" d="M18.08,96.35,5.82,108.61a.73.73,0,0,0,0,1l12.26,12.26a.73.73,0,0,0,1,0l12.26-12.26a.73.73,0,0,0,0-1L19.12,96.35a.73.73,0,0,0-1,0" transform="translate(0 0)"/></g></g><g class="cls-11"><g class="cls-12"><path class="cls-6" d="M97.55,105.56,83.69,119.41a.83.83,0,0,0,0,1.17l13.86,13.86a.83.83,0,0,0,1.17,0l13.85-13.86a.83.83,0,0,0,0-1.17L98.72,105.56a.83.83,0,0,0-1.17,0" transform="translate(0 0)"/></g></g><path class="cls-13" d="M17.42,91.68a4.61,4.61,0,0,1-4.6-4.6V28.81c0-2.53,2.07-5.83,4.6-5.83h87.1a4.61,4.61,0,0,1,4.6,4.6v59.5a4.61,4.61,0,0,1-4.6,4.6Z" transform="translate(0 0)"/><rect class="cls-14" x="16.52" y="22.99" width="96.3" height="68.7" rx="4.6" ry="4.6"/><path class="cls-15" d="M21.12,23h87.1a4.61,4.61,0,0,1,4.6,4.6V83.33H16.52V27.59a4.61,4.61,0,0,1,4.6-4.6" transform="translate(0 0)"/><rect class="cls-16" x="22.66" y="29.12" width="84.03" height="48.07"/><polygon class="cls-17" points="67.13 108.27 45.04 108.27 50.56 91.68 72.65 91.68 67.13 108.27"/><path class="cls-14" d="M74.64,108.27a1.52,1.52,0,0,1,0,3H52.71v-3Z" transform="translate(0 0)"/><path class="cls-13" d="M44.18,111.31A2.48,2.48,0,0,1,41.85,108h0l5.44-16.34h3.27L45,108.27h7.67a1.52,1.52,0,1,1,0,3H44.18Z" transform="translate(0 0)"/><path class="cls-18" d="M67,87.59a2.3,2.3,0,1,1-2.3-2.3,2.3,2.3,0,0,1,2.3,2.3" transform="translate(0 0)"/><rect class="cls-19" x="34.72" y="13.74" width="59.34" height="63.45"/><rect class="cls-20" x="34.72" y="8.1" width="59.34" height="5.64"/><path class="cls-21" d="M39,10.92a.92.92,0,1,1-.92-.92.92.92,0,0,1,.92.92" transform="translate(0 0)"/><path class="cls-19" d="M42,10.92a.92.92,0,1,1-.92-.92.92.92,0,0,1,.92.92" transform="translate(0 0)"/><path class="cls-22" d="M45.29,10.92a.92.92,0,1,1-.92-.92.92.92,0,0,1,.92.92" transform="translate(0 0)"/><rect class="cls-23" x="64.09" y="27.52" width="26.93" height="1.2"/><rect class="cls-23" x="64.09" y="29.92" width="26.93" height="1.2"/><rect class="cls-23" x="64.09" y="32.31" width="13.47" height="1.2"/><path class="cls-23" d="M54.81,27.41A6.25,6.25,0,0,1,53,31.85L56.15,35a10.73,10.73,0,0,0,3.16-7.62Z" transform="translate(0 0)"/><path class="cls-18" d="M53,31.85A6.28,6.28,0,1,1,46.13,21.6l-1.72-4.15A10.77,10.77,0,1,0,56.15,35Z" transform="translate(0 0)"/><path class="cls-24" d="M48.53,21.12V16.63a10.64,10.64,0,0,0-4.12.82l1.72,4.15a6.24,6.24,0,0,1,2.4-.48" transform="translate(0 0)"/><path class="cls-20" d="M48.53,21.12a6.28,6.28,0,0,1,6.28,6.28H59.3A10.77,10.77,0,0,0,48.53,16.63Z" transform="translate(0 0)"/><rect class="cls-25" x="64.09" y="21.3" width="1.81" height="1.8"/><rect class="cls-26" x="67.09" y="21.91" width="2.47" height="1.19"/><rect class="cls-24" x="71.24" y="21.3" width="1.8" height="1.8"/><rect class="cls-26" x="74.24" y="21.91" width="2.47" height="1.19"/><rect class="cls-20" x="78.4" y="21.3" width="1.8" height="1.8"/><rect class="cls-26" x="81.39" y="21.91" width="2.47" height="1.19"/><rect class="cls-23" x="85.55" y="21.3" width="1.81" height="1.8"/><rect class="cls-26" x="88.55" y="21.91" width="2.47" height="1.19"/><rect class="cls-18" x="37.64" y="42.47" width="53.38" height="1.65"/><rect class="cls-23" x="37.64" y="45.76" width="26.69" height="1.64"/><rect class="cls-22" x="37.64" y="49.48" width="25.5" height="16.49"/><rect class="cls-22" x="65.51" y="49.48" width="25.5" height="16.49"/><rect class="cls-23" x="37.64" y="72.05" width="53.38" height="1.65"/><rect class="cls-23" x="37.64" y="68.75" width="53.38" height="1.64"/><g class="cls-27"><g class="cls-28"><g class="cls-29"><rect class="cls-30" x="12.82" y="8.1" width="100" height="103.21"/></g></g></g></g></g></g></g></g></svg>