<svg xmlns="http://www.w3.org/2000/svg" xmlns:xlink="http://www.w3.org/1999/xlink" viewBox="0 0 128 132.19" width="128"><defs><style>.cls-1{fill:none;}.cls-2{isolation:isolate;}.cls-3{clip-path:url(#clip-path);}.cls-4{opacity:0.6;mix-blend-mode:multiply;}.cls-5{clip-path:url(#clip-path-3);}.cls-6{fill:#faa629;}.cls-7{opacity:0.15;}.cls-8{clip-path:url(#clip-path-4);}.cls-9{fill:#1876c4;}.cls-10{opacity:0.2;}.cls-11{clip-path:url(#clip-path-5);}.cls-12{opacity:0.1;}.cls-13{clip-path:url(#clip-path-6);}.cls-14{fill:#a4a9ad;}.cls-15{fill:#c3c6c8;}.cls-16{fill:#4c636f;}.cls-17{fill:#90caf9;}.cls-18{fill:#b3b8ba;}.cls-19{fill:#203945;}.cls-20{fill:#fff;}.cls-21{fill:#881a51;}.cls-22{fill:#bc2879;}.cls-23{fill:#049681;}.cls-24{fill:#b0bec5;}.cls-25{fill:#8497a0;}.cls-26{fill:#fdca5c;}.cls-27{fill:#ffdb79;}.cls-28{fill:#539b8d;}.cls-29{fill:#353f49;}.cls-30{opacity:0.3;mix-blend-mode:overlay;}.cls-31{clip-path:url(#clip-path-7);}.cls-32{clip-path:url(#clip-path-8);}.cls-33{fill:url(#Безымянный_градиент);}</style><clipPath id="clip-path"><rect class="cls-1" width="128" height="132.19"/></clipPath><clipPath id="clip-path-3"><rect class="cls-1" width="128" height="128"/></clipPath><clipPath id="clip-path-4"><rect class="cls-1" x="107.17" y="20.87" width="20.83" height="20.83"/></clipPath><clipPath id="clip-path-5"><rect class="cls-1" x="5.61" y="93.65" width="25.99" height="25.99"/></clipPath><clipPath id="clip-path-6"><rect class="cls-1" x="83.45" y="102.83" width="29.37" height="29.37"/></clipPath><clipPath id="clip-path-7"><rect class="cls-1" x="16.14" y="11.74" width="104.25" height="103.21"/></clipPath><clipPath id="clip-path-8"><path class="cls-1" d="M120,56.68a1.45,1.45,0,0,0-1-.43h-2.79v-25a4.61,4.61,0,0,0-4.6-4.6H97.38V11.74H38V23.37a5.79,5.79,0,0,0-4.87,3.26H20.74c-2.53,0-4.6,3.3-4.6,5.83V90.72a4.62,4.62,0,0,0,4.6,4.6H50.61l-5.44,16.34h0a2.47,2.47,0,0,0,2.33,3.29H78a1.52,1.52,0,1,0,0-3H70.45L76,95.32h35.57a4.61,4.61,0,0,0,4.6-4.6V76.07h2.79a1.46,1.46,0,0,0,1.46-1.46V57.71a1.44,1.44,0,0,0-.43-1M48.37,111.9l5.52-16.59h0Z"/></clipPath><linearGradient id="Безымянный_градиент" y1="132.19" x2="1" y2="132.19" gradientTransform="matrix(104.25, 0, 0, -104.25, 16.11, 13844.17)" gradientUnits="userSpaceOnUse"><stop offset="0" stop-color="#fff"/><stop offset="0.04" stop-color="#eceeef"/><stop offset="0.18" stop-color="#b7bfc3"/><stop offset="0.32" stop-color="#88969c"/><stop offset="0.46" stop-color="#63747d"/><stop offset="0.6" stop-color="#465a64"/><stop offset="0.74" stop-color="#314853"/><stop offset="0.87" stop-color="#243d48"/><stop offset="1" stop-color="#203945"/></linearGradient></defs><title>Ресурс 2</title><g class="cls-2"><g id="Слой_2" data-name="Слой 2"><g id="Слой_1-2" data-name="Слой 1"><g class="cls-3"><g class="cls-3"><g class="cls-4"><g class="cls-5"><path class="cls-6" d="M61.45,1.06,1.06,61.45a3.61,3.61,0,0,0,0,5.11l60.39,60.39a3.61,3.61,0,0,0,5.1,0l60.39-60.39a3.61,3.61,0,0,0,0-5.11L66.55,1.06a3.61,3.61,0,0,0-5.1,0"/></g></g><g class="cls-7"><g class="cls-8"><path class="cls-9" d="M117.17,21l-9.83,9.83a.59.59,0,0,0,0,.83l9.83,9.83a.59.59,0,0,0,.83,0l9.83-9.83a.59.59,0,0,0,0-.83L118,21a.59.59,0,0,0-.83,0"/></g></g><g class="cls-10"><g class="cls-11"><path class="cls-9" d="M18.08,93.86,5.82,106.12a.73.73,0,0,0,0,1l12.26,12.26a.73.73,0,0,0,1,0l12.26-12.26a.73.73,0,0,0,0-1L19.12,93.86a.73.73,0,0,0-1,0"/></g></g><g class="cls-12"><g class="cls-13"><path class="cls-9" d="M97.55,103.07,83.69,116.92a.83.83,0,0,0,0,1.17L97.55,132a.83.83,0,0,0,1.17,0l13.86-13.86a.83.83,0,0,0,0-1.17L98.72,103.07a.83.83,0,0,0-1.17,0"/></g></g><path class="cls-14" d="M20.74,95.32a4.62,4.62,0,0,1-4.6-4.6V32.45c0-2.53,2.07-5.83,4.6-5.83h87.1a4.61,4.61,0,0,1,4.6,4.6v59.5a4.61,4.61,0,0,1-4.6,4.6Z"/><rect class="cls-15" x="19.84" y="26.62" width="96.3" height="68.7" rx="4.6" ry="4.6"/><path class="cls-16" d="M24.44,26.62h87.1a4.61,4.61,0,0,1,4.6,4.6V87H19.84V31.22a4.61,4.61,0,0,1,4.6-4.6"/><rect class="cls-17" x="25.98" y="32.75" width="84.03" height="48.07"/><polygon class="cls-18" points="70.45 111.9 48.37 111.9 53.89 95.32 75.97 95.32 70.45 111.9"/><path class="cls-15" d="M78,111.9a1.52,1.52,0,1,1,0,3H56v-3Z"/><path class="cls-14" d="M47.51,114.95a2.47,2.47,0,0,1-2.33-3.29h0l5.44-16.34h3.27L48.36,111.9H56a1.52,1.52,0,1,1,0,3H47.51Z"/><path class="cls-19" d="M70.29,91.23a2.3,2.3,0,1,1-2.3-2.3,2.3,2.3,0,0,1,2.3,2.3"/><rect class="cls-20" x="38.04" y="17.38" width="59.34" height="63.45"/><rect class="cls-21" x="38.04" y="11.74" width="59.34" height="5.64"/><path class="cls-22" d="M42.34,14.56a.92.92,0,1,1-.92-.92.92.92,0,0,1,.92.92"/><path class="cls-20" d="M45.3,14.56a.92.92,0,1,1-.92-.92.92.92,0,0,1,.92.92"/><path class="cls-23" d="M48.61,14.56a.92.92,0,1,1-.92-.92.92.92,0,0,1,.92.92"/><rect class="cls-22" x="38.04" y="26.26" width="59.34" height="24.96"/><rect class="cls-16" x="38.04" y="19.76" width="12.14" height="2.01"/><rect class="cls-16" x="53.77" y="19.76" width="12.14" height="2.01"/><rect class="cls-16" x="69.51" y="19.76" width="12.14" height="2.01"/><rect class="cls-16" x="85.24" y="19.76" width="12.14" height="2.01"/><rect class="cls-24" x="38.04" y="55.69" width="15.13" height="15.13"/><rect class="cls-25" x="38.04" y="73.03" width="15.13" height="1.08"/><rect class="cls-25" x="38.04" y="75.19" width="15.13" height="1.08"/><rect class="cls-25" x="38.04" y="77.36" width="7.57" height="1.08"/><rect class="cls-24" x="60.15" y="55.69" width="15.14" height="15.13"/><rect class="cls-25" x="60.15" y="73.03" width="15.14" height="1.08"/><rect class="cls-25" x="60.15" y="75.19" width="15.14" height="1.08"/><rect class="cls-25" x="60.15" y="77.36" width="7.57" height="1.08"/><rect class="cls-24" x="82.25" y="55.69" width="15.14" height="15.13"/><rect class="cls-25" x="82.25" y="73.03" width="15.13" height="1.08"/><rect class="cls-25" x="82.25" y="75.19" width="15.13" height="1.08"/><rect class="cls-25" x="82.25" y="77.36" width="7.57" height="1.08"/><path class="cls-26" d="M30.31,41.64a4.43,4.43,0,1,1-4.43-4.43,4.43,4.43,0,0,1,4.43,4.43"/><path class="cls-27" d="M29.42,41.64a3.54,3.54,0,1,1-3.55-3.54,3.54,3.54,0,0,1,3.55,3.54"/><path class="cls-26" d="M44.18,29.15a5.8,5.8,0,1,1-5.8-5.8,5.79,5.79,0,0,1,5.8,5.8"/><path class="cls-27" d="M43,29.15a4.63,4.63,0,1,1-4.63-4.64A4.63,4.63,0,0,1,43,29.15"/><path class="cls-26" d="M35.25,50.87A3.14,3.14,0,1,1,32.1,54a3.14,3.14,0,0,1,3.14-3.14"/><path class="cls-27" d="M37.76,54a2.51,2.51,0,1,1-2.51-2.51A2.51,2.51,0,0,1,37.76,54"/><path class="cls-28" d="M118.93,56.25a1.46,1.46,0,0,1,1.46,1.46V74.62a1.46,1.46,0,0,1-1.46,1.45H92.11a1.45,1.45,0,0,1-1.46-1.45V57.71a1.45,1.45,0,0,1,.43-1,1.47,1.47,0,0,1,1-.43Z"/><rect class="cls-29" x="94.36" y="71.68" width="4.65" height="0.63"/><rect class="cls-29" x="100.25" y="71.68" width="4.65" height="0.63"/><rect class="cls-29" x="106.15" y="71.68" width="4.65" height="0.63"/><rect class="cls-29" x="112.04" y="71.68" width="4.65" height="0.63"/><rect class="cls-20" x="94.36" y="66.16" width="22.33" height="2.55"/><rect class="cls-29" x="105.35" y="67.19" width="1.28" height="0.48"/><rect class="cls-29" x="107.34" y="67.19" width="3.83" height="0.48"/><rect class="cls-29" x="111.89" y="67.19" width="3.83" height="0.48"/><rect class="cls-29" x="90.65" y="59.86" width="29.74" height="4.54"/><g class="cls-30"><g class="cls-31"><g class="cls-32"><rect class="cls-33" x="16.14" y="11.74" width="104.25" height="103.21"/></g></g></g></g></g></g></g></g></svg>