<svg xmlns="http://www.w3.org/2000/svg" xmlns:xlink="http://www.w3.org/1999/xlink" viewBox="0 0 468.58 281.66"><defs><style>.cls-1{fill:none;}.cls-2{fill:#0455a4;}.cls-3{clip-path:url(#clip-path);}.cls-4{fill:#203945;}.cls-5{fill:#00897b;}.cls-6{fill:#faa629;}.cls-7{fill:#4c636f;}.cls-8{fill:#881a51;}</style><clipPath id="clip-path"><rect class="cls-1" width="468.58" height="281.66"/></clipPath></defs><title>Ресурс 1</title><g id="Слой_2" data-name="Слой 2"><g id="Слой_1-2" data-name="Слой 1"><polygon class="cls-2" points="211.83 65.34 225.01 65.34 225.01 101.34 248.03 101.34 248.03 112.88 211.83 112.88 211.83 65.34"/><polygon class="cls-2" points="260.47 65.34 298.7 65.34 298.7 76.55 273.5 76.55 273.5 83.75 296.32 83.75 296.32 94.14 273.5 94.14 273.5 101.68 299.04 101.68 299.04 112.88 260.47 112.88 260.47 65.34"/><g class="cls-3"><path class="cls-2" d="M310.93,89.11c0-13.85,10.87-24.72,25.6-24.72,8.35,0,14.26,2.58,19.29,6.93l-7.74,9.3c-3.39-2.85-6.79-4.48-11.48-4.48-6.86,0-12.16,5.77-12.16,13.17,0,7.67,5.37,13.17,12.9,13.17a13.45,13.45,0,0,0,7.61-2V94.75h-9.37V85.11h21.87V106.5a32.14,32.14,0,0,1-20.64,7.33c-14.81,0-25.87-10.19-25.87-24.72"/><path class="cls-2" d="M388,65h12.7L421,112.88H406.84l-3.46-8.49H385l-3.39,8.49H367.79Zm11.54,29.13-5.3-13.51-5.36,13.51Z"/><polygon class="cls-2" points="432.39 65.34 445.56 65.34 445.56 101.34 468.58 101.34 468.58 112.88 432.39 112.88 432.39 65.34"/><path class="cls-4" d="M212.37,132.81h39c9.56,0,16.3,2.39,20.76,6.85a16.84,16.84,0,0,1,4.89,12.5c0,8.8-5,14-11.73,17,9.24,3,15.1,8.26,15.1,18.8,0,13-10.65,21-28.8,21H212.37Zm33.79,30.31c6.41,0,10-2.17,10-6.85,0-4.13-3.26-6.52-9.56-6.52H232.9v13.36Zm3,28.8c6.41,0,10.11-2.5,10.11-7.17,0-4.13-3.26-6.85-10.32-6.85H232.9v14Z"/><polygon class="cls-4" points="417.01 170.19 392.02 132.81 416.25 132.81 429.73 154.21 443.31 132.81 467 132.81 442 169.97 468.08 208.87 443.85 208.87 429.29 185.94 414.62 208.87 390.93 208.87 417.01 170.19"/><path class="cls-4" d="M338.11,131.29C314.64,131.29,297,149,297,170.84c0,22.06,17.39,39.55,40.86,39.55S379,192.68,379,170.84c0-22.06-17.39-39.55-40.86-39.55m20,42a1.27,1.27,0,0,1-.61,1.08l-28.73,17.39a1.32,1.32,0,0,1-1.29,0l-8.9-5.12a1.27,1.27,0,0,1-.63-1.1V163.26a1.27,1.27,0,0,1,1.9-1.1l7.64,4.39a1.32,1.32,0,0,0,1.29,0l27.42-16.59a1.27,1.27,0,0,1,1.92,1.08Z"/><path class="cls-5" d="M10.32,161.05l15.86,9.12V123.23a10,10,0,0,1,5-8.64l79-46.23V53.49A4.08,4.08,0,0,0,104,50L8.44,105.88a4.09,4.09,0,0,0-2,3.53v50.31a10.91,10.91,0,0,1,3.9,1.34"/><path class="cls-2" d="M113.89.57,18.32,56.48a4.08,4.08,0,0,0-2,3.53V94.41L40,80.54V67.91a10,10,0,0,1,5-8.64L120,15.35V4.09A4.08,4.08,0,0,0,113.89.57"/><path class="cls-6" d="M106.06,43.47a10,10,0,0,1,10,10v11.4l10.62-6.21a10,10,0,0,1,15.07,8.64v48.56l3.55-2.15a10.87,10.87,0,0,1,4.36-1.49V12a4.1,4.1,0,0,0-.14-1c0-.1-.06-.19-.09-.28a3.89,3.89,0,0,0-.28-.65c0-.08-.09-.17-.14-.25a4.1,4.1,0,0,0-.54-.67l-.05-.06a4.15,4.15,0,0,0-.74-.56l-.24-.12a4.25,4.25,0,0,0-.63-.26L146.55,8a4,4,0,0,0-.8-.11h-.13a4.14,4.14,0,0,0-.69.08c-.12,0-.24,0-.36,0a4.17,4.17,0,0,0-1,.43L48,64.38a4.09,4.09,0,0,0-2,3.53v9.16L101,44.85a10,10,0,0,1,5.05-1.38"/><path class="cls-4" d="M37,183.23l-29.64-17A4.92,4.92,0,0,0,0,170.45v86.46a4.91,4.91,0,0,0,2.47,4.26L37,281a4.88,4.88,0,0,0,2.18.61V183.85a4.88,4.88,0,0,1-2.18-.62"/><path class="cls-7" d="M42,281l111.48-67.45a4.92,4.92,0,0,0,2.37-4.21V123a4.92,4.92,0,0,0-7.46-4.21L42,183.17a4.88,4.88,0,0,1-2.81.67v97.81A4.88,4.88,0,0,0,42,281"/><path class="cls-8" d="M39.44,177.79l96.4-58.33V67.32a4.08,4.08,0,0,0-6.15-3.52L34.13,119.71a4.09,4.09,0,0,0-2,3.52v50.35Z"/></g></g></g></svg>