<svg xmlns="http://www.w3.org/2000/svg" xmlns:xlink="http://www.w3.org/1999/xlink" viewBox="0 0 157.01 144.55"><defs><style>.cls-1{fill:none;}.cls-2{isolation:isolate;}.cls-3{clip-path:url(#clip-path);}.cls-4{opacity:0.6;mix-blend-mode:multiply;}.cls-5{clip-path:url(#clip-path-3);}.cls-6{fill:#faa629;}.cls-7{clip-path:url(#clip-path-4);}.cls-8{fill:#0455a4;}.cls-9{clip-path:url(#clip-path-5);}.cls-10{fill:#881a51;}.cls-11{clip-path:url(#clip-path-6);}.cls-12{fill:#00897b;}.cls-13{clip-path:url(#clip-path-7);}.cls-14{clip-path:url(#clip-path-8);}.cls-15{clip-path:url(#clip-path-9);}.cls-16{clip-path:url(#clip-path-10);}.cls-17{clip-path:url(#clip-path-11);}.cls-18{clip-path:url(#clip-path-12);}.cls-19{clip-path:url(#clip-path-13);}.cls-20{clip-path:url(#clip-path-14);}.cls-21{clip-path:url(#clip-path-15);}.cls-22{clip-path:url(#clip-path-16);}.cls-23{clip-path:url(#clip-path-17);}.cls-24{clip-path:url(#clip-path-18);}.cls-25{clip-path:url(#clip-path-19);}.cls-26{clip-path:url(#clip-path-20);}.cls-27{clip-path:url(#clip-path-21);}</style><clipPath id="clip-path" transform="translate(0 0)"><rect class="cls-1" width="157.01" height="144.55"/></clipPath><clipPath id="clip-path-3" transform="translate(0 0)"><rect class="cls-1" x="20.01" y="46.96" width="37.1" height="37.1"/></clipPath><clipPath id="clip-path-4" transform="translate(0 0)"><rect class="cls-1" x="39.73" y="27.58" width="37.1" height="37.1"/></clipPath><clipPath id="clip-path-5" transform="translate(0 0)"><rect class="cls-1" x="21.34" y="28.73" width="37.1" height="37.1"/></clipPath><clipPath id="clip-path-6" transform="translate(0 0)"><rect class="cls-1" x="59.37" y="33.72" width="27.33" height="27.33"/></clipPath><clipPath id="clip-path-7" transform="translate(0 0)"><rect class="cls-1" x="24.26" y="17.75" width="27.55" height="27.55"/></clipPath><clipPath id="clip-path-8" transform="translate(0 0)"><rect class="cls-1" x="41.13" y="9.43" width="18.16" height="18.16"/></clipPath><clipPath id="clip-path-9" transform="translate(0 0)"><rect class="cls-1" x="78.82" y="48.72" width="16.87" height="16.87"/></clipPath><clipPath id="clip-path-10" transform="translate(0 0)"><rect class="cls-1" x="81.4" y="51.3" width="11.71" height="11.71"/></clipPath><clipPath id="clip-path-11" transform="translate(0 0)"><rect class="cls-1" x="89.93" y="40.79" width="10.67" height="10.66"/></clipPath><clipPath id="clip-path-12" transform="translate(0 0)"><rect class="cls-1" x="12.75" y="4.32" width="23.03" height="23.03"/></clipPath><clipPath id="clip-path-13" transform="translate(0 0)"><rect class="cls-1" x="15.02" y="77.89" width="66.67" height="66.67"/></clipPath><clipPath id="clip-path-14" transform="translate(0 0)"><rect class="cls-1" x="50.46" y="43.05" width="66.67" height="66.66"/></clipPath><clipPath id="clip-path-15" transform="translate(0 0)"><rect class="cls-1" x="17.41" y="45.13" width="66.66" height="66.67"/></clipPath><clipPath id="clip-path-16" transform="translate(0 0)"><rect class="cls-1" x="85.75" y="54.09" width="49.11" height="49.11"/></clipPath><clipPath id="clip-path-17" transform="translate(0 0)"><rect class="cls-1" x="49.76" y="7.24" width="32.63" height="32.63"/></clipPath><clipPath id="clip-path-18" transform="translate(0 0)"><rect class="cls-1" x="37.73" width="23.25" height="23.25"/></clipPath><clipPath id="clip-path-19" transform="translate(0 0)"><rect class="cls-1" x="120.71" y="81.05" width="30.32" height="30.32"/></clipPath><clipPath id="clip-path-20" transform="translate(0 0)"><rect class="cls-1" x="137.85" y="69.36" width="19.17" height="19.16"/></clipPath><clipPath id="clip-path-21" transform="translate(0 0)"><rect class="cls-1" y="5.41" width="41.39" height="41.39"/></clipPath></defs><title>Ресурс 1</title><g class="cls-2"><g id="Слой_2" data-name="Слой 2"><g id="Слой_1-2" data-name="Слой 1"><g class="cls-3"><g class="cls-3"><g class="cls-4"><g class="cls-5"><path class="cls-6" d="M20.32,66.25l17.5,17.5a1,1,0,0,0,1.48,0l17.5-17.5a1,1,0,0,0,0-1.48L39.3,47.27a1,1,0,0,0-1.48,0l-17.5,17.5a1,1,0,0,0,0,1.48" transform="translate(0 0)"/></g></g><g class="cls-4"><g class="cls-7"><path class="cls-8" d="M40,46.86l17.5,17.5a1,1,0,0,0,1.48,0l17.5-17.5a1,1,0,0,0,0-1.48L59,27.88a1,1,0,0,0-1.48,0L40,45.38a1,1,0,0,0,0,1.48" transform="translate(0 0)"/></g></g><g class="cls-4"><g class="cls-9"><path class="cls-10" d="M21.65,48l17.5,17.5a1,1,0,0,0,1.48,0L58.13,48a1,1,0,0,0,0-1.48L40.63,29a1,1,0,0,0-1.48,0l-17.5,17.5a1,1,0,0,0,0,1.48" transform="translate(0 0)"/></g></g><g class="cls-4"><g class="cls-11"><path class="cls-12" d="M59.59,47.93l12.89,12.9a.77.77,0,0,0,1.09,0l12.9-12.9a.77.77,0,0,0,0-1.09L73.58,33.94a.77.77,0,0,0-1.09,0L59.59,46.84a.77.77,0,0,0,0,1.09" transform="translate(0 0)"/></g></g><g class="cls-4"><g class="cls-13"><path class="cls-12" d="M24.49,32.07l13,13a.78.78,0,0,0,1.1,0l13-13a.78.78,0,0,0,0-1.1l-13-13a.78.78,0,0,0-1.1,0l-13,13a.78.78,0,0,0,0,1.1" transform="translate(0 0)"/></g></g><g class="cls-4"><g class="cls-14"><path class="cls-10" d="M41.28,18.87l8.57,8.57a.51.51,0,0,0,.72,0l8.57-8.57a.51.51,0,0,0,0-.72L50.58,9.58a.51.51,0,0,0-.72,0l-8.57,8.57a.51.51,0,0,0,0,.72" transform="translate(0 0)"/></g></g><g class="cls-4"><g class="cls-15"><path class="cls-6" d="M79,57.49l8,8a.48.48,0,0,0,.67,0l8-8a.48.48,0,0,0,0-.67l-8-8a.48.48,0,0,0-.67,0l-8,8a.48.48,0,0,0,0,.67" transform="translate(0 0)"/></g></g><g class="cls-4"><g class="cls-16"><rect class="cls-6" x="83.02" y="52.92" width="8.48" height="8.48" rx="0.33" ry="0.33" transform="translate(-14.86 78.45) rotate(-45.01)"/></g></g><g class="cls-4"><g class="cls-17"><path class="cls-8" d="M90,46.34l5,5a.3.3,0,0,0,.43,0l5-5a.3.3,0,0,0,0-.42l-5-5a.3.3,0,0,0-.43,0l-5,5a.3.3,0,0,0,0,.42" transform="translate(0 0)"/></g></g><g class="cls-4"><g class="cls-18"><path class="cls-6" d="M23.81,4.51,12.94,15.37a.65.65,0,0,0,0,.92L23.81,27.16a.65.65,0,0,0,.92,0L35.59,16.29a.65.65,0,0,0,0-.92L24.72,4.51a.65.65,0,0,0-.92,0" transform="translate(0 0)"/></g></g><g class="cls-4"><g class="cls-19"><path class="cls-6" d="M15.57,112.55,47,144a1.88,1.88,0,0,0,2.66,0l31.45-31.45a1.88,1.88,0,0,0,0-2.66L49.69,78.44a1.88,1.88,0,0,0-2.66,0L15.57,109.89a1.88,1.88,0,0,0,0,2.66" transform="translate(0 0)"/></g></g><g class="cls-4"><g class="cls-20"><path class="cls-8" d="M51,77.71l31.45,31.45a1.88,1.88,0,0,0,2.66,0l31.45-31.45a1.88,1.88,0,0,0,0-2.66L85.12,43.6a1.88,1.88,0,0,0-2.66,0L51,75.05a1.88,1.88,0,0,0,0,2.66" transform="translate(0 0)"/></g></g><g class="cls-4"><g class="cls-21"><path class="cls-10" d="M18,79.79l31.45,31.45a1.88,1.88,0,0,0,2.66,0L83.53,79.79a1.88,1.88,0,0,0,0-2.66L52.08,45.68a1.88,1.88,0,0,0-2.66,0L18,77.13a1.88,1.88,0,0,0,0,2.66" transform="translate(0 0)"/></g></g><g class="cls-4"><g class="cls-22"><path class="cls-12" d="M86.15,79.62l23.17,23.17a1.39,1.39,0,0,0,2,0l23.17-23.17a1.39,1.39,0,0,0,0-2L111.28,54.49a1.39,1.39,0,0,0-2,0L86.15,77.66a1.39,1.39,0,0,0,0,2" transform="translate(0 0)"/></g></g><g class="cls-4"><g class="cls-23"><path class="cls-10" d="M50,24.2l15.4,15.4a.92.92,0,0,0,1.3,0l15.4-15.4a.92.92,0,0,0,0-1.3L66.73,7.5a.92.92,0,0,0-1.3,0L50,22.9a.92.92,0,0,0,0,1.3" transform="translate(0 0)"/></g></g><g class="cls-4"><g class="cls-24"><path class="cls-8" d="M37.92,12.09l11,11a.66.66,0,0,0,.93,0l11-11a.66.66,0,0,0,0-.93l-11-11a.66.66,0,0,0-.93,0l-11,11a.66.66,0,0,0,0,.93" transform="translate(0 0)"/></g></g><g class="cls-4"><g class="cls-25"><path class="cls-6" d="M121,96.81l14.3,14.31a.85.85,0,0,0,1.21,0l14.3-14.31a.85.85,0,0,0,0-1.21L136.48,81.3a.86.86,0,0,0-1.21,0L121,95.6a.85.85,0,0,0,0,1.21" transform="translate(0 0)"/></g></g><g class="cls-4"><g class="cls-26"><path class="cls-8" d="M138,79.32l9,9a.54.54,0,0,0,.76,0l9-9a.54.54,0,0,0,0-.76l-9-9a.54.54,0,0,0-.76,0l-9,9a.54.54,0,0,0,0,.76" transform="translate(0 0)"/></g></g><g class="cls-4"><g class="cls-27"><path class="cls-6" d="M19.87,5.75.34,25.28a1.17,1.17,0,0,0,0,1.65L19.87,46.45a1.17,1.17,0,0,0,1.65,0L41,26.93a1.17,1.17,0,0,0,0-1.65L21.52,5.75a1.17,1.17,0,0,0-1.65,0" transform="translate(0 0)"/></g></g></g></g></g></g></g></svg>