<svg xmlns="http://www.w3.org/2000/svg" xmlns:xlink="http://www.w3.org/1999/xlink" viewBox="0 0 199.74 163.57"><defs><style>.cls-1{fill:none;}.cls-2{isolation:isolate;}.cls-3{clip-path:url(#clip-path);}.cls-4{opacity:0.6;mix-blend-mode:multiply;}.cls-5{clip-path:url(#clip-path-3);}.cls-6{fill:#1e88e5;}.cls-7{clip-path:url(#clip-path-4);}.cls-8{fill:#1876c4;}.cls-9{clip-path:url(#clip-path-5);}.cls-10{clip-path:url(#clip-path-6);}.cls-11{clip-path:url(#clip-path-7);}.cls-12{clip-path:url(#clip-path-8);}.cls-13{clip-path:url(#clip-path-9);}.cls-14{clip-path:url(#clip-path-10);}.cls-15{clip-path:url(#clip-path-11);}.cls-16{clip-path:url(#clip-path-12);}.cls-17{clip-path:url(#clip-path-13);}</style><clipPath id="clip-path" transform="translate(0)"><rect class="cls-1" width="199.74" height="163.57"/></clipPath><clipPath id="clip-path-3" transform="translate(0)"><rect class="cls-1" x="50.68" y="19.77" width="12.94" height="12.94"/></clipPath><clipPath id="clip-path-4" transform="translate(0)"><rect class="cls-1" x="64.66" y="25.53" width="50.64" height="50.64"/></clipPath><clipPath id="clip-path-5" transform="translate(0)"><rect class="cls-1" x="51.25" y="59.67" width="37.6" height="37.6"/></clipPath><clipPath id="clip-path-6" transform="translate(0)"><rect class="cls-1" x="37.45" y="51.9" width="24.79" height="24.79"/></clipPath><clipPath id="clip-path-7" transform="translate(0)"><rect class="cls-1" x="108.75" y="72.58" width="90.99" height="90.99"/></clipPath><clipPath id="clip-path-8" transform="translate(0)"><rect class="cls-1" x="61.44" y="25.16" width="90.99" height="90.99"/></clipPath><clipPath id="clip-path-9" transform="translate(0)"><rect class="cls-1" x="64.04" y="69.31" width="90.99" height="90.99"/></clipPath><clipPath id="clip-path-10" transform="translate(0)"><rect class="cls-1" x="76.26" width="67.04" height="67.04"/></clipPath><clipPath id="clip-path-11" transform="translate(0)"><rect class="cls-1" x="37.1" y="85.56" width="67.57" height="67.57"/></clipPath><clipPath id="clip-path-12" transform="translate(0)"><rect class="cls-1" x="12.31" y="71.61" width="44.54" height="44.54"/></clipPath><clipPath id="clip-path-13" transform="translate(0)"><rect class="cls-1" y="103.3" width="31.73" height="31.73"/></clipPath></defs><title>Ресурс 1</title><g class="cls-2"><g id="Слой_2" data-name="Слой 2"><g id="Слой_1-2" data-name="Слой 1"><g class="cls-3"><g class="cls-3"><g class="cls-4"><g class="cls-5"><path class="cls-6" d="M63.51,26l-6.1-6.1a.37.37,0,0,0-.52,0L50.79,26a.37.37,0,0,0,0,.52l6.1,6.1a.36.36,0,0,0,.52,0l6.1-6.1a.36.36,0,0,0,0-.52" transform="translate(0)"/></g></g><g class="cls-4"><g class="cls-7"><path class="cls-8" d="M91,75.75l23.89-23.89a1.43,1.43,0,0,0,0-2L91,25.95a1.43,1.43,0,0,0-2,0L65.08,49.84a1.43,1.43,0,0,0,0,2L89,75.75a1.43,1.43,0,0,0,2,0" transform="translate(0)"/></g></g><g class="cls-4"><g class="cls-9"><path class="cls-8" d="M70.8,97,88.54,79.22a1.06,1.06,0,0,0,0-1.5L70.8,60a1.06,1.06,0,0,0-1.5,0L51.56,77.72a1.06,1.06,0,0,0,0,1.5L69.3,97a1.06,1.06,0,0,0,1.5,0" transform="translate(0)"/></g></g><g class="cls-4"><g class="cls-10"><path class="cls-8" d="M50.34,76.49,62,64.79a.7.7,0,0,0,0-1L50.34,52.11a.7.7,0,0,0-1,0L37.66,63.8a.7.7,0,0,0,0,1l11.7,11.69a.7.7,0,0,0,1,0" transform="translate(0)"/></g></g><g class="cls-4"><g class="cls-11"><path class="cls-8" d="M156.06,162.82,199,119.89a2.57,2.57,0,0,0,0-3.63L156.06,73.33a2.57,2.57,0,0,0-3.63,0L109.5,116.26a2.57,2.57,0,0,0,0,3.63l42.93,42.93a2.57,2.57,0,0,0,3.63,0" transform="translate(0)"/></g></g><g class="cls-4"><g class="cls-12"><path class="cls-6" d="M108.75,115.4l42.93-42.93a2.57,2.57,0,0,0,0-3.63L108.75,25.91a2.57,2.57,0,0,0-3.63,0L62.19,68.84a2.57,2.57,0,0,0,0,3.63l42.93,42.93a2.57,2.57,0,0,0,3.63,0" transform="translate(0)"/></g></g><g class="cls-4"><g class="cls-13"><path class="cls-8" d="M111.35,159.56l42.93-42.93a2.57,2.57,0,0,0,0-3.63L111.35,70.07a2.57,2.57,0,0,0-3.63,0L64.79,113a2.57,2.57,0,0,0,0,3.63l42.93,42.93a2.57,2.57,0,0,0,3.63,0" transform="translate(0)"/></g></g><g class="cls-4"><g class="cls-14"><path class="cls-8" d="M111.12,66.48l31.63-31.63a1.89,1.89,0,0,0,0-2.67L111.12.55a1.89,1.89,0,0,0-2.67,0L76.82,32.18a1.89,1.89,0,0,0,0,2.67l31.63,31.63a1.89,1.89,0,0,0,2.67,0" transform="translate(0)"/></g></g><g class="cls-4"><g class="cls-15"><path class="cls-8" d="M72.23,152.58l31.88-31.88a1.91,1.91,0,0,0,0-2.69L72.23,86.12a1.91,1.91,0,0,0-2.7,0L37.66,118a1.91,1.91,0,0,0,0,2.7l31.88,31.88a1.9,1.9,0,0,0,2.69,0" transform="translate(0)"/></g></g><g class="cls-4"><g class="cls-16"><path class="cls-6" d="M35.47,115.79l21-21a1.26,1.26,0,0,0,0-1.78l-21-21a1.26,1.26,0,0,0-1.78,0l-21,21a1.26,1.26,0,0,0,0,1.78l21,21a1.26,1.26,0,0,0,1.78,0" transform="translate(0)"/></g></g><g class="cls-4"><g class="cls-17"><path class="cls-8" d="M16.5,134.76l15-15a.9.9,0,0,0,0-1.27l-15-15a.9.9,0,0,0-1.27,0l-15,15a.89.89,0,0,0,0,1.26l15,15a.89.89,0,0,0,1.27,0" transform="translate(0)"/></g></g></g></g></g></g></g></svg>