<svg xmlns="http://www.w3.org/2000/svg" xmlns:xlink="http://www.w3.org/1999/xlink" viewBox="0 0 171.31 162.78"><defs><style>.cls-1{fill:none;}.cls-2{isolation:isolate;}.cls-3{clip-path:url(#clip-path);}.cls-4{opacity:0.6;mix-blend-mode:multiply;}.cls-5{clip-path:url(#clip-path-3);}.cls-6{fill:#1e88e5;}.cls-7{clip-path:url(#clip-path-4);}.cls-8{fill:#1876c4;}.cls-9{clip-path:url(#clip-path-5);}.cls-10{clip-path:url(#clip-path-6);}.cls-11{clip-path:url(#clip-path-7);}.cls-12{clip-path:url(#clip-path-8);}.cls-13{clip-path:url(#clip-path-9);}.cls-14{clip-path:url(#clip-path-10);}.cls-15{clip-path:url(#clip-path-11);}.cls-16{clip-path:url(#clip-path-12);}.cls-17{clip-path:url(#clip-path-13);}</style><clipPath id="clip-path" transform="translate(-54.34 -62.87)"><rect class="cls-1" x="28.62" y="46.63" width="199.74" height="163.57" transform="translate(-53.17 127.92) rotate(-44.83)"/></clipPath><clipPath id="clip-path-3" transform="translate(-54.34 -62.87)"><rect class="cls-1" x="52.56" y="112.67" width="12.94" height="12.94" transform="translate(-66.83 76.26) rotate(-44.83)"/></clipPath><clipPath id="clip-path-4" transform="translate(-54.34 -62.87)"><rect class="cls-1" x="74.34" y="88.13" width="50.64" height="50.64" transform="translate(-51 103.25) rotate(-44.83)"/></clipPath><clipPath id="clip-path-5" transform="translate(-54.34 -62.87)"><rect class="cls-1" x="86.2" y="128.28" width="37.6" height="37.6" transform="translate(-73.16 116.79) rotate(-44.83)"/></clipPath><clipPath id="clip-path-6" transform="translate(-54.34 -62.87)"><rect class="cls-1" x="68.29" y="138.88" width="24.79" height="24.79" transform="translate(-83.19 100.87) rotate(-44.83)"/></clipPath><clipPath id="clip-path-7" transform="translate(-54.34 -62.87)"><rect class="cls-1" x="147.14" y="70.32" width="90.99" height="90.99" transform="translate(-25.63 169.48) rotate(-44.83)"/></clipPath><clipPath id="clip-path-8" transform="translate(-54.34 -62.87)"><rect class="cls-1" x="80.15" y="70.04" width="90.99" height="90.99" transform="translate(-44.92 122.18) rotate(-44.83)"/></clipPath><clipPath id="clip-path-9" transform="translate(-54.34 -62.87)"><rect class="cls-1" x="113.13" y="99.52" width="90.99" height="90.99" transform="translate(-56.11 154) rotate(-44.83)"/></clipPath><clipPath id="clip-path-10" transform="translate(-54.34 -62.87)"><rect class="cls-1" x="67.97" y="53.67" width="67.04" height="67.04" transform="translate(-31.96 96.9) rotate(-44.83)"/></clipPath><clipPath id="clip-path-11" transform="translate(-54.34 -62.87)"><rect class="cls-1" x="100.63" y="141.7" width="67.57" height="67.57" transform="translate(-84.63 145.79) rotate(-44.83)"/></clipPath><clipPath id="clip-path-12" transform="translate(-54.34 -62.87)"><rect class="cls-1" x="68.44" y="160.74" width="44.54" height="44.54" transform="translate(-102.65 117.17) rotate(-44.83)"/></clipPath><clipPath id="clip-path-13" transform="translate(-54.34 -62.87)"><rect class="cls-1" x="79.39" y="198.28" width="31.73" height="31.73" transform="translate(-123.27 129.43) rotate(-44.83)"/></clipPath></defs><title>Ресурс 2</title><g class="cls-2"><g id="Слой_2" data-name="Слой 2"><g id="Слой_1-2" data-name="Слой 1"><g class="cls-3"><g class="cls-3"><g class="cls-4"><g class="cls-5"><path class="cls-6" d="M63.36,114.47l-8.63,0a.37.37,0,0,0-.37.36l0,8.63a.37.37,0,0,0,.36.37l8.63,0a.36.36,0,0,0,.37-.36l0-8.63a.36.36,0,0,0-.36-.37" transform="translate(-54.34 -62.87)"/></g></g><g class="cls-4"><g class="cls-7"><path class="cls-8" d="M117.93,130.39,118,96.6a1.43,1.43,0,0,0-1.42-1.43l-33.79-.1a1.43,1.43,0,0,0-1.43,1.42l-.1,33.79a1.43,1.43,0,0,0,1.42,1.43l33.79.1a1.43,1.43,0,0,0,1.43-1.42" transform="translate(-54.34 -62.87)"/></g></g><g class="cls-4"><g class="cls-9"><path class="cls-8" d="M118.57,159.67l.07-25.09a1.06,1.06,0,0,0-1.06-1.06l-25.09-.07a1.06,1.06,0,0,0-1.06,1.06l-.08,25.09a1.06,1.06,0,0,0,1.06,1.06l25.09.07a1.06,1.06,0,0,0,1.06-1.06" transform="translate(-54.34 -62.87)"/></g></g><g class="cls-4"><g class="cls-10"><path class="cls-8" d="M89.63,159.57l0-16.54a.7.7,0,0,0-.7-.7l-16.54,0a.7.7,0,0,0-.7.7l0,16.54a.7.7,0,0,0,.7.7l16.54,0a.7.7,0,0,0,.7-.7" transform="translate(-54.34 -62.87)"/></g></g><g class="cls-4"><g class="cls-11"><path class="cls-8" d="M225.46,146.27l.18-60.71A2.57,2.57,0,0,0,223.09,83l-60.71-.18a2.57,2.57,0,0,0-2.57,2.56l-.18,60.71a2.57,2.57,0,0,0,2.56,2.57l60.71.18a2.57,2.57,0,0,0,2.57-2.56" transform="translate(-54.34 -62.87)"/></g></g><g class="cls-4"><g class="cls-12"><path class="cls-6" d="M158.48,146l.18-60.71a2.57,2.57,0,0,0-2.56-2.57l-60.71-.18a2.57,2.57,0,0,0-2.57,2.56l-.18,60.71a2.57,2.57,0,0,0,2.56,2.57l60.71.18a2.57,2.57,0,0,0,2.57-2.56" transform="translate(-54.34 -62.87)"/></g></g><g class="cls-4"><g class="cls-13"><path class="cls-8" d="M191.46,175.47l.18-60.71a2.57,2.57,0,0,0-2.56-2.57L128.36,112a2.57,2.57,0,0,0-2.57,2.56l-.18,60.71a2.57,2.57,0,0,0,2.56,2.57l60.71.18a2.57,2.57,0,0,0,2.57-2.56" transform="translate(-54.34 -62.87)"/></g></g><g class="cls-4"><g class="cls-14"><path class="cls-8" d="M125.68,109.63l.13-44.73a1.89,1.89,0,0,0-1.89-1.9L79.2,62.87a1.89,1.89,0,0,0-1.9,1.89l-.13,44.73a1.89,1.89,0,0,0,1.88,1.9l44.73.13a1.89,1.89,0,0,0,1.9-1.89" transform="translate(-54.34 -62.87)"/></g></g><g class="cls-4"><g class="cls-15"><path class="cls-8" d="M158.79,198.1l.13-45.09a1.91,1.91,0,0,0-1.9-1.91L111.94,151a1.91,1.91,0,0,0-1.91,1.9L109.9,198a1.91,1.91,0,0,0,1.9,1.91l45.09.13a1.9,1.9,0,0,0,1.91-1.9" transform="translate(-54.34 -62.87)"/></g></g><g class="cls-4"><g class="cls-16"><path class="cls-6" d="M106.79,197.92l.09-29.72a1.26,1.26,0,0,0-1.25-1.26l-29.72-.09a1.26,1.26,0,0,0-1.26,1.25l-.09,29.72a1.26,1.26,0,0,0,1.25,1.26l29.72.09a1.26,1.26,0,0,0,1.26-1.25" transform="translate(-54.34 -62.87)"/></g></g><g class="cls-4"><g class="cls-17"><path class="cls-8" d="M106.71,224.76l.06-21.17a.9.9,0,0,0-.89-.9l-21.17-.06a.9.9,0,0,0-.9.89l-.06,21.17a.89.89,0,0,0,.89.9l21.17.06a.89.89,0,0,0,.9-.89" transform="translate(-54.34 -62.87)"/></g></g></g></g></g></g></g></svg>