<svg xmlns="http://www.w3.org/2000/svg" xmlns:xlink="http://www.w3.org/1999/xlink" viewBox="0 0 199.74 163.57"><defs><style>.cls-1{fill:none;}.cls-2{isolation:isolate;}.cls-3{clip-path:url(#clip-path);}.cls-4{opacity:0.6;mix-blend-mode:multiply;}.cls-5{clip-path:url(#clip-path-3);}.cls-6{fill:#1e88e5;}.cls-7{clip-path:url(#clip-path-4);}.cls-8{fill:#1876c4;}.cls-9{clip-path:url(#clip-path-5);}.cls-10{clip-path:url(#clip-path-6);}.cls-11{clip-path:url(#clip-path-7);}.cls-12{clip-path:url(#clip-path-8);}.cls-13{clip-path:url(#clip-path-9);}.cls-14{clip-path:url(#clip-path-10);}.cls-15{clip-path:url(#clip-path-11);}.cls-16{clip-path:url(#clip-path-12);}.cls-17{clip-path:url(#clip-path-13);}</style><clipPath id="clip-path"><rect class="cls-1" width="199.74" height="163.57"/></clipPath><clipPath id="clip-path-3"><rect class="cls-1" x="136.13" y="130.86" width="12.94" height="12.94"/></clipPath><clipPath id="clip-path-4"><rect class="cls-1" x="84.45" y="87.41" width="50.64" height="50.64"/></clipPath><clipPath id="clip-path-5"><rect class="cls-1" x="110.89" y="66.3" width="37.6" height="37.6"/></clipPath><clipPath id="clip-path-6"><rect class="cls-1" x="137.5" y="86.88" width="24.79" height="24.79"/></clipPath><clipPath id="clip-path-7"><rect class="cls-1" width="90.99" height="90.99"/></clipPath><clipPath id="clip-path-8"><rect class="cls-1" x="47.31" y="47.42" width="90.99" height="90.99"/></clipPath><clipPath id="clip-path-9"><rect class="cls-1" x="44.71" y="3.26" width="90.99" height="90.99"/></clipPath><clipPath id="clip-path-10"><rect class="cls-1" x="56.44" y="96.53" width="67.04" height="67.04"/></clipPath><clipPath id="clip-path-11"><rect class="cls-1" x="95.07" y="10.43" width="67.57" height="67.57"/></clipPath><clipPath id="clip-path-12"><rect class="cls-1" x="142.88" y="47.42" width="44.54" height="44.54"/></clipPath><clipPath id="clip-path-13"><rect class="cls-1" x="168.01" y="28.55" width="31.73" height="31.73"/></clipPath></defs><title>Ресурс 1</title><g class="cls-2"><g id="Слой_2" data-name="Слой 2"><g id="Слой_1-2" data-name="Слой 1"><g class="cls-3"><g class="cls-3"><g class="cls-4"><g class="cls-5"><path class="cls-6" d="M136.23,137.59l6.1,6.1a.37.37,0,0,0,.52,0l6.1-6.1a.37.37,0,0,0,0-.52l-6.1-6.1a.36.36,0,0,0-.52,0l-6.1,6.1a.36.36,0,0,0,0,.52"/></g></g><g class="cls-4"><g class="cls-7"><path class="cls-8" d="M108.75,87.82,84.86,111.71a1.43,1.43,0,0,0,0,2l23.89,23.89a1.43,1.43,0,0,0,2,0l23.89-23.89a1.43,1.43,0,0,0,0-2L110.77,87.82a1.43,1.43,0,0,0-2,0"/></g></g><g class="cls-4"><g class="cls-9"><path class="cls-8" d="M128.94,66.61,111.2,84.35a1.06,1.06,0,0,0,0,1.5l17.74,17.74a1.06,1.06,0,0,0,1.5,0l17.74-17.74a1.06,1.06,0,0,0,0-1.5L130.44,66.61a1.06,1.06,0,0,0-1.5,0"/></g></g><g class="cls-4"><g class="cls-10"><path class="cls-8" d="M149.4,87.08,137.7,98.78a.7.7,0,0,0,0,1l11.7,11.69a.7.7,0,0,0,1,0l11.69-11.69a.7.7,0,0,0,0-1l-11.7-11.69a.7.7,0,0,0-1,0"/></g></g><g class="cls-4"><g class="cls-11"><path class="cls-8" d="M43.68.75.75,43.68a2.57,2.57,0,0,0,0,3.63L43.68,90.24a2.57,2.57,0,0,0,3.63,0L90.24,47.31a2.57,2.57,0,0,0,0-3.63L47.31.75a2.57,2.57,0,0,0-3.63,0"/></g></g><g class="cls-4"><g class="cls-12"><path class="cls-6" d="M91,48.17,48.06,91.1a2.57,2.57,0,0,0,0,3.63L91,137.66a2.57,2.57,0,0,0,3.63,0l42.93-42.93a2.57,2.57,0,0,0,0-3.63L94.62,48.17a2.57,2.57,0,0,0-3.63,0"/></g></g><g class="cls-4"><g class="cls-13"><path class="cls-8" d="M88.39,4,45.46,46.94a2.57,2.57,0,0,0,0,3.63L88.39,93.5a2.57,2.57,0,0,0,3.63,0L135,50.57a2.57,2.57,0,0,0,0-3.63L92,4a2.57,2.57,0,0,0-3.63,0"/></g></g><g class="cls-4"><g class="cls-14"><path class="cls-8" d="M88.62,97.09,57,128.71a1.89,1.89,0,0,0,0,2.67L88.62,163a1.89,1.89,0,0,0,2.67,0l31.63-31.63a1.89,1.89,0,0,0,0-2.67L91.3,97.09a1.89,1.89,0,0,0-2.67,0"/></g></g><g class="cls-4"><g class="cls-15"><path class="cls-8" d="M127.51,11,95.63,42.87a1.91,1.91,0,0,0,0,2.69l31.88,31.88a1.91,1.91,0,0,0,2.7,0l31.88-31.88a1.91,1.91,0,0,0,0-2.7L130.2,11a1.9,1.9,0,0,0-2.69,0"/></g></g><g class="cls-4"><g class="cls-16"><path class="cls-6" d="M164.27,47.78l-21,21a1.26,1.26,0,0,0,0,1.78l21,21a1.26,1.26,0,0,0,1.78,0l21-21a1.26,1.26,0,0,0,0-1.78l-21-21a1.26,1.26,0,0,0-1.78,0"/></g></g><g class="cls-4"><g class="cls-17"><path class="cls-8" d="M183.24,28.81l-15,15a.9.9,0,0,0,0,1.27l15,15a.9.9,0,0,0,1.27,0l15-15a.89.89,0,0,0,0-1.26l-15-15a.89.89,0,0,0-1.27,0"/></g></g></g></g></g></g></g></svg>