<svg xmlns="http://www.w3.org/2000/svg" xmlns:xlink="http://www.w3.org/1999/xlink" viewBox="0 0 34.76 48" width="28"><defs><style>.cls-1{fill:none;}.cls-2{clip-path:url(#clip-path);}.cls-3{fill:#eff2fa;}.cls-4{fill:#d7deed;}.cls-5{fill:#faa629;}.cls-6{fill:#c7cfe2;}</style><clipPath id="clip-path" transform="translate(0 0)"><rect class="cls-1" width="34.76" height="48"/></clipPath></defs><title>Ресурс 1</title><g id="Слой_2" data-name="Слой 2"><g id="Слой_1-2" data-name="Слой 1"><g class="cls-2"><path class="cls-3" d="M33.1,48H1.66A1.66,1.66,0,0,1,0,46.35v-43A1.66,1.66,0,0,1,1.66,1.66H33.1a1.65,1.65,0,0,1,1.65,1.66v43A1.66,1.66,0,0,1,33.1,48" transform="translate(0 0)"/><rect class="cls-4" y="5.79" width="34.76" height="1.65"/><path class="cls-5" d="M34.76,5.79H0V3.31A1.65,1.65,0,0,1,1.65,1.66H33.1a1.65,1.65,0,0,1,1.66,1.65Z" transform="translate(0 0)"/><path class="cls-6" d="M17.38,3.31h0a.83.83,0,0,1-.83-.83V.83a.83.83,0,0,1,1.65,0V2.48a.83.83,0,0,1-.83.83" transform="translate(0 0)"/><path class="cls-6" d="M20.69,3.31h0a.83.83,0,0,1-.83-.83V.83a.83.83,0,0,1,1.66,0V2.48a.83.83,0,0,1-.83.83" transform="translate(0 0)"/><path class="cls-6" d="M10.76,3.31h0a.83.83,0,0,1-.83-.83V.83a.83.83,0,0,1,1.65,0V2.48a.83.83,0,0,1-.83.83" transform="translate(0 0)"/><path class="cls-6" d="M14.07,3.31h0a.83.83,0,0,1-.83-.83V.83a.83.83,0,0,1,1.65,0V2.48a.83.83,0,0,1-.83.83" transform="translate(0 0)"/><path class="cls-6" d="M4.14,3.31h0a.83.83,0,0,1-.83-.83V.83A.83.83,0,0,1,5,.83V2.48a.83.83,0,0,1-.83.83" transform="translate(0 0)"/><path class="cls-6" d="M7.45,3.31h0a.83.83,0,0,1-.83-.83V.83a.83.83,0,0,1,1.65,0V2.48a.83.83,0,0,1-.83.83" transform="translate(0 0)"/><path class="cls-6" d="M24,3.31h0a.83.83,0,0,1-.83-.83V.83a.83.83,0,0,1,1.66,0V2.48a.83.83,0,0,1-.83.83" transform="translate(0 0)"/><path class="cls-6" d="M27.31,3.31h0a.83.83,0,0,1-.83-.83V.83a.83.83,0,0,1,1.66,0V2.48a.83.83,0,0,1-.83.83" transform="translate(0 0)"/><path class="cls-6" d="M30.62,3.31h0a.83.83,0,0,1-.83-.83V.83a.83.83,0,0,1,1.66,0V2.48a.83.83,0,0,1-.83.83" transform="translate(0 0)"/><path class="cls-5" d="M5.79,13.24H4.14a.83.83,0,1,1,0-1.65H5.79a.83.83,0,0,1,0,1.65" transform="translate(0 0)"/><path class="cls-5" d="M5.79,16.55H4.14a.83.83,0,1,1,0-1.65H5.79a.83.83,0,0,1,0,1.65" transform="translate(0 0)"/><path class="cls-5" d="M5.79,19.86H4.14a.83.83,0,1,1,0-1.65H5.79a.83.83,0,0,1,0,1.65" transform="translate(0 0)"/><path class="cls-5" d="M5.79,23.17H4.14a.83.83,0,1,1,0-1.65H5.79a.83.83,0,0,1,0,1.65" transform="translate(0 0)"/><path class="cls-5" d="M5.79,26.48H4.14a.83.83,0,1,1,0-1.65H5.79a.83.83,0,0,1,0,1.65" transform="translate(0 0)"/><path class="cls-5" d="M5.79,29.79H4.14a.83.83,0,1,1,0-1.65H5.79a.83.83,0,0,1,0,1.65" transform="translate(0 0)"/><path class="cls-5" d="M5.79,33.1H4.14a.83.83,0,1,1,0-1.65H5.79a.83.83,0,0,1,0,1.65" transform="translate(0 0)"/><path class="cls-5" d="M5.79,36.41H4.14a.83.83,0,1,1,0-1.65H5.79a.83.83,0,0,1,0,1.65" transform="translate(0 0)"/><path class="cls-5" d="M5.79,39.72H4.14a.83.83,0,1,1,0-1.65H5.79a.83.83,0,0,1,0,1.65" transform="translate(0 0)"/><path class="cls-5" d="M5.79,43H4.14a.83.83,0,1,1,0-1.65H5.79a.83.83,0,0,1,0,1.65" transform="translate(0 0)"/><path class="cls-4" d="M30.62,13.24H19a.83.83,0,1,1,0-1.65H30.62a.83.83,0,1,1,0,1.65" transform="translate(0 0)"/><path class="cls-4" d="M30.62,19.86H23.17a.83.83,0,0,1,0-1.65h7.45a.83.83,0,1,1,0,1.65" transform="translate(0 0)"/><path class="cls-4" d="M12.41,16.55H9.1a.83.83,0,0,1,0-1.65h3.31a.83.83,0,1,1,0,1.65" transform="translate(0 0)"/><path class="cls-4" d="M24,16.55H15.72a.83.83,0,1,1,0-1.65H24a.83.83,0,0,1,0,1.65" transform="translate(0 0)"/><path class="cls-4" d="M30.62,16.55H27.31a.83.83,0,0,1,0-1.65h3.31a.83.83,0,1,1,0,1.65" transform="translate(0 0)"/><path class="cls-4" d="M19.86,19.86H9.1a.83.83,0,0,1,0-1.65H19.86a.83.83,0,1,1,0,1.65" transform="translate(0 0)"/><path class="cls-4" d="M15.72,23.17H9.1a.83.83,0,0,1,0-1.65h6.62a.83.83,0,1,1,0,1.65" transform="translate(0 0)"/><path class="cls-4" d="M30.62,23.17H19a.83.83,0,1,1,0-1.65H30.62a.83.83,0,1,1,0,1.65" transform="translate(0 0)"/><path class="cls-4" d="M30.62,26.48H27.31a.83.83,0,0,1,0-1.65h3.31a.83.83,0,1,1,0,1.65" transform="translate(0 0)"/><path class="cls-4" d="M24,26.48H9.1a.83.83,0,1,1,0-1.65H24a.83.83,0,0,1,0,1.65" transform="translate(0 0)"/><path class="cls-4" d="M15.72,13.24H9.1a.83.83,0,0,1,0-1.65h6.62a.83.83,0,1,1,0,1.65" transform="translate(0 0)"/><path class="cls-4" d="M30.62,29.79H19a.83.83,0,1,1,0-1.65H30.62a.83.83,0,1,1,0,1.65" transform="translate(0 0)"/><path class="cls-4" d="M30.62,36.41H23.17a.83.83,0,0,1,0-1.65h7.45a.83.83,0,1,1,0,1.65" transform="translate(0 0)"/><path class="cls-4" d="M12.41,33.1H9.1a.83.83,0,0,1,0-1.65h3.31a.83.83,0,1,1,0,1.65" transform="translate(0 0)"/><path class="cls-4" d="M24,33.1H15.72a.83.83,0,1,1,0-1.65H24a.83.83,0,0,1,0,1.65" transform="translate(0 0)"/><path class="cls-4" d="M30.62,33.1H27.31a.83.83,0,0,1,0-1.65h3.31a.83.83,0,1,1,0,1.65" transform="translate(0 0)"/><path class="cls-4" d="M19.86,36.41H9.1a.83.83,0,0,1,0-1.65H19.86a.83.83,0,1,1,0,1.65" transform="translate(0 0)"/><path class="cls-4" d="M15.72,39.72H9.1a.83.83,0,0,1,0-1.65h6.62a.83.83,0,1,1,0,1.65" transform="translate(0 0)"/><path class="cls-4" d="M30.62,39.72H19a.83.83,0,1,1,0-1.65H30.62a.83.83,0,1,1,0,1.65" transform="translate(0 0)"/><path class="cls-4" d="M30.62,43H27.31a.83.83,0,0,1,0-1.65h3.31a.83.83,0,1,1,0,1.65" transform="translate(0 0)"/><path class="cls-4" d="M24,43H9.1a.83.83,0,1,1,0-1.65H24A.83.83,0,0,1,24,43" transform="translate(0 0)"/><path class="cls-4" d="M15.72,29.79H9.1a.83.83,0,0,1,0-1.65h6.62a.83.83,0,1,1,0,1.65" transform="translate(0 0)"/></g></g></g></svg>