<svg xmlns="http://www.w3.org/2000/svg" xmlns:xlink="http://www.w3.org/1999/xlink" viewBox="0 0 512 334.71" width="48"><defs><style>.cls-1{fill:none;}.cls-2{clip-path:url(#clip-path);}.cls-3{fill:#694b4b;}.cls-4{fill:#203945;}.cls-5{fill:#4c636f;}.cls-6{fill:#e6af78;}.cls-7{fill:#eff2fa;}.cls-8{fill:#d29b6e;}.cls-9{fill:#e4eaf6;}.cls-10{fill:#f0c087;}.cls-11{fill:#1876c4;}.cls-12{fill:#0455a4;}</style><clipPath id="clip-path" transform="translate(0)"><rect class="cls-1" width="512" height="334.71"/></clipPath></defs><title>Ресурс 1</title><g id="Слой_2" data-name="Слой 2"><g id="Слой_1-2" data-name="Слой 1"><g class="cls-2"><path class="cls-3" d="M88.22,58c-82.14,0-73,99.89-72.66,172.28a7.72,7.72,0,0,0,3.79,6.61c9.1,5.49,34.1,18.32,68.87,18.32s59.77-12.83,68.87-18.32a7.73,7.73,0,0,0,3.79-6.61C161.26,157.87,170.36,58,88.22,58" transform="translate(0)"/><path class="cls-4" d="M82.93,58.18C6.54,62.47,15.2,159.48,15.56,230.25a7.72,7.72,0,0,0,3.79,6.61c9.1,5.49,34.1,18.32,68.87,18.32L109,109.87" transform="translate(0)"/><path class="cls-5" d="M88.22,58c-46.71,0-49.95,56.44-49.95,56.44,26.92-4.54,43.46,6.81,70.71-4.54L88.22,255.18c34.77,0,59.77-12.83,68.87-18.32a7.73,7.73,0,0,0,3.79-6.61C161.26,157.87,170.36,58,88.22,58" transform="translate(0)"/><path class="cls-5" d="M160.88,230.25c.32-62.2,7-144.65-43.18-166.64-.88,4.55-2.46,17.25,1.66,25.5,10.38,20.76,20.76,20.76,31.14,36.33,10.38,57.09-19.83,117.67-29.86,125.92a130.58,130.58,0,0,0,36.46-14.5,7.73,7.73,0,0,0,3.79-6.61" transform="translate(0)"/><path class="cls-6" d="M166.86,246,120.56,226.7a10.38,10.38,0,0,1-6.39-9.58V204.58H62.27v12.54a10.38,10.38,0,0,1-6.39,9.58L9.58,246A15.57,15.57,0,0,0,0,260.37v20.76a10.38,10.38,0,0,0,10.38,10.38H166.07a10.38,10.38,0,0,0,10.38-10.38V260.37A15.57,15.57,0,0,0,166.86,246" transform="translate(0)"/><path class="cls-7" d="M166.86,246l-44.77-18.66L88.22,242,54.35,227.34,9.58,246A15.57,15.57,0,0,0,0,260.37v20.76a10.38,10.38,0,0,0,10.38,10.38H166.07a10.38,10.38,0,0,0,10.38-10.38V260.37A15.57,15.57,0,0,0,166.86,246" transform="translate(0)"/><path class="cls-8" d="M114.17,204.58H62.27v12.54a10.38,10.38,0,0,1-6.39,9.58l-7.23,3c55.35,14.11,65.51-25.14,65.51-25.14" transform="translate(0)"/><path class="cls-9" d="M25.29,266.07,4.46,249.51A15.53,15.53,0,0,0,0,260.37v20.76a10.38,10.38,0,0,0,10.38,10.38H31.14V278.23a15.57,15.57,0,0,0-5.84-12.16" transform="translate(0)"/><path class="cls-9" d="M176.44,281.13V260.37a15.54,15.54,0,0,0-4.4-10.8l-20.9,16.5a15.57,15.57,0,0,0-5.84,12.16v13.28h20.76a10.38,10.38,0,0,0,10.38-10.38" transform="translate(0)"/><path class="cls-9" d="M89,281.13H87.44A4.41,4.41,0,0,1,83,276.72V242H93.41v34.74A4.41,4.41,0,0,1,89,281.13" transform="translate(0)"/><path class="cls-9" d="M88.22,242l-29.7-22.28a4.15,4.15,0,0,0-5.94,1l-5.87,8.8L64.92,255a4.15,4.15,0,0,0,6,.83Z" transform="translate(0)"/><path class="cls-9" d="M88.22,242l29.7-22.28a4.15,4.15,0,0,1,5.94,1l5.87,8.8L111.53,255a4.15,4.15,0,0,1-6,.83Z" transform="translate(0)"/><path class="cls-10" d="M114.17,104.68c-25.95,25.95-76.87,5.19-76.87,46.71L40.52,182a20.76,20.76,0,0,0,10.59,16.27l29.55,16.41a15.57,15.57,0,0,0,15.12,0l29.55-16.41A20.76,20.76,0,0,0,135.92,182l3.72-36.32a57.42,57.42,0,0,0,.23-7.77c-1.94-13.21-20.52-22.82-25.7-33.2" transform="translate(0)"/><path class="cls-6" d="M37.3,151.39,40.52,182a20.76,20.76,0,0,0,10.59,16.27l29.55,16.41a15.51,15.51,0,0,0,10.57,1.58s-14.9-4.51-23.76-28.51c-2.72-7.35-6.49-46.27-3.24-51,6.41-9.4,42.16-10.38,52.73-27.82q-.78-1-1.44-1.95l-.11-.16a20,20,0,0,1-1.22-2.08c-25.95,25.95-76.87,5.19-76.87,46.71" transform="translate(0)"/><path class="cls-9" d="M126.11,281.13H112.61a8.82,8.82,0,0,0-8.82,8.82v1.56h31.14V290a8.82,8.82,0,0,0-8.82-8.82" transform="translate(0)"/><polygon class="cls-6" points="442.78 221.87 442.78 193.37 369.49 193.37 369.49 221.87 406.13 254.44 442.78 221.87"/><path class="cls-7" d="M499.44,235.2l-50.39-11.85a8.05,8.05,0,0,1-2.11-.85L406.13,246.3l-39.22-25a8.11,8.11,0,0,1-3.71,2L312.82,235.2a16.29,16.29,0,0,0-12.56,15.85v31.89a8.15,8.15,0,0,0,8.14,8.14H503.86a8.15,8.15,0,0,0,8.14-8.14V251.06a16.29,16.29,0,0,0-12.56-15.85" transform="translate(0)"/><path class="cls-8" d="M369.49,193.37v30.07c46.16,16.63,73.29-25,73.29-25v-5.08Z" transform="translate(0)"/><path class="cls-10" d="M353.2,99.72l3.55,78.06a24.43,24.43,0,0,0,9.75,18.43l16.84,12.63A24.43,24.43,0,0,0,398,213.73h16.29a24.43,24.43,0,0,0,14.66-4.89l16.84-12.63a24.43,24.43,0,0,0,9.75-18.43l3.55-78.06Z" transform="translate(0)"/><path class="cls-6" d="M393.92,116c16.29,0,40.72-4.07,46.51-16.29H353.2l3.55,78.06a24.43,24.43,0,0,0,9.75,18.44l16.84,12.63A24.43,24.43,0,0,0,398,213.73h8.14c-8.14,0-24.43-16.29-24.43-36.65V128.22c0-4.07,4.07-12.22,12.22-12.22" transform="translate(0)"/><path class="cls-9" d="M482.11,264.66,508.49,241A16.26,16.26,0,0,1,512,251.06v31.89a8.15,8.15,0,0,1-8.14,8.15h-28.5V279.81a20.36,20.36,0,0,1,6.75-15.15" transform="translate(0)"/><polygon class="cls-5" points="416.31 291.09 395.95 291.09 398.5 254.44 413.77 254.44 416.31 291.09"/><path class="cls-4" d="M416.31,246.3H396v2.35a9.86,9.86,0,0,0,9.86,9.86h.63a9.86,9.86,0,0,0,9.86-9.86V246.3Z" transform="translate(0)"/><path class="cls-9" d="M368.91,212.81l37.22,33.5a140.38,140.38,0,0,0-23.29,15.87,5.22,5.22,0,0,1-8.09-1.83l-17.49-38.47,5.53-8.3a4.07,4.07,0,0,1,6.11-.77" transform="translate(0)"/><path class="cls-9" d="M443.35,212.81l-37.22,33.5a140.38,140.38,0,0,1,23.29,15.87,5.22,5.22,0,0,0,8.09-1.83L455,221.87l-5.53-8.3a4.07,4.07,0,0,0-6.11-.77" transform="translate(0)"/><path class="cls-5" d="M430.82,72.74l3.82,27c17.42,3.49,19.94,30.83,20.3,38.64a8.06,8.06,0,0,0,1.29,4l6.65,10.31s-2.28-17.05,8.14-28.5c0,0,3.58-67.69-40.19-51.41" transform="translate(0)"/><path class="cls-10" d="M467,150.91l-4.6,18.39a4.89,4.89,0,0,1-9.61-.58l-2.35-18.81a8.43,8.43,0,0,1,8.36-9.47h0A8.43,8.43,0,0,1,467,150.91" transform="translate(0)"/><path class="cls-5" d="M357.1,65.44l6,4.11C335.89,89.66,341,124.15,341,124.15c8.14,8.14,8.14,28.5,8.14,28.5l8.14-8.14s-3.14-23.52,12.22-32.57c14.25-8.4,26.72-4.07,39.45-4.07,34.1,0,43.64-12.85,42-28.5-.86-8.1-13.24-25-44.79-24.43-12.73.22-36.65,4.07-49,10.52" transform="translate(0)"/><path class="cls-4" d="M354.73,104.3s-4.33-17.05,8.4-34.74C335.89,89.66,341,124.15,341,124.15c8.14,8.14,8.14,28.5,8.14,28.5l8.14-8.15s-3.14-23.52,12.22-32.57c14.25-8.4,26.72-4.07,39.45-4.07a100.12,100.12,0,0,0,14.68-1c-26.26.88-41.74-19-68.89-2.56" transform="translate(0)"/><path class="cls-6" d="M345.31,150.91l4.6,18.39a4.9,4.9,0,0,0,9.61-.58l2.35-18.81a8.43,8.43,0,0,0-8.36-9.47h0a8.43,8.43,0,0,0-8.18,10.47" transform="translate(0)"/><path class="cls-9" d="M455,282.95H434.64a8.14,8.14,0,0,0-8.14,8.14h36.65a8.14,8.14,0,0,0-8.14-8.14" transform="translate(0)"/><polygon class="cls-6" points="308.03 236.61 308.03 196.22 204.16 196.22 204.16 236.61 256.1 282.78 308.03 236.61"/><path class="cls-11" d="M388.34,255.51l-71.41-16.8a11.44,11.44,0,0,1-3-1.21L256.1,271.24l-55.58-35.37a11.47,11.47,0,0,1-5.25,2.84l-71.41,16.8A23.08,23.08,0,0,0,106.06,278v45.19a11.54,11.54,0,0,0,11.54,11.54h277a11.54,11.54,0,0,0,11.54-11.54V278a23.08,23.08,0,0,0-17.8-22.47" transform="translate(0)"/><path class="cls-8" d="M204.16,196.22v42.62C269.59,262.41,308,203.42,308,203.42v-7.2Z" transform="translate(0)"/><path class="cls-10" d="M181.08,63.49l5,110.63a34.63,34.63,0,0,0,13.82,26.13l23.86,17.9a34.62,34.62,0,0,0,20.77,6.93h23.08a34.62,34.62,0,0,0,20.77-6.93l23.86-17.9a34.63,34.63,0,0,0,13.82-26.13l5-110.63Z" transform="translate(0)"/><polygon class="cls-5" points="270.52 334.71 241.67 334.71 245.28 282.78 266.92 282.78 270.52 334.71"/><path class="cls-6" d="M238.79,86.58c23.08,0,57.71-5.77,65.92-23.08H181.08l5,110.63a34.62,34.62,0,0,0,13.81,26.13l23.86,17.89a34.63,34.63,0,0,0,20.78,6.93H256.1c-11.54,0-34.62-23.08-34.62-51.94V103.89c0-5.77,5.77-17.31,17.31-17.31" transform="translate(0)"/><path class="cls-4" d="M270.52,271.24H241.67v3.33a14,14,0,0,0,14,14h.9a14,14,0,0,0,14-14v-3.33Z" transform="translate(0)"/><path class="cls-12" d="M363.77,297.26l37.39-33.59a23.05,23.05,0,0,1,5,14.31v45.19a11.54,11.54,0,0,1-11.54,11.54H354.2v-16a28.86,28.86,0,0,1,9.57-21.47" transform="translate(0)"/><path class="cls-12" d="M148.43,297.26,111,263.67a23,23,0,0,0-5,14.31v45.19a11.54,11.54,0,0,0,11.54,11.54H158v-16a28.85,28.85,0,0,0-9.57-21.47" transform="translate(0)"/><path class="cls-12" d="M203.35,223.76l52.75,47.47s-14.77,7.46-33,22.49a7.4,7.4,0,0,1-11.47-2.59l-24.78-54.52,7.84-11.76a5.77,5.77,0,0,1,8.66-1.09" transform="translate(0)"/><path class="cls-12" d="M308.84,223.76,256.1,271.24s14.77,7.46,33,22.49a7.4,7.4,0,0,0,11.47-2.59l24.78-54.52-7.84-11.76a5.77,5.77,0,0,0-8.66-1.09" transform="translate(0)"/><path class="cls-5" d="M291.08,25.26l5.41,38.23c24.7,4.94,28.25,43.69,28.77,54.76a11.4,11.4,0,0,0,1.82,5.64l9.42,14.62S333.28,114.35,348,98.12c0,0,5.07-95.94-57-72.86" transform="translate(0)"/><path class="cls-10" d="M342.3,136l-6.52,26.07a6.94,6.94,0,0,1-13.62-.82l-3.33-26.66a12,12,0,0,1,11.85-13.43h0A12,12,0,0,1,342.3,136" transform="translate(0)"/><path class="cls-5" d="M186.61,14.92l8.54,5.83c-38.59,28.49-31.38,77.36-31.38,77.36,11.54,11.54,11.54,40.39,11.54,40.39L186.85,127s-4.45-33.34,17.31-46.16C224.36,68.9,242,75,260.07,75c48.33,0,61.85-18.21,59.51-40.39C318.36,23.16,300.81-.74,256.1,0c-18,.31-51.94,5.77-69.49,14.91" transform="translate(0)"/><path class="cls-4" d="M183.24,70s-6.13-24.16,11.9-49.23c-38.59,28.49-31.38,77.36-31.38,77.36,11.54,11.54,11.54,40.39,11.54,40.39L186.85,127s-4.45-33.34,17.31-46.16C224.36,68.9,242,75,260.07,75a141.79,141.79,0,0,0,20.81-1.43c-37.22,1.25-59.16-26.94-97.63-3.62" transform="translate(0)"/><path class="cls-6" d="M169.9,136l6.52,26.07a6.94,6.94,0,0,0,13.62-.82l3.33-26.66a12,12,0,0,0-11.85-13.43h0A11.94,11.94,0,0,0,169.9,136" transform="translate(0)"/><path class="cls-12" d="M325.35,323.17H296.49a11.54,11.54,0,0,0-11.54,11.54h51.94a11.54,11.54,0,0,0-11.54-11.54" transform="translate(0)"/></g></g></g></svg>