<svg xmlns="http://www.w3.org/2000/svg" xmlns:xlink="http://www.w3.org/1999/xlink" viewBox="0 0 34.76 48" width="28"><defs><style>.cls-1{fill:none;}.cls-2{clip-path:url(#clip-path);}.cls-3{fill:#8497a0;}.cls-4{fill:#eff2fa;}.cls-5{fill:#c7cfe2;}.cls-6{fill:#afb9d2;}.cls-7{fill:#d7deed;}.cls-8{fill:#faa629;}</style><clipPath id="clip-path" transform="translate(0 0)"><rect class="cls-1" width="34.76" height="48"/></clipPath></defs><title>Ресурс 1</title><g id="Слой_2" data-name="Слой 2"><g id="Слой_1-2" data-name="Слой 1"><g class="cls-2"><path class="cls-3" d="M31.45,48H3.31A3.31,3.31,0,0,1,0,44.69V6.62A3.31,3.31,0,0,1,3.31,3.31H31.45a3.31,3.31,0,0,1,3.31,3.31V44.69A3.31,3.31,0,0,1,31.45,48" transform="translate(0 0)"/><path class="cls-4" d="M31.45,5.79H3.31a.83.83,0,0,0-.83.83V44.69a.83.83,0,0,0,.83.83H25.66l6.62-6.62V6.62a.83.83,0,0,0-.83-.83" transform="translate(0 0)"/><path class="cls-5" d="M22.34,3.31H19.86V2.48a2.48,2.48,0,0,0-5,0v.83H12.41A1.66,1.66,0,0,0,10.76,5V6.62H24V5a1.66,1.66,0,0,0-1.65-1.66m-5,0a.83.83,0,1,1,.83-.83.83.83,0,0,1-.83.83" transform="translate(0 0)"/><path class="cls-6" d="M24,7.45H10.76a.83.83,0,1,1,0-1.65H24a.83.83,0,1,1,0,1.65" transform="translate(0 0)"/><path class="cls-5" d="M11.59,33.1h-5a.83.83,0,1,1,0-1.65h5a.83.83,0,1,1,0,1.65" transform="translate(0 0)"/><path class="cls-7" d="M28.14,33.1H14.9a.83.83,0,0,1,0-1.65H28.14a.83.83,0,1,1,0,1.65" transform="translate(0 0)"/><path class="cls-7" d="M19.86,38.07h-5a.83.83,0,0,1,0-1.65h5a.83.83,0,0,1,0,1.65" transform="translate(0 0)"/><path class="cls-7" d="M21.52,41.38H14.9a.83.83,0,0,1,0-1.65h6.62a.83.83,0,0,1,0,1.65" transform="translate(0 0)"/><path class="cls-5" d="M11.59,19.86h-5a.83.83,0,1,1,0-1.65h5a.83.83,0,1,1,0,1.65" transform="translate(0 0)"/><path class="cls-5" d="M21.52,23.17H19a.83.83,0,1,1,0-1.65h2.48a.83.83,0,0,1,0,1.65" transform="translate(0 0)"/><path class="cls-7" d="M28.14,23.17H24.83a.83.83,0,1,1,0-1.65h3.31a.83.83,0,1,1,0,1.65" transform="translate(0 0)"/><path class="cls-7" d="M28.14,19.86H14.9a.83.83,0,0,1,0-1.65H28.14a.83.83,0,1,1,0,1.65" transform="translate(0 0)"/><path class="cls-5" d="M28.14,14.9H21.52a.83.83,0,1,1,0-1.65h6.62a.83.83,0,1,1,0,1.65" transform="translate(0 0)"/><path class="cls-7" d="M18.21,14.9H16.55a.83.83,0,0,1,0-1.65h1.66a.83.83,0,0,1,0,1.65" transform="translate(0 0)"/><path class="cls-8" d="M28.14,11.59h-5a.83.83,0,1,1,0-1.65h5a.83.83,0,1,1,0,1.65" transform="translate(0 0)"/><path class="cls-5" d="M14.9,26.48H6.62a.83.83,0,1,1,0-1.65H14.9a.83.83,0,1,1,0,1.65" transform="translate(0 0)"/><path class="cls-7" d="M28.14,26.48H18.21a.83.83,0,0,1,0-1.65h9.93a.83.83,0,1,1,0,1.65" transform="translate(0 0)"/><path class="cls-7" d="M15.72,23.17H6.62a.83.83,0,1,1,0-1.65h9.1a.83.83,0,0,1,0,1.65" transform="translate(0 0)"/><path class="cls-5" d="M19.86,29.79H13.24a.83.83,0,0,1,0-1.65h6.62a.83.83,0,0,1,0,1.65" transform="translate(0 0)"/><path class="cls-7" d="M28.14,29.79h-5a.83.83,0,1,1,0-1.65h5a.83.83,0,1,1,0,1.65" transform="translate(0 0)"/><path class="cls-7" d="M9.93,29.79H6.62a.83.83,0,1,1,0-1.65H9.93a.83.83,0,1,1,0,1.65" transform="translate(0 0)"/><path class="cls-8" d="M9.1,42.21a3.31,3.31,0,1,1,3.31-3.31A3.31,3.31,0,0,1,9.1,42.21m0-5a1.66,1.66,0,1,0,1.65,1.66A1.66,1.66,0,0,0,9.1,37.24" transform="translate(0 0)"/><path class="cls-7" d="M25.66,45.52V39.72a.83.83,0,0,1,.83-.83h5.79Z" transform="translate(0 0)"/></g></g></g></svg>