<svg xmlns="http://www.w3.org/2000/svg" xmlns:xlink="http://www.w3.org/1999/xlink" viewBox="0 0 34.76 48" width="28"><defs><style>.cls-1{fill:none;}.cls-2{clip-path:url(#clip-path);}.cls-3{fill:#eff2fa;}.cls-4{fill:#d7deed;}.cls-5{fill:#faa629;}.cls-6{fill:#d37a07;}</style><clipPath id="clip-path"><rect class="cls-1" width="34.76" height="48"/></clipPath></defs><title>Ресурс 1</title><g id="Слой_2" data-name="Слой 2"><g id="Слой_1-2" data-name="Слой 1"><g class="cls-2"><path class="cls-3" d="M27.31,0H1.66A1.66,1.66,0,0,0,0,1.66V46.35A1.66,1.66,0,0,0,1.66,48H33.1a1.66,1.66,0,0,0,1.66-1.65V7.45Z"/><path class="cls-4" d="M34.76,7.45H28.24a.93.93,0,0,1-.93-.93V0Z"/><path class="cls-4" d="M11.59,17.38H5a.83.83,0,0,1-.83-.83V9.93A.83.83,0,0,1,5,9.1h6.62a.83.83,0,0,1,.83.83v6.62a.83.83,0,0,1-.83.83"/><path class="cls-5" d="M7.45,16.55a.83.83,0,0,1-.59-.24L3.55,13a.83.83,0,0,1,1.17-1.17l2.72,2.72,4.38-4.38A.83.83,0,0,1,13,11.34l-5,5a.82.82,0,0,1-.58.24"/><path class="cls-6" d="M25.66,10.76H15.72a.83.83,0,1,1,0-1.65h9.93a.83.83,0,0,1,0,1.65"/><path class="cls-5" d="M17.38,14.07H15.73a.83.83,0,1,1,0-1.65h1.66a.83.83,0,0,1,0,1.65"/><path class="cls-4" d="M29.79,14.07h-9.1a.83.83,0,0,1,0-1.65h9.1a.83.83,0,1,1,0,1.65"/><path class="cls-4" d="M23.17,17.38H15.73a.83.83,0,1,1,0-1.65h7.45a.83.83,0,0,1,0,1.65"/><path class="cls-4" d="M28.14,17.38H26.48a.83.83,0,0,1,0-1.65h1.66a.83.83,0,1,1,0,1.65"/><path class="cls-4" d="M11.59,29.79H5A.83.83,0,0,1,4.14,29V22.34A.83.83,0,0,1,5,21.52h6.62a.83.83,0,0,1,.83.83V29a.83.83,0,0,1-.83.83"/><path class="cls-5" d="M7.45,29a.82.82,0,0,1-.59-.24L3.55,25.41a.83.83,0,0,1,1.17-1.17L7.45,27l4.38-4.38A.83.83,0,0,1,13,23.76l-5,5a.82.82,0,0,1-.58.24"/><path class="cls-6" d="M25.66,23.17H15.72a.83.83,0,1,1,0-1.65h9.93a.83.83,0,0,1,0,1.65"/><path class="cls-5" d="M17.38,26.48H15.73a.83.83,0,1,1,0-1.65h1.66a.83.83,0,0,1,0,1.65"/><path class="cls-4" d="M29.79,26.48h-9.1a.83.83,0,0,1,0-1.65h9.1a.83.83,0,1,1,0,1.65"/><path class="cls-4" d="M23.17,29.79H15.73a.83.83,0,1,1,0-1.65h7.45a.83.83,0,0,1,0,1.65"/><path class="cls-4" d="M28.14,29.79H26.48a.83.83,0,0,1,0-1.65h1.66a.83.83,0,1,1,0,1.65"/><path class="cls-4" d="M11.59,42.21H5a.83.83,0,0,1-.83-.83V34.76A.83.83,0,0,1,5,33.93h6.62a.83.83,0,0,1,.83.83v6.62a.83.83,0,0,1-.83.83"/><path class="cls-5" d="M7.45,41.38a.82.82,0,0,1-.59-.24L3.55,37.83a.83.83,0,0,1,1.17-1.17l2.72,2.73L11.83,35A.83.83,0,0,1,13,36.17l-5,5a.82.82,0,0,1-.58.24"/><path class="cls-6" d="M25.66,35.59H15.72a.83.83,0,1,1,0-1.65h9.93a.83.83,0,0,1,0,1.65"/><path class="cls-5" d="M17.38,38.9H15.73a.83.83,0,1,1,0-1.65h1.66a.83.83,0,0,1,0,1.65"/><path class="cls-4" d="M29.79,38.9h-9.1a.83.83,0,0,1,0-1.65h9.1a.83.83,0,1,1,0,1.65"/><path class="cls-4" d="M23.17,42.21H15.73a.83.83,0,1,1,0-1.65h7.45a.83.83,0,0,1,0,1.65"/><path class="cls-4" d="M28.14,42.21H26.48a.83.83,0,0,1,0-1.65h1.66a.83.83,0,1,1,0,1.65"/></g></g></g></svg>