<svg xmlns="http://www.w3.org/2000/svg" xmlns:xlink="http://www.w3.org/1999/xlink" viewBox="0 0 512 361.93" width="48"><defs><style>.cls-1{fill:none;}.cls-2{clip-path:url(#clip-path);}.cls-3{fill:#eff2fa;}.cls-4{fill:#1e88e5;}.cls-5{fill:#203945;}.cls-6{fill:#1876c4;}.cls-7{fill:#0455a4;}.cls-8{fill:#4c636f;}.cls-9{fill:#707487;}.cls-10{fill:#8f96ac;}</style><clipPath id="clip-path" transform="translate(0 0)"><rect class="cls-1" width="512" height="361.93"/></clipPath></defs><title>Ресурс 1</title><g id="Слой_2" data-name="Слой 2"><g id="Слой_1-2" data-name="Слой 1"><g class="cls-2"><path class="cls-3" d="M397.24,141.24H114.76a8.83,8.83,0,0,1-8.83-8.83V8.83A8.83,8.83,0,0,1,114.76,0H397.24a8.83,8.83,0,0,1,8.83,8.83V132.41a8.83,8.83,0,0,1-8.83,8.83" transform="translate(0 0)"/><path class="cls-4" d="M414.9,158.9H97.1a8.83,8.83,0,0,1-8.83-8.83V26.48a8.83,8.83,0,0,1,8.83-8.83H414.9a8.83,8.83,0,0,1,8.83,8.83V150.07a8.83,8.83,0,0,1-8.83,8.83" transform="translate(0 0)"/><path class="cls-5" d="M509.78,172.55l-39.39-70.91a8.82,8.82,0,0,0-7.72-4.54H49.33a8.83,8.83,0,0,0-7.72,4.54L2.22,172.55A17.64,17.64,0,0,0,0,181.13v39.56H512V181.13a17.64,17.64,0,0,0-2.22-8.57" transform="translate(0 0)"/><path class="cls-6" d="M109.88,27.42,97.1,53h108L192.34,27.42a17.66,17.66,0,0,0-15.79-9.76H125.67a17.65,17.65,0,0,0-15.79,9.76" transform="translate(0 0)"/><path class="cls-3" d="M414.9,176.55H97.1a8.83,8.83,0,0,1-8.83-8.83V44.14a8.83,8.83,0,0,1,8.83-8.83H414.9a8.83,8.83,0,0,1,8.83,8.83V167.72a8.83,8.83,0,0,1-8.83,8.83" transform="translate(0 0)"/><path class="cls-6" d="M432.55,194.21H79.45a8.83,8.83,0,0,1-8.83-8.83V61.79A8.83,8.83,0,0,1,79.45,53h353.1a8.83,8.83,0,0,1,8.83,8.83V185.38a8.83,8.83,0,0,1-8.83,8.83" transform="translate(0 0)"/><path class="cls-7" d="M92.22,62.73,79.45,88.28H211.86L199.09,62.73A17.65,17.65,0,0,0,183.29,53H108a17.66,17.66,0,0,0-15.79,9.76" transform="translate(0 0)"/><path class="cls-3" d="M432.55,211.86H79.45A8.83,8.83,0,0,1,70.62,203V79.45a8.83,8.83,0,0,1,8.83-8.83h353.1a8.83,8.83,0,0,1,8.83,8.83V203a8.83,8.83,0,0,1-8.83,8.83" transform="translate(0 0)"/><path class="cls-7" d="M450.21,229.52H61.79A8.83,8.83,0,0,1,53,220.69V97.1a8.83,8.83,0,0,1,8.83-8.83H450.21A8.83,8.83,0,0,1,459,97.1V220.69a8.83,8.83,0,0,1-8.83,8.83" transform="translate(0 0)"/><path class="cls-8" d="M503.17,176.55H358.56a8.83,8.83,0,0,0-7.89,4.88L340.33,202.1a17.66,17.66,0,0,1-15.79,9.76H187.46a17.66,17.66,0,0,1-15.79-9.76l-10.33-20.67a8.83,8.83,0,0,0-7.9-4.88H8.83A8.83,8.83,0,0,0,0,185.38V353.1a8.83,8.83,0,0,0,8.83,8.83H503.17A8.83,8.83,0,0,0,512,353.1V185.38a8.83,8.83,0,0,0-8.83-8.83" transform="translate(0 0)"/><path class="cls-3" d="M326.62,158.9H432.55a8.83,8.83,0,0,0,8.83-8.83V114.76a8.83,8.83,0,0,0-8.83-8.83H326.62a8.83,8.83,0,0,0-8.83,8.83v35.31a8.83,8.83,0,0,0,8.83,8.83" transform="translate(0 0)"/><path class="cls-9" d="M379.59,123.59H344.28a8.83,8.83,0,1,0,0,17.66h35.31a8.83,8.83,0,1,0,0-17.66" transform="translate(0 0)"/><path class="cls-10" d="M414.9,123.59h-8.83a8.83,8.83,0,1,0,0,17.66h8.83a8.83,8.83,0,1,0,0-17.66" transform="translate(0 0)"/></g></g></g></svg>