<svg xmlns="http://www.w3.org/2000/svg" xmlns:xlink="http://www.w3.org/1999/xlink" viewBox="0 0 327.68 403.3" width="28"><defs><style>.cls-1{fill:none;}.cls-2{clip-path:url(#clip-path);}.cls-3{fill:#4c636f;}.cls-4{fill:#8497a0;}.cls-5{fill:#1876c4;}.cls-6{fill:#0455a4;}.cls-7{fill:#f9f9f9;}</style><clipPath id="clip-path" transform="translate(0 -0.62)"><rect class="cls-1" width="327.84" height="404.88"/></clipPath></defs><title>Ресурс 1</title><g id="Слой_2" data-name="Слой 2"><g id="Слой_1-2" data-name="Слой 1"><g class="cls-2"><path class="cls-3" d="M327.68,63.64c.32,0-159.74-61.44-163.84-63C160.69,1.88-.31,63.64,0,63.64V179.59c0,80.34,23,185.27,163.84,224.33C304.36,364.85,327.37,258,327.37,179.59c.31-39.7.31-115.95.31-115.95" transform="translate(0 -0.62)"/><path class="cls-4" d="M0,179.59c0,80.34,23,185.27,163.84,224.33V.62C157.86,2.83,0,63.64,0,63.64Z" transform="translate(0 -0.62)"/><path class="cls-5" d="M295.86,85.38c.32,0-128.86-52-132.33-53.25-2.84.95-132.64,51-132.33,50.73v97.36c0,67.43,13.23,159.43,132.33,192.2,118.79-32.77,132.33-126.34,132.33-192.2.32-33.4.32-94.84,0-94.84" transform="translate(0 -0.62)"/><path class="cls-6" d="M163.84,32.13c-2.84.95-132.65,51-132.33,50.73v97.36c0,67.43,13.23,159.43,132.33,192.2Z" transform="translate(0 -0.62)"/><path class="cls-7" d="M226.23,171.4a9,9,0,0,0-7.25-6l-32.77-4.73-14.18-29a9.18,9.18,0,0,0-16.38,0l-14.18,29-32.76,4.73a9,9,0,0,0-7.25,6,8.35,8.35,0,0,0,2.2,8.82l23.94,23.63-5.67,32.77a8.54,8.54,0,0,0,3.78,8.51,10.64,10.64,0,0,0,5.36,1.57,10,10,0,0,0,4.41-.95l28.67-15.12,28.67,15.13a10,10,0,0,0,4.41.95,10.61,10.61,0,0,0,5.36-1.57,8.53,8.53,0,0,0,3.78-8.51l-5.67-32.77,23.94-23.63c1.89-2.52,2.84-5.67,1.58-8.82" transform="translate(0 -0.62)"/></g></g></g></svg>