<svg xmlns="http://www.w3.org/2000/svg" xmlns:xlink="http://www.w3.org/1999/xlink" viewBox="0 0 370.76 512" width="28"><defs><style>.cls-1{fill:none;}.cls-2{clip-path:url(#clip-path);}.cls-3{fill:#4c636f;}.cls-4{fill:#eff2fa;}.cls-5{fill:#c7cfe2;}.cls-6{fill:#afb9d2;}.cls-7{fill:#0455a4;}.cls-8{opacity:0.97;}.cls-9{clip-path:url(#clip-path-3);}.cls-10{fill:#203945;}.cls-11{clip-path:url(#clip-path-4);}.cls-12{fill:#8497a0;}.cls-13{clip-path:url(#clip-path-5);}.cls-14{clip-path:url(#clip-path-6);}.cls-15{clip-path:url(#clip-path-7);}.cls-16{clip-path:url(#clip-path-8);}</style><clipPath id="clip-path"><rect class="cls-1" width="370.76" height="512"/></clipPath><clipPath id="clip-path-3"><rect class="cls-1" x="167.72" y="150.07" width="88.28" height="17.65"/></clipPath><clipPath id="clip-path-4"><rect class="cls-1" x="167.72" y="185.38" width="132.41" height="17.65"/></clipPath><clipPath id="clip-path-5"><rect class="cls-1" x="167.72" y="361.93" width="88.28" height="17.65"/></clipPath><clipPath id="clip-path-6"><rect class="cls-1" x="167.72" y="397.24" width="132.41" height="17.66"/></clipPath><clipPath id="clip-path-7"><rect class="cls-1" x="167.72" y="256" width="88.28" height="17.65"/></clipPath><clipPath id="clip-path-8"><rect class="cls-1" x="167.72" y="291.31" width="132.41" height="17.66"/></clipPath></defs><title>Ресурс 1</title><g id="Слой_2" data-name="Слой 2"><g id="Слой_1-2" data-name="Слой 1"><g class="cls-2"><g class="cls-2"><path class="cls-3" d="M335.45,512H35.31A35.31,35.31,0,0,1,0,476.69V70.62A35.31,35.31,0,0,1,35.31,35.31H335.45a35.31,35.31,0,0,1,35.31,35.31V476.69A35.31,35.31,0,0,1,335.45,512"/><path class="cls-4" d="M335.45,485.52H35.31a8.83,8.83,0,0,1-8.83-8.83V70.62a8.83,8.83,0,0,1,8.83-8.83H335.45a8.83,8.83,0,0,1,8.83,8.83V476.69a8.83,8.83,0,0,1-8.83,8.83"/><path class="cls-5" d="M238.34,35.31H211.86V26.48a26.48,26.48,0,1,0-53,0v8.83H132.41A17.65,17.65,0,0,0,114.76,53V70.62H256V53a17.65,17.65,0,0,0-17.65-17.66m-53,0a8.83,8.83,0,1,1,8.83-8.83,8.83,8.83,0,0,1-8.83,8.83"/><path class="cls-6" d="M256,79.45H114.76a8.83,8.83,0,0,1,0-17.65H256a8.83,8.83,0,1,1,0,17.65"/><path class="cls-7" d="M97.1,203a8.79,8.79,0,0,1-6.24-2.59L64.38,174a8.83,8.83,0,0,1,12.48-12.48L97.1,181.72l37.9-37.9a8.83,8.83,0,0,1,12.48,12.48l-44.14,44.14A8.8,8.8,0,0,1,97.1,203"/><g class="cls-8"><g class="cls-9"><path class="cls-10" d="M247.17,167.73H176.55a8.83,8.83,0,0,1,0-17.65h70.62a8.83,8.83,0,0,1,0,17.65"/></g></g><g class="cls-8"><g class="cls-11"><path class="cls-12" d="M291.31,203H176.55a8.83,8.83,0,0,1,0-17.65H291.31a8.83,8.83,0,1,1,0,17.65"/></g></g><path class="cls-7" d="M97.1,414.9a8.79,8.79,0,0,1-6.24-2.59L64.38,385.83a8.83,8.83,0,1,1,12.48-12.48L97.1,393.59l37.9-37.9a8.83,8.83,0,0,1,12.48,12.48l-44.14,44.14a8.8,8.8,0,0,1-6.24,2.59"/><g class="cls-8"><g class="cls-13"><path class="cls-10" d="M247.17,379.59H176.55a8.83,8.83,0,0,1,0-17.65h70.62a8.83,8.83,0,0,1,0,17.65"/></g></g><g class="cls-8"><g class="cls-14"><path class="cls-12" d="M291.31,414.9H176.55a8.83,8.83,0,0,1,0-17.65H291.31a8.83,8.83,0,1,1,0,17.65"/></g></g><path class="cls-7" d="M97.1,309a8.79,8.79,0,0,1-6.24-2.59L64.38,279.9a8.83,8.83,0,1,1,12.48-12.48L97.1,287.65l37.9-37.9a8.83,8.83,0,1,1,12.48,12.48l-44.14,44.14A8.8,8.8,0,0,1,97.1,309"/><g class="cls-8"><g class="cls-15"><path class="cls-10" d="M247.17,273.66H176.55a8.83,8.83,0,0,1,0-17.65h70.62a8.83,8.83,0,0,1,0,17.65"/></g></g><g class="cls-8"><g class="cls-16"><path class="cls-12" d="M291.31,309H176.55a8.83,8.83,0,0,1,0-17.65H291.31a8.83,8.83,0,1,1,0,17.65"/></g></g></g></g></g></g></svg>