<svg xmlns="http://www.w3.org/2000/svg" xmlns:xlink="http://www.w3.org/1999/xlink" viewBox="0 0 36 34.04" width="28"><defs><style>.cls-1{fill:none;}.cls-2{clip-path:url(#clip-path);}.cls-3{fill:#c7cfe2;}.cls-4{fill:#eff2fa;}.cls-5{fill:#faa629;}.cls-6{fill:#fff;}</style><clipPath id="clip-path" transform="translate(0 0)"><rect class="cls-1" width="36" height="34.04"/></clipPath></defs><title>Ресурс 1</title><g id="Слой_2" data-name="Слой 2"><g id="Слой_1-2" data-name="Слой 1"><g class="cls-2"><path class="cls-3" d="M35.71,1.05v8.3l-29-.17V26.41a.75.75,0,0,1-.75.75h-3A1.05,1.05,0,0,1,2,26.11V1.05A1.05,1.05,0,0,1,3.05,0H34.66a1.05,1.05,0,0,1,1.05,1.05" transform="translate(0 0)"/><path class="cls-4" d="M33.71,3.05v4.7H24.56A2.69,2.69,0,0,0,21.87,9.8a1.71,1.71,0,0,1-1.68,1.38H7.53a2.77,2.77,0,0,0-2.77,2.77V28.41a.75.75,0,0,1-.75.75h-3A1.05,1.05,0,0,1,0,28.11V3.05A1.05,1.05,0,0,1,1.05,2H32.66a1.05,1.05,0,0,1,1.05,1.05" transform="translate(0 0)"/><path class="cls-5" d="M36,14.23v18.1A1.72,1.72,0,0,1,34.29,34H6.48a1.71,1.71,0,0,1-1.71-1.71V12.89a1.71,1.71,0,0,1,1.71-1.71H20.19A1.71,1.71,0,0,0,21.9,9.46a1.71,1.71,0,0,1,1.71-1.71H34.29A1.71,1.71,0,0,1,36,9.46Z" transform="translate(0 0)"/><path class="cls-6" d="M9.14,15H17.9a1,1,0,0,1,0,1.91H9.14a1,1,0,0,1,0-1.91" transform="translate(0 0)"/><path class="cls-6" d="M9.14,18.23H17.9a1,1,0,0,1,0,1.91H9.14a1,1,0,0,1,0-1.91" transform="translate(0 0)"/></g></g></g></svg>