<svg xmlns="http://www.w3.org/2000/svg" xmlns:xlink="http://www.w3.org/1999/xlink" viewBox="0 0 128 135.81" width="160"><defs><style>.cls-1{fill:none;}.cls-2{isolation:isolate;}.cls-3{clip-path:url(#clip-path);}.cls-4{opacity:0.6;mix-blend-mode:multiply;}.cls-5{clip-path:url(#clip-path-3);}.cls-6{fill:#faa629;}.cls-7{opacity:0.15;}.cls-8{clip-path:url(#clip-path-4);}.cls-9{fill:#1876c4;}.cls-10{opacity:0.2;}.cls-11{clip-path:url(#clip-path-5);}.cls-12{opacity:0.1;}.cls-13{clip-path:url(#clip-path-6);}.cls-14{fill:#4c636f;}.cls-15{fill:#e2e8f7;}.cls-16{fill:#afb9d2;}.cls-17{fill:#eff2fa;}.cls-18{fill:#c7cfe2;}.cls-19{fill:#fff;}.cls-20{fill:#d7deed;}.cls-21{fill:#82889d;}.cls-22{fill:#8497a0;}</style><clipPath id="clip-path" transform="translate(0)"><rect class="cls-1" width="128" height="135.8"/></clipPath><clipPath id="clip-path-3" transform="translate(0)"><rect class="cls-1" y="3.61" width="128" height="128"/></clipPath><clipPath id="clip-path-4" transform="translate(0)"><rect class="cls-1" x="107.17" y="24.48" width="20.83" height="20.83"/></clipPath><clipPath id="clip-path-5" transform="translate(0)"><rect class="cls-1" x="5.61" y="97.26" width="25.99" height="25.99"/></clipPath><clipPath id="clip-path-6" transform="translate(0)"><rect class="cls-1" x="83.45" y="106.44" width="29.37" height="29.37"/></clipPath></defs><title>Ресурс 1</title><g class="cls-2"><g id="Слой_2" data-name="Слой 2"><g id="Слой_1-2" data-name="Слой 1"><g class="cls-3"><g class="cls-3"><g class="cls-4"><g class="cls-5"><path class="cls-6" d="M61.45,4.67,1.06,65.06a3.61,3.61,0,0,0,0,5.11l60.39,60.39a3.61,3.61,0,0,0,5.1,0l60.39-60.39a3.61,3.61,0,0,0,0-5.11L66.55,4.67a3.61,3.61,0,0,0-5.1,0" transform="translate(0)"/></g></g><g class="cls-7"><g class="cls-8"><path class="cls-9" d="M117.17,24.65l-9.83,9.83a.59.59,0,0,0,0,.83l9.83,9.83a.59.59,0,0,0,.83,0l9.83-9.83a.59.59,0,0,0,0-.83L118,24.65a.59.59,0,0,0-.83,0" transform="translate(0)"/></g></g><g class="cls-10"><g class="cls-11"><path class="cls-9" d="M18.08,97.47,5.82,109.73a.73.73,0,0,0,0,1L18.08,123a.73.73,0,0,0,1,0l12.26-12.26a.73.73,0,0,0,0-1L19.12,97.47a.73.73,0,0,0-1,0" transform="translate(0)"/></g></g><g class="cls-12"><g class="cls-13"><path class="cls-9" d="M97.55,106.68,83.69,120.53a.83.83,0,0,0,0,1.17l13.86,13.86a.83.83,0,0,0,1.17,0l13.86-13.86a.83.83,0,0,0,0-1.17L98.72,106.68a.83.83,0,0,0-1.17,0" transform="translate(0)"/></g></g><path class="cls-14" d="M98.13,40.48H43.83V38a3.13,3.13,0,0,0-3.12-3.13h-18A3.14,3.14,0,0,0,19.63,38v2.46h-.94A4.7,4.7,0,0,0,14,45.17V95.48a4.71,4.71,0,0,0,4.69,4.69H98.13a4.71,4.71,0,0,0,4.69-4.69V45.17a4.7,4.7,0,0,0-4.69-4.69" transform="translate(0)"/><path class="cls-15" d="M90.81,0H43.09A1.49,1.49,0,0,0,41.6,1.49V85a1.49,1.49,0,0,0,1.49,1.49h59.65A1.49,1.49,0,0,0,104.23,85V13.42Z" transform="translate(0)"/><path class="cls-16" d="M104.23,13.42H92.3a1.49,1.49,0,0,1-1.49-1.49V0Z" transform="translate(0)"/><path class="cls-17" d="M83.81,7H36.09A1.49,1.49,0,0,0,34.6,8.49V92a1.49,1.49,0,0,0,1.49,1.49H95.74A1.49,1.49,0,0,0,97.23,92V20.42Z" transform="translate(0)"/><path class="cls-18" d="M97.23,20.42H85.3a1.49,1.49,0,0,1-1.49-1.49V7Z" transform="translate(0)"/><path class="cls-19" d="M77.26,13.54H29.54A1.49,1.49,0,0,0,28.05,15V98.55A1.49,1.49,0,0,0,29.54,100H89.19a1.49,1.49,0,0,0,1.49-1.49V27Z" transform="translate(0)"/><path class="cls-20" d="M90.68,27H78.75a1.49,1.49,0,0,1-1.49-1.49V13.54Z" transform="translate(0)"/><path class="cls-20" d="M43,61.26H37a1.49,1.49,0,0,1-1.49-1.49v-6A1.49,1.49,0,0,1,37,52.32h6a1.49,1.49,0,0,1,1.49,1.49v6A1.49,1.49,0,0,1,43,61.26" transform="translate(0)"/><path class="cls-16" d="M65.33,55.3H51.91a1.49,1.49,0,1,1,0-3H65.33a1.49,1.49,0,0,1,0,3" transform="translate(0)"/><path class="cls-18" d="M71.3,61.26H51.91a1.49,1.49,0,1,1,0-3H71.3a1.49,1.49,0,0,1,0,3" transform="translate(0)"/><path class="cls-20" d="M43,47.84H37a1.49,1.49,0,0,1-1.49-1.49v-6A1.49,1.49,0,0,1,37,38.9h6a1.49,1.49,0,0,1,1.49,1.49v6A1.49,1.49,0,0,1,43,47.84" transform="translate(0)"/><path class="cls-16" d="M71.3,41.88H51.91a1.49,1.49,0,0,1,0-3H71.3a1.49,1.49,0,0,1,0,3" transform="translate(0)"/><path class="cls-20" d="M43,34.42H37a1.49,1.49,0,0,1-1.49-1.49V27A1.49,1.49,0,0,1,37,25.47h6A1.49,1.49,0,0,1,44.46,27v6A1.49,1.49,0,0,1,43,34.42" transform="translate(0)"/><path class="cls-16" d="M65.33,28.46H51.91a1.49,1.49,0,1,1,0-3H65.33a1.49,1.49,0,0,1,0,3" transform="translate(0)"/><path class="cls-18" d="M71.3,34.42H51.91a1.49,1.49,0,0,1,0-3H71.3a1.49,1.49,0,0,1,0,3" transform="translate(0)"/><path class="cls-20" d="M43,88.11H37a1.49,1.49,0,0,1-1.49-1.49v-6A1.49,1.49,0,0,1,37,79.16h6a1.49,1.49,0,0,1,1.49,1.49v6A1.49,1.49,0,0,1,43,88.11" transform="translate(0)"/><path class="cls-16" d="M65.33,82.14H51.91a1.49,1.49,0,1,1,0-3H65.33a1.49,1.49,0,0,1,0,3" transform="translate(0)"/><path class="cls-18" d="M71.3,88.11H51.91a1.49,1.49,0,1,1,0-3H71.3a1.49,1.49,0,0,1,0,3" transform="translate(0)"/><path class="cls-20" d="M43,74.69H37a1.49,1.49,0,0,1-1.49-1.49v-6A1.49,1.49,0,0,1,37,65.74h6a1.49,1.49,0,0,1,1.49,1.49v6A1.49,1.49,0,0,1,43,74.69" transform="translate(0)"/><path class="cls-16" d="M71.3,68.72H51.91a1.49,1.49,0,1,1,0-3H71.3a1.49,1.49,0,0,1,0,3" transform="translate(0)"/><path class="cls-18" d="M83.23,47.84H51.91a1.49,1.49,0,1,1,0-3H83.23a1.49,1.49,0,0,1,0,3" transform="translate(0)"/><path class="cls-18" d="M83.23,74.69H51.91a1.49,1.49,0,1,1,0-3H83.23a1.49,1.49,0,1,1,0,3" transform="translate(0)"/><path class="cls-6" d="M38.49,32.93a1.49,1.49,0,0,1-1.05-.44l-3-3a1.49,1.49,0,0,1,2.11-2.11l1.93,1.93,4.91-4.91a1.49,1.49,0,0,1,2.11,2.11l-6,6a1.49,1.49,0,0,1-1.05.44" transform="translate(0)"/><path class="cls-21" d="M38.49,59.77a1.49,1.49,0,0,1-1.05-.44l-3-3a1.49,1.49,0,0,1,2.11-2.11l1.93,1.93,4.91-4.91a1.49,1.49,0,0,1,2.11,2.11l-6,6a1.49,1.49,0,0,1-1.05.44" transform="translate(0)"/><path class="cls-21" d="M38.49,73.19a1.49,1.49,0,0,1-1.05-.44l-3-3a1.49,1.49,0,0,1,2.11-2.11l1.93,1.93,4.91-4.91a1.49,1.49,0,0,1,2.11,2.11l-6,6a1.49,1.49,0,0,1-1.05.44" transform="translate(0)"/><path class="cls-22" d="M103.93,95.61a6.3,6.3,0,0,1-5.81,4.56H18.69a3.51,3.51,0,0,1-3.57-4.56l10-40.6a6.3,6.3,0,0,1,5.81-4.55h79.44A3.51,3.51,0,0,1,113.89,55Z" transform="translate(0)"/></g></g></g></g></g></svg>