<svg xmlns="http://www.w3.org/2000/svg" xmlns:xlink="http://www.w3.org/1999/xlink" viewBox="0 0 194.91 194.91"><defs><style>.cls-1{fill:none;}.cls-2{isolation:isolate;}.cls-3{clip-path:url(#clip-path);}.cls-4{opacity:0.6;mix-blend-mode:multiply;}.cls-5{clip-path:url(#clip-path-3);}.cls-6{fill:#1876c4;}.cls-7{opacity:0.2;}.cls-8{clip-path:url(#clip-path-4);}.cls-9{fill:#a4a9ad;}.cls-10{fill:#c3c6c8;}.cls-11{fill:#4c636f;}.cls-12{fill:#90caf9;}.cls-13{fill:#b3b8ba;}.cls-14{fill:#203945;}.cls-15{opacity:0.1;}.cls-16{clip-path:url(#clip-path-5);}.cls-17{fill:#b0bec5;}.cls-18{fill:#cfd8dc;}.cls-19{fill:#faa629;}.cls-20{fill:#fff;}.cls-21{fill:#333e48;}.cls-22{fill:#eceff1;}.cls-23{fill:#0455a4;}.cls-24{fill:#049681;}.cls-25{fill:#ff6469;}.cls-26{fill:#8497a0;}.cls-27{fill:#dee3ed;}.cls-28{fill:#0e1a1e;}.cls-29{opacity:0.3;mix-blend-mode:overlay;}.cls-30{clip-path:url(#clip-path-6);}.cls-31{clip-path:url(#clip-path-7);}.cls-32{fill:url(#Безымянный_градиент);}</style><clipPath id="clip-path"><rect class="cls-1" x="33.46" y="36.75" width="128" height="132.19"/></clipPath><clipPath id="clip-path-3"><rect class="cls-1" x="33.46" y="36.75" width="128" height="128"/></clipPath><clipPath id="clip-path-4"><rect class="cls-1" x="39.06" y="130.4" width="25.99" height="25.99"/></clipPath><clipPath id="clip-path-5"><rect class="cls-1" x="116.91" y="139.58" width="29.37" height="29.37"/></clipPath><clipPath id="clip-path-6"><rect class="cls-1" x="47.46" y="50" width="100" height="94.91"/></clipPath><clipPath id="clip-path-7"><path class="cls-1" d="M142.86,56.59h-1.53V50H75.94v6.59H52.06c-2.53,0-4.6,3.3-4.6,5.83v58.27a4.61,4.61,0,0,0,4.6,4.6H81.93l-5.44,16.34h0a2.47,2.47,0,0,0,2.33,3.29h30.45a1.52,1.52,0,0,0,0-3h-7.51l5.52-16.59h35.58a4.61,4.61,0,0,0,4.6-4.6V61.19a4.61,4.61,0,0,0-4.6-4.6M79.68,141.87l5.52-16.59h0Z"/></clipPath><linearGradient id="Безымянный_градиент" x1="33.46" y1="168.91" x2="34.46" y2="168.91" gradientTransform="matrix(117.7, 0, 0, -117.7, -3893.3, 19976.95)" gradientUnits="userSpaceOnUse"><stop offset="0" stop-color="#fff"/><stop offset="0.04" stop-color="#eceeef"/><stop offset="0.18" stop-color="#b7bfc3"/><stop offset="0.32" stop-color="#88969c"/><stop offset="0.46" stop-color="#63747d"/><stop offset="0.6" stop-color="#465a64"/><stop offset="0.74" stop-color="#314853"/><stop offset="0.87" stop-color="#243d48"/><stop offset="1" stop-color="#203945"/></linearGradient></defs><title>Ресурс 2</title><g class="cls-2"><g id="Слой_2" data-name="Слой 2"><g id="Слой_1-2" data-name="Слой 1"><g class="cls-3"><g class="cls-3"><g class="cls-4"><g class="cls-5"><path class="cls-6" d="M94.9,37.81,34.51,98.2a3.61,3.61,0,0,0,0,5.11L94.9,163.69a3.61,3.61,0,0,0,5.1,0L160.4,103.3a3.61,3.61,0,0,0,0-5.11L100,37.81a3.61,3.61,0,0,0-5.1,0"/></g></g><g class="cls-7"><g class="cls-8"><path class="cls-6" d="M51.54,130.61,39.28,142.87a.73.73,0,0,0,0,1l12.26,12.26a.73.73,0,0,0,1,0l12.26-12.26a.73.73,0,0,0,0-1L52.58,130.61a.73.73,0,0,0-1,0"/></g></g><path class="cls-9" d="M52.06,125.28a4.61,4.61,0,0,1-4.6-4.6V62.41c0-2.53,2.07-5.83,4.6-5.83h87.1a4.61,4.61,0,0,1,4.6,4.6v59.5a4.61,4.61,0,0,1-4.6,4.6Z"/><rect class="cls-10" x="51.16" y="56.59" width="96.3" height="68.7" rx="4.6" ry="4.6"/><path class="cls-11" d="M55.76,56.59h87.1a4.61,4.61,0,0,1,4.6,4.6v55.74H51.16V61.19a4.61,4.61,0,0,1,4.6-4.6"/><rect class="cls-12" x="57.29" y="62.72" width="84.03" height="48.07"/><polygon class="cls-13" points="101.76 141.87 79.68 141.87 85.2 125.28 107.28 125.28 101.76 141.87"/><path class="cls-10" d="M109.27,141.87a1.52,1.52,0,0,1,0,3H87.35v-3Z"/><path class="cls-9" d="M78.82,144.91a2.48,2.48,0,0,1-2.33-3.29h0l5.44-16.34H85.2l-5.52,16.58h7.67a1.52,1.52,0,0,1,0,3H78.82Z"/><path class="cls-14" d="M101.61,121.19a2.3,2.3,0,1,1-2.3-2.3,2.3,2.3,0,0,1,2.3,2.3"/><g class="cls-15"><g class="cls-16"><path class="cls-6" d="M131,139.82l-13.86,13.85a.83.83,0,0,0,0,1.17L131,168.7a.83.83,0,0,0,1.17,0L146,154.84a.83.83,0,0,0,0-1.17l-13.86-13.85a.83.83,0,0,0-1.17,0"/></g></g><rect class="cls-17" x="75.94" y="50" width="65.39" height="42.78"/><rect class="cls-18" x="75.94" y="50" width="65.39" height="6.61"/><path class="cls-6" d="M83.45,53.31a1.72,1.72,0,1,1-1.73-1.72,1.72,1.72,0,0,1,1.73,1.72"/><path class="cls-19" d="M88.86,53.31a1.72,1.72,0,1,1-1.73-1.72,1.72,1.72,0,0,1,1.73,1.72"/><path class="cls-20" d="M94.28,53.31a1.72,1.72,0,1,1-1.72-1.72,1.72,1.72,0,0,1,1.72,1.72"/><path class="cls-21" d="M122.1,84.09l-2.19-1.76a3,3,0,0,0,.33-1.37,3,3,0,1,0-1.1,2.33l2.19,1.76a.61.61,0,0,0,.39.14.61.61,0,0,0,.38-1.1m-4.88-1.35A1.79,1.79,0,1,1,119,81a1.79,1.79,0,0,1-1.78,1.78"/><rect class="cls-21" x="82.85" y="76.71" width="0.92" height="9.72"/><rect class="cls-22" x="57.29" y="68.38" width="65.39" height="42.08"/><rect class="cls-23" x="57.29" y="67.68" width="65.39" height="6.61"/><path class="cls-19" d="M64.8,71a1.72,1.72,0,1,1-1.72-1.72A1.72,1.72,0,0,1,64.8,71"/><path class="cls-20" d="M70.22,71a1.72,1.72,0,1,1-1.73-1.72A1.72,1.72,0,0,1,70.22,71"/><path class="cls-24" d="M75.64,71a1.72,1.72,0,1,1-1.73-1.72A1.72,1.72,0,0,1,75.64,71"/><path class="cls-20" d="M89.53,108.37h22.78a.88.88,0,0,0,.88-.88V82.08H89.53Zm13.14-21.91v-.88a.88.88,0,0,1,.88-.88h6.13a.88.88,0,0,1,.88.88v7.89a.88.88,0,0,1-.88.88h-6.13a.88.88,0,0,1-.88-.88Zm-10.51,0v-.88a.88.88,0,0,1,.88-.88h6.13a.88.88,0,0,1,.88.88v7.89a.88.88,0,0,1-.88.88H93a.88.88,0,0,1-.88-.88v-7ZM93,97h16.65a.88.88,0,0,1,.88.88v7a.88.88,0,0,1-.88.88H93a.88.88,0,0,1-.88-.88v-7A.88.88,0,0,1,93,97"/><path class="cls-17" d="M112.31,76.82H89.53v5.26h23.66V77.7a.88.88,0,0,0-.88-.88"/><path class="cls-25" d="M95.66,80.33h-3.5a.88.88,0,1,1,0-1.75h3.5a.88.88,0,0,1,0,1.75"/><path class="cls-25" d="M102.67,80.33H99.17a.88.88,0,0,1,0-1.75h3.51a.88.88,0,0,1,0,1.75"/><path class="cls-25" d="M109.68,80.33h-3.51a.88.88,0,0,1,0-1.75h3.51a.88.88,0,0,1,0,1.75"/><path class="cls-26" d="M95.66,78.57h-3.5a.88.88,0,1,0,0,1.75h3.5a.88.88,0,0,0,0-1.75"/><path class="cls-26" d="M102.67,78.57H99.17a.88.88,0,0,0,0,1.75h3.51a.88.88,0,0,0,0-1.75"/><path class="cls-26" d="M109.68,78.57h-3.51a.88.88,0,0,0,0,1.75h3.51a.88.88,0,0,0,0-1.75"/><path class="cls-27" d="M93,94.35h6.13a.88.88,0,0,0,.88-.88v-7a.88.88,0,0,1-.88.88H93a.88.88,0,0,1-.88-.88v7a.88.88,0,0,0,.88.88"/><path class="cls-27" d="M103.55,94.35h6.13a.88.88,0,0,0,.88-.88v-7a.88.88,0,0,1-.88.88h-6.13a.88.88,0,0,1-.88-.88v7a.88.88,0,0,0,.88.88"/><path class="cls-26" d="M93,87.34h6.13a.88.88,0,0,0,.88-.88v-.88a.88.88,0,0,0-.88-.88H93a.88.88,0,0,0-.88.88v.88a.88.88,0,0,0,.88.88"/><path class="cls-26" d="M103.55,87.34h6.13a.88.88,0,0,0,.88-.88v-.88a.88.88,0,0,0-.88-.88h-6.13a.88.88,0,0,0-.88.88v.88a.88.88,0,0,0,.88.88"/><path class="cls-27" d="M94.79,97.85v7a.88.88,0,0,1-.88.88h15.77a.88.88,0,0,0,.88-.88v-7a.88.88,0,0,0-.88-.88H93.91a.88.88,0,0,1,.88.88"/><path class="cls-14" d="M93,105.74h.88a.88.88,0,0,0,.88-.88v-7a.88.88,0,0,0-.88-.88H93a.88.88,0,0,0-.88.88v7a.88.88,0,0,0,.88.88"/><path class="cls-11" d="M89.53,76.82H66.74a.88.88,0,0,0-.88.88v29.79a.88.88,0,0,0,.88.88H89.53ZM72.88,79.45h14a.88.88,0,0,1,0,1.75h-14a.88.88,0,0,1,0-1.75m-4.38,0h.88a.88.88,0,0,1,0,1.75H68.5a.88.88,0,1,1,0-1.75m8.76,5.26H74.63a.88.88,0,1,1,0-1.75h2.63a.88.88,0,1,1,0,1.75m.88,2.63a.88.88,0,0,1-.88.88H74.63a.88.88,0,0,1,0-1.75h2.63a.88.88,0,0,1,.88.88M68.5,93.47h.88a.88.88,0,0,1,0,1.75H68.5a.88.88,0,1,1,0-1.75m-.88-2.63A.88.88,0,0,1,68.5,90h.88a.88.88,0,0,1,0,1.75H68.5a.88.88,0,0,1-.88-.88M70.25,97h.88a.88.88,0,0,1,0,1.75h-.88a.88.88,0,0,1,0-1.75m.88-8.76h-.88a.88.88,0,0,1,0-1.75h.88a.88.88,0,0,1,0,1.75m0-3.51h-.88a.88.88,0,0,1,0-1.75h.88a.88.88,0,1,1,0,1.75m-1.75,21H68.5a.88.88,0,1,1,0-1.75h.88a.88.88,0,0,1,0,1.75m1.75-3.51h-.88a.88.88,0,1,1,0-1.75h.88a.88.88,0,1,1,0,1.75m15.77,3.51h-14a.88.88,0,0,1,0-1.75h14a.88.88,0,0,1,0,1.75m-12.27-5.26h2.63a.88.88,0,0,1,0,1.75H74.63a.88.88,0,1,1,0-1.75m-.88-2.63a.88.88,0,0,1,.88-.88h2.63a.88.88,0,0,1,0,1.75H74.63a.88.88,0,0,1-.88-.88m13.14,4.38H80.77a.88.88,0,1,1,0-1.75H86.9a.88.88,0,1,1,0,1.75m0-3.5H80.77a.88.88,0,1,1,0-1.75H86.9a.88.88,0,0,1,0,1.75m0-3.5h-14a.88.88,0,0,1,0-1.75h14a.88.88,0,0,1,0,1.75m0-3.51h-14a.88.88,0,0,1,0-1.75h14a.88.88,0,0,1,0,1.75m0-3.51H80.77a.88.88,0,1,1,0-1.75H86.9a.88.88,0,0,1,0,1.75m0-3.51H80.77a.88.88,0,1,1,0-1.75H86.9a.88.88,0,1,1,0,1.75"/><path class="cls-28" d="M72.88,81.2h14a.88.88,0,1,0,0-1.75h-14a.88.88,0,1,0,0,1.75"/><path class="cls-26" d="M77.26,83H74.63a.88.88,0,1,0,0,1.75h2.63a.88.88,0,0,0,0-1.75"/><path class="cls-26" d="M77.26,86.46H74.63a.88.88,0,1,0,0,1.75h2.63a.88.88,0,0,0,0-1.75"/><path class="cls-28" d="M86.9,90h-14a.88.88,0,0,0,0,1.75h14a.88.88,0,0,0,0-1.75"/><path class="cls-22" d="M86.9,93.47h-14a.88.88,0,0,0,0,1.75h14a.88.88,0,0,0,0-1.75"/><path class="cls-22" d="M86.9,83H80.77a.88.88,0,1,0,0,1.75H86.9a.88.88,0,0,0,0-1.75"/><path class="cls-22" d="M86.9,86.46H80.77a.88.88,0,1,0,0,1.75H86.9a.88.88,0,0,0,0-1.75"/><path class="cls-22" d="M86.9,97H80.77a.88.88,0,1,0,0,1.75H86.9a.88.88,0,0,0,0-1.75"/><path class="cls-22" d="M86.9,100.48H80.77a.88.88,0,1,0,0,1.75H86.9a.88.88,0,0,0,0-1.75"/><path class="cls-26" d="M74.63,98.73h2.63a.88.88,0,0,0,0-1.75H74.63a.88.88,0,0,0,0,1.75"/><path class="cls-26" d="M74.63,102.23h2.63a.88.88,0,0,0,0-1.75H74.63a.88.88,0,1,0,0,1.75"/><path class="cls-28" d="M86.9,104h-14a.88.88,0,0,0,0,1.75h14a.88.88,0,0,0,0-1.75"/><path class="cls-22" d="M68.5,81.2h.88a.88.88,0,1,0,0-1.75H68.5a.88.88,0,1,0,0,1.75"/><path class="cls-22" d="M71.13,83h-.88a.88.88,0,1,0,0,1.75h.88a.88.88,0,0,0,0-1.75"/><path class="cls-22" d="M71.13,86.46h-.88a.88.88,0,1,0,0,1.75h.88a.88.88,0,0,0,0-1.75"/><path class="cls-22" d="M68.5,91.72h.88a.88.88,0,0,0,0-1.75H68.5a.88.88,0,0,0,0,1.75"/><path class="cls-22" d="M68.5,95.22h.88a.88.88,0,0,0,0-1.75H68.5a.88.88,0,0,0,0,1.75"/><path class="cls-22" d="M70.25,98.73h.88a.88.88,0,1,0,0-1.75h-.88a.88.88,0,0,0,0,1.75"/><path class="cls-22" d="M71.13,100.48h-.88a.88.88,0,1,0,0,1.75h.88a.88.88,0,0,0,0-1.75"/><path class="cls-22" d="M69.37,104H68.5a.88.88,0,0,0,0,1.75h.88a.88.88,0,0,0,0-1.75"/><g class="cls-29"><g class="cls-30"><g class="cls-31"><rect class="cls-32" x="28.54" y="28.54" width="137.82" height="137.82" transform="translate(-40.37 97.46) rotate(-45)"/></g></g></g></g></g></g></g></g></svg>