<svg xmlns="http://www.w3.org/2000/svg" xmlns:xlink="http://www.w3.org/1999/xlink" viewBox="0 0 171.2 162.7"><defs><style>.cls-1{fill:none;}.cls-2{isolation:isolate;}.cls-3{clip-path:url(#clip-path);}.cls-4{opacity:0.6;mix-blend-mode:multiply;}.cls-5{clip-path:url(#clip-path-3);}.cls-6{fill:#f7b661;}.cls-7{clip-path:url(#clip-path-4);}.cls-8{fill:#faa629;}.cls-9{clip-path:url(#clip-path-5);}.cls-10{fill:#d37a07;}.cls-11{clip-path:url(#clip-path-6);}.cls-12{clip-path:url(#clip-path-7);}.cls-13{clip-path:url(#clip-path-8);}.cls-14{clip-path:url(#clip-path-9);}.cls-15{clip-path:url(#clip-path-10);}.cls-16{clip-path:url(#clip-path-11);}.cls-17{clip-path:url(#clip-path-12);}.cls-18{clip-path:url(#clip-path-13);}</style><clipPath id="clip-path" transform="translate(-54.28 -63.06)"><rect class="cls-1" x="28.58" y="46.66" width="199.74" height="163.57" transform="translate(-53.21 128.45) rotate(-45)"/></clipPath><clipPath id="clip-path-3" transform="translate(-54.28 -63.06)"><rect class="cls-1" x="52.49" y="112.92" width="12.94" height="12.94" transform="translate(-67.15 76.66) rotate(-45)"/></clipPath><clipPath id="clip-path-4" transform="translate(-54.28 -63.06)"><rect class="cls-1" x="74.26" y="88.25" width="50.64" height="50.64" transform="translate(-51.14 103.67) rotate(-45)"/></clipPath><clipPath id="clip-path-5" transform="translate(-54.28 -63.06)"><rect class="cls-1" x="86.22" y="128.39" width="37.6" height="37.6" transform="translate(-73.32 117.37) rotate(-45)"/></clipPath><clipPath id="clip-path-6" transform="translate(-54.28 -63.06)"><rect class="cls-1" x="68.32" y="139.06" width="24.79" height="24.79" transform="translate(-83.46 101.43) rotate(-45)"/></clipPath><clipPath id="clip-path-7" transform="translate(-54.28 -63.06)"><rect class="cls-1" x="147.06" y="70.16" width="90.99" height="90.99" transform="translate(-25.39 170.03) rotate(-45)"/></clipPath><clipPath id="clip-path-8" transform="translate(-54.28 -63.06)"><rect class="cls-1" x="80.08" y="70.09" width="90.99" height="90.99" transform="translate(-44.95 122.65) rotate(-45)"/></clipPath><clipPath id="clip-path-9" transform="translate(-54.28 -63.06)"><rect class="cls-1" x="113.14" y="99.47" width="90.99" height="90.99" transform="translate(-56.05 154.63) rotate(-45)"/></clipPath><clipPath id="clip-path-10" transform="translate(-54.28 -63.06)"><rect class="cls-1" x="67.81" y="53.79" width="67.04" height="67.04" transform="translate(-32.06 97.22) rotate(-45)"/></clipPath><clipPath id="clip-path-11" transform="translate(-54.28 -63.06)"><rect class="cls-1" x="100.73" y="141.72" width="67.57" height="67.57" transform="translate(-84.7 146.52) rotate(-45)"/></clipPath><clipPath id="clip-path-12" transform="translate(-54.28 -63.06)"><rect class="cls-1" x="68.57" y="160.9" width="44.54" height="44.54" transform="translate(-102.91 117.88) rotate(-45)"/></clipPath><clipPath id="clip-path-13" transform="translate(-54.28 -63.06)"><rect class="cls-1" x="79.61" y="198.41" width="31.73" height="31.73" transform="translate(-123.55 130.27) rotate(-45)"/></clipPath></defs><title>Ресурс 3</title><g class="cls-2"><g id="Слой_2" data-name="Слой 2"><g id="Слой_1-2" data-name="Слой 1"><g class="cls-3"><g class="cls-3"><g class="cls-4"><g class="cls-5"><path class="cls-6" d="M63.28,114.7H54.65a.36.36,0,0,0-.36.36v8.63a.37.37,0,0,0,.36.36h8.63a.36.36,0,0,0,.36-.36v-8.63a.36.36,0,0,0-.36-.36" transform="translate(-54.28 -63.06)"/></g></g><g class="cls-4"><g class="cls-7"><path class="cls-8" d="M117.9,130.46V96.68a1.43,1.43,0,0,0-1.43-1.43H82.68a1.43,1.43,0,0,0-1.43,1.43v33.78a1.43,1.43,0,0,0,1.43,1.43h33.78a1.43,1.43,0,0,0,1.43-1.43" transform="translate(-54.28 -63.06)"/></g></g><g class="cls-4"><g class="cls-9"><path class="cls-10" d="M118.62,159.74V134.65a1.06,1.06,0,0,0-1.06-1.06H92.47a1.06,1.06,0,0,0-1.06,1.06v25.09a1.06,1.06,0,0,0,1.06,1.06h25.09a1.06,1.06,0,0,0,1.06-1.06" transform="translate(-54.28 -63.06)"/></g></g><g class="cls-4"><g class="cls-11"><path class="cls-8" d="M89.68,159.72V143.19a.7.7,0,0,0-.7-.7H72.44a.7.7,0,0,0-.7.7v16.54a.7.7,0,0,0,.7.7H89a.7.7,0,0,0,.7-.7" transform="translate(-54.28 -63.06)"/></g></g><g class="cls-4"><g class="cls-12"><path class="cls-8" d="M225.48,146V85.3a2.57,2.57,0,0,0-2.57-2.57H162.2a2.57,2.57,0,0,0-2.57,2.57V146a2.57,2.57,0,0,0,2.57,2.57h60.71a2.57,2.57,0,0,0,2.57-2.57" transform="translate(-54.28 -63.06)"/></g></g><g class="cls-4"><g class="cls-13"><path class="cls-6" d="M158.5,145.94V85.23a2.57,2.57,0,0,0-2.57-2.57H95.22a2.57,2.57,0,0,0-2.57,2.57v60.71a2.57,2.57,0,0,0,2.57,2.57h60.71a2.57,2.57,0,0,0,2.57-2.57" transform="translate(-54.28 -63.06)"/></g></g><g class="cls-4"><g class="cls-14"><path class="cls-10" d="M191.56,175.33V114.61A2.57,2.57,0,0,0,189,112H128.28a2.57,2.57,0,0,0-2.57,2.57v60.71a2.57,2.57,0,0,0,2.57,2.57H189a2.57,2.57,0,0,0,2.57-2.57" transform="translate(-54.28 -63.06)"/></g></g><g class="cls-4"><g class="cls-15"><path class="cls-10" d="M125.58,109.68V64.95a1.89,1.89,0,0,0-1.89-1.89H79a1.89,1.89,0,0,0-1.89,1.89v44.73A1.89,1.89,0,0,0,79,111.57h44.73a1.89,1.89,0,0,0,1.89-1.89" transform="translate(-54.28 -63.06)"/></g></g><g class="cls-4"><g class="cls-16"><path class="cls-8" d="M159,198V153a1.9,1.9,0,0,0-1.91-1.91H112a1.91,1.91,0,0,0-1.91,1.91V198A1.91,1.91,0,0,0,112,200h45.09A1.91,1.91,0,0,0,159,198" transform="translate(-54.28 -63.06)"/></g></g><g class="cls-4"><g class="cls-17"><path class="cls-6" d="M107,198V168.31a1.26,1.26,0,0,0-1.26-1.26H76a1.26,1.26,0,0,0-1.26,1.26V198A1.26,1.26,0,0,0,76,199.28H105.7A1.26,1.26,0,0,0,107,198" transform="translate(-54.28 -63.06)"/></g></g><g class="cls-4"><g class="cls-18"><path class="cls-10" d="M107,224.86V203.69a.9.9,0,0,0-.89-.9H84.89a.9.9,0,0,0-.9.9v21.17a.89.89,0,0,0,.89.89h21.17a.89.89,0,0,0,.89-.89" transform="translate(-54.28 -63.06)"/></g></g></g></g></g></g></g></svg>