<svg width="115" height="160" viewBox="0 0 115 160" fill="none" xmlns="http://www.w3.org/2000/svg">
<path d="M109.382 154.667H5.61782C2.31322 154.667 0 152.333 0 149V5.66667C0 2.66667 2.31322 7.94729e-08 5.61782 7.94729e-08H109.382C112.356 7.94729e-08 115 2.33333 115 5.66667V149C115 152.333 112.356 154.667 109.382 154.667Z" transform="translate(0 5.33333)" fill="#EFF2FA"/>
<path d="M115 0H0V5.66667H115V0Z" transform="translate(0 19.3333)" fill="#D7DEED"/>
<path d="M115 14H0V5.66667C0 2.66667 2.31322 7.94729e-08 5.61782 7.94729e-08H109.382C112.356 7.94729e-08 115 2.33333 115 5.66667V14Z" transform="translate(0 5.33333)" fill="#FAA629"/>
<path d="M2.64368 11C0.991378 11 1.2606e-06 9.66667 1.2606e-06 8.33333V2.66667C1.2606e-06 1 1.32184 0 2.64368 0C4.29598 0 5.28736 1.33333 5.28736 2.66667V8.33333C5.28736 9.66667 3.96552 11 2.64368 11Z" transform="translate(54.8545)" fill="#C7CFE2"/>
<path d="M2.64368 11C0.991382 11 -1.2606e-06 9.66667 -1.2606e-06 8.33333V2.66667C-1.2606e-06 1 1.32184 0 2.64368 0C4.29598 0 5.28736 1.33333 5.28736 2.66667V8.33333C5.28736 9.66667 3.96552 11 2.64368 11Z" transform="translate(65.7627)" fill="#C7CFE2"/>
<path d="M2.64368 11C0.99138 11 0 9.66667 0 8.33333V2.66667C0 1 1.32184 0 2.64368 0C4.29598 0 5.28736 1.33333 5.28736 2.66667V8.33333C5.28736 9.66667 3.96552 11 2.64368 11Z" transform="translate(33.0459)" fill="#C7CFE2"/>
<path d="M2.64368 11C0.991381 11 6.30302e-07 9.66667 6.30302e-07 8.33333V2.66667C6.30302e-07 1 1.32184 0 2.64368 0C4.29598 0 5.28736 1.33333 5.28736 2.66667V8.33333C5.28736 9.66667 3.96552 11 2.64368 11Z" transform="translate(43.9502)" fill="#C7CFE2"/>
<path d="M2.64368 11C0.991379 11 -1.57575e-07 9.66667 -1.57575e-07 8.33333V2.66667C-1.57575e-07 1.33333 1.32184 0 2.64368 0C4.29598 0 5.61782 1.33333 5.61782 2.66667V8.33333C5.61782 9.66667 4.29598 11 2.64368 11Z" transform="translate(10.9043)" fill="#C7CFE2"/>
<path d="M2.64368 11C1.32184 11 -3.15151e-07 9.66667 -3.15151e-07 8.33333V2.66667C-3.15151e-07 1.33333 1.32184 0 2.64368 0C4.29598 0 5.28736 1.33333 5.28736 2.66667V8.33333C5.61782 9.66667 4.29598 11 2.64368 11Z" transform="translate(21.8096)" fill="#C7CFE2"/>
<path d="M2.64368 11C0.991379 11 2.52121e-06 9.66667 2.52121e-06 8.33333V2.66667C2.52121e-06 1.33333 0.991379 0 2.64368 0C4.29598 0 5.28735 1.33333 5.28735 2.66667V8.33333C5.28735 9.66667 4.29598 11 2.64368 11Z" transform="translate(76.668)" fill="#C7CFE2"/>
<path d="M2.64368 11C0.991377 11 0 9.66667 0 8.33333V2.66667C0 1 1.32184 0 2.64368 0C4.29597 0 5.28736 1.33333 5.28736 2.66667V8.33333C5.28736 9.66667 4.29597 11 2.64368 11Z" transform="translate(87.5723)" fill="#C7CFE2"/>
<path d="M2.64368 11C0.991381 11 -2.52121e-06 9.66667 -2.52121e-06 8.33333V2.66667C-2.52121e-06 1 1.32184 0 2.64368 0C4.29598 0 5.28736 1.33333 5.28736 2.66667V8.33333C5.28736 9.66667 4.29598 11 2.64368 11Z" transform="translate(98.4756)" fill="#C7CFE2"/>
<path d="M8.26149 5.33333H2.64368C0.991379 5.33333 -1.57575e-07 4 -1.57575e-07 2.66667C-1.57575e-07 0.999999 1.32184 1.27157e-06 2.64368 1.27157e-06H8.26149C9.91379 1.27157e-06 10.9052 1.33333 10.9052 2.66667C10.9052 4.33333 9.91379 5.33333 8.26149 5.33333Z" transform="translate(10.9053 38.6667)" fill="#FAA629"/>
<path d="M8.26149 5.33333H2.64368C0.991379 5.33333 -1.57575e-07 4 -1.57575e-07 2.66667C-1.57575e-07 1 1.32184 0 2.64368 0H8.26149C9.91379 0 10.9052 1.33333 10.9052 2.66667C10.9052 4 9.91379 5.33333 8.26149 5.33333Z" transform="translate(10.9053 50)" fill="#FAA629"/>
<path d="M8.26149 5.33333H2.64368C0.991379 5.33333 -1.57575e-07 4 -1.57575e-07 2.66667C-1.57575e-07 1 1.32184 -2.54313e-06 2.64368 -2.54313e-06H8.26149C9.91379 -2.54313e-06 10.9052 1.33333 10.9052 2.66667C10.9052 4 9.91379 5.33333 8.26149 5.33333Z" transform="translate(10.9053 61)" fill="#FAA629"/>
<path d="M8.26149 5.33334H2.64368C0.991379 5.33334 -1.57575e-07 4 -1.57575e-07 2.66667C-1.57575e-07 0.999999 1.32184 1.27157e-06 2.64368 1.27157e-06H8.26149C9.91379 1.27157e-06 10.9052 1.33333 10.9052 2.66667C10.9052 4 9.91379 5.33334 8.26149 5.33334Z" transform="translate(10.9053 72)" fill="#FAA629"/>
<path d="M8.26149 5.33333H2.64368C0.991379 5.33333 -1.57575e-07 4 -1.57575e-07 2.66667C-1.57575e-07 1 1.32184 -1.27157e-06 2.64368 -1.27157e-06H8.26149C9.91379 -1.27157e-06 10.9052 1.33334 10.9052 2.66667C10.9052 4 9.91379 5.33333 8.26149 5.33333Z" transform="translate(10.9053 83)" fill="#FAA629"/>
<path d="M8.26149 5.33333H2.64368C0.991379 5.33333 -1.57575e-07 4 -1.57575e-07 2.66667C-1.57575e-07 1 1.32184 2.54313e-06 2.64368 2.54313e-06H8.26149C9.91379 2.54313e-06 10.9052 1.33333 10.9052 2.66667C10.9052 4 9.91379 5.33333 8.26149 5.33333Z" transform="translate(10.9053 94)" fill="#FAA629"/>
<path d="M8.26149 5.33333H2.64368C0.991379 5.33333 -1.57575e-07 4 -1.57575e-07 2.66666C-1.57575e-07 0.999997 1.32184 0 2.64368 0H8.26149C9.91379 0 10.9052 1.33333 10.9052 2.66666C10.9052 4 9.91379 5.33333 8.26149 5.33333Z" transform="translate(10.9053 105)" fill="#FAA629"/>
<path d="M8.26149 5.33334H2.64368C0.991379 5.33334 -1.57575e-07 3.99999 -1.57575e-07 2.66666C-1.57575e-07 0.999995 1.32184 -2.54313e-06 2.64368 -2.54313e-06H8.26149C9.91379 -2.54313e-06 10.9052 1.33333 10.9052 2.66666C10.9052 3.99999 9.91379 5.33334 8.26149 5.33334Z" transform="translate(10.9053 116)" fill="#FAA629"/>
<path d="M8.26149 5.33334H2.64368C0.991379 5.33334 -1.57575e-07 4.00001 -1.57575e-07 2.66667C-1.57575e-07 1.00001 1.32184 -5.08626e-06 2.64368 -5.08626e-06H8.26149C9.91379 -5.08626e-06 10.9052 1.33334 10.9052 2.66667C10.9052 4.33334 9.91379 5.33334 8.26149 5.33334Z" transform="translate(10.9053 127)" fill="#FAA629"/>
<path d="M8.26149 5.33333H2.64368C0.991379 5.33333 -1.57575e-07 4 -1.57575e-07 2.66667C-1.57575e-07 1 1.32184 5.08626e-06 2.64368 5.08626e-06H8.26149C9.91379 5.08626e-06 10.9052 1.33334 10.9052 2.66667C10.9052 4.33334 9.91379 5.33333 8.26149 5.33333Z" transform="translate(10.9053 138)" fill="#FAA629"/>
<path d="M40.977 5.33333H2.64368C0.991379 5.33333 2.52121e-06 4 2.52121e-06 2.66667C2.52121e-06 0.999999 1.32184 1.27157e-06 2.64368 1.27157e-06H40.977C42.6293 1.27157e-06 43.6207 1.33333 43.6207 2.66667C43.6207 4.33333 42.6293 5.33333 40.977 5.33333Z" transform="translate(60.1436 38.6667)" fill="#D7DEED"/>
<path d="M27.0977 5.33333H2.64368C0.991382 5.33333 -1.2606e-06 4 -1.2606e-06 2.66667C-1.2606e-06 1 1.32184 -2.54313e-06 2.64368 -2.54313e-06H27.0977C28.75 -2.54313e-06 29.7414 1.33333 29.7414 2.66667C29.7414 4 28.75 5.33333 27.0977 5.33333Z" transform="translate(74.0205 61)" fill="#D7DEED"/>
<path d="M13.5488 5.33333H2.64368C0.991381 5.33333 6.30302e-07 4 6.30302e-07 2.66667C6.30302e-07 1 1.32184 0 2.64368 0H13.5488C15.2011 0 16.1925 1.33333 16.1925 2.66667C16.1925 4 15.2011 5.33333 13.5488 5.33333Z" transform="translate(27.4268 50)" fill="#D7DEED"/>
<path d="M30.0718 5.33333H2.64368C0.991379 5.33333 -1.2606e-06 4 -1.2606e-06 2.66667C-1.2606e-06 1 1.32184 0 2.64368 0H30.0718C31.7241 0 32.7155 1.33333 32.7155 2.66667C32.7155 4 31.7241 5.33333 30.0718 5.33333Z" transform="translate(49.2363 50)" fill="#D7DEED"/>
<path d="M13.5489 5.33333H2.64368C0.991377 5.33333 0 4 0 2.66667C0 1 1.32184 0 2.64368 0H13.5489C15.2012 0 16.1925 1.33333 16.1925 2.66667C16.1925 4 15.2012 5.33333 13.5489 5.33333Z" transform="translate(87.5713 50)" fill="#D7DEED"/>
<path d="M38.3333 5.33333H2.64368C0.991381 5.33333 6.30302e-07 4 6.30302e-07 2.66667C6.30302e-07 1 1.32184 -2.54313e-06 2.64368 -2.54313e-06H38.3333C39.9856 -2.54313e-06 40.977 1.33333 40.977 2.66667C40.977 4 39.6552 5.33333 38.3333 5.33333Z" transform="translate(27.4268 61)" fill="#D7DEED"/>
<path d="M24.454 5.33334H2.64368C0.991381 5.33334 6.30302e-07 4 6.30302e-07 2.66667C6.30302e-07 0.999999 1.32184 1.27157e-06 2.64368 1.27157e-06H24.454C26.1063 1.27157e-06 27.0977 1.33333 27.0977 2.66667C27.4282 4 26.1063 5.33334 24.454 5.33334Z" transform="translate(27.4268 72)" fill="#D7DEED"/>
<path d="M40.977 5.33334H2.64368C0.991379 5.33334 2.52121e-06 4 2.52121e-06 2.66667C2.52121e-06 0.999999 1.32184 1.27157e-06 2.64368 1.27157e-06H40.977C42.6293 1.27157e-06 43.6207 1.33333 43.6207 2.66667C43.6207 4 42.6293 5.33334 40.977 5.33334Z" transform="translate(60.1436 72)" fill="#D7DEED"/>
<path d="M13.5489 5.33333H2.64368C0.991377 5.33333 0 4 0 2.66667C0 1 1.32184 -1.27157e-06 2.64368 -1.27157e-06H13.5489C15.2012 -1.27157e-06 16.1925 1.33334 16.1925 2.66667C16.1925 4 15.2012 5.33333 13.5489 5.33333Z" transform="translate(87.5713 83)" fill="#D7DEED"/>
<path d="M51.8822 5.33333H2.64368C0.991381 5.33333 6.30302e-07 4 6.30302e-07 2.66667C6.30302e-07 1 1.32184 -1.27157e-06 2.64368 -1.27157e-06H51.8822C53.5345 -1.27157e-06 54.5259 1.33334 54.5259 2.66667C54.5259 4 53.5345 5.33333 51.8822 5.33333Z" transform="translate(27.4268 83)" fill="#D7DEED"/>
<path d="M24.454 5.33333H2.64368C0.991381 5.33333 6.30302e-07 4 6.30302e-07 2.66667C6.30302e-07 0.999999 1.32184 1.27157e-06 2.64368 1.27157e-06H24.454C26.1063 1.27157e-06 27.0977 1.33333 27.0977 2.66667C27.4282 4.33333 26.1063 5.33333 24.454 5.33333Z" transform="translate(27.4277 38.6667)" fill="#D7DEED"/>
<path d="M40.977 5.33333H2.64368C0.991379 5.33333 2.52121e-06 4 2.52121e-06 2.66667C2.52121e-06 1 1.32184 2.54313e-06 2.64368 2.54313e-06H40.977C42.6293 2.54313e-06 43.6207 1.33333 43.6207 2.66667C43.6207 4 42.6293 5.33333 40.977 5.33333Z" transform="translate(60.1436 94)" fill="#D7DEED"/>
<path d="M27.0977 5.33334H2.64368C0.991382 5.33334 -1.2606e-06 3.99999 -1.2606e-06 2.66666C-1.2606e-06 0.999995 1.32184 -2.54313e-06 2.64368 -2.54313e-06H27.0977C28.75 -2.54313e-06 29.7414 1.33333 29.7414 2.66666C29.7414 3.99999 28.75 5.33334 27.0977 5.33334Z" transform="translate(74.0205 116)" fill="#D7DEED"/>
<path d="M13.5488 5.33333H2.64368C0.991381 5.33333 6.30302e-07 4 6.30302e-07 2.66666C6.30302e-07 0.999997 1.32184 0 2.64368 0H13.5488C15.2011 0 16.1925 1.33333 16.1925 2.66666C16.1925 4 15.2011 5.33333 13.5488 5.33333Z" transform="translate(27.4268 105)" fill="#D7DEED"/>
<path d="M30.0718 5.33333H2.64368C0.991379 5.33333 -1.2606e-06 4 -1.2606e-06 2.66666C-1.2606e-06 0.999997 1.32184 0 2.64368 0H30.0718C31.7241 0 32.7155 1.33333 32.7155 2.66666C32.7155 4 31.7241 5.33333 30.0718 5.33333Z" transform="translate(49.2363 105)" fill="#D7DEED"/>
<path d="M13.5489 5.33333H2.64368C0.991377 5.33333 0 4 0 2.66666C0 0.999997 1.32184 0 2.64368 0H13.5489C15.2012 0 16.1925 1.33333 16.1925 2.66666C16.1925 4 15.2012 5.33333 13.5489 5.33333Z" transform="translate(87.5713 105)" fill="#D7DEED"/>
<path d="M38.3333 5.33334H2.64368C0.991381 5.33334 6.30302e-07 3.99999 6.30302e-07 2.66666C6.30302e-07 0.999995 1.32184 -2.54313e-06 2.64368 -2.54313e-06H38.3333C39.9856 -2.54313e-06 40.977 1.33333 40.977 2.66666C40.977 3.99999 39.6552 5.33334 38.3333 5.33334Z" transform="translate(27.4268 116)" fill="#D7DEED"/>
<path d="M24.454 5.33334H2.64368C0.991381 5.33334 6.30302e-07 4.00001 6.30302e-07 2.66667C6.30302e-07 1.00001 1.32184 -5.08626e-06 2.64368 -5.08626e-06H24.454C26.1063 -5.08626e-06 27.0977 1.33334 27.0977 2.66667C27.4282 4.33334 26.1063 5.33334 24.454 5.33334Z" transform="translate(27.4268 127)" fill="#D7DEED"/>
<path d="M40.977 5.33334H2.64368C0.991379 5.33334 2.52121e-06 4.00001 2.52121e-06 2.66667C2.52121e-06 1.00001 1.32184 -5.08626e-06 2.64368 -5.08626e-06H40.977C42.6293 -5.08626e-06 43.6207 1.33334 43.6207 2.66667C43.6207 4.33334 42.6293 5.33334 40.977 5.33334Z" transform="translate(60.1436 127)" fill="#D7DEED"/>
<path d="M13.5489 5.33333H2.64368C0.991377 5.33333 0 4 0 2.66667C0 1 1.32184 5.08626e-06 2.64368 5.08626e-06H13.5489C15.2012 5.08626e-06 16.1925 1.33334 16.1925 2.66667C16.1925 4.33334 15.2012 5.33333 13.5489 5.33333Z" transform="translate(87.5713 138)" fill="#D7DEED"/>
<path d="M51.8822 5.33333H2.64368C0.991381 5.33333 6.30302e-07 4 6.30302e-07 2.66667C6.30302e-07 1 1.32184 5.08626e-06 2.64368 5.08626e-06H51.8822C53.5345 5.08626e-06 54.5259 1.33334 54.5259 2.66667C54.5259 4.33334 53.5345 5.33333 51.8822 5.33333Z" transform="translate(27.4268 138)" fill="#D7DEED"/>
<path d="M24.454 5.33333H2.64368C0.991381 5.33333 6.30302e-07 4 6.30302e-07 2.66667C6.30302e-07 1 1.32184 2.54313e-06 2.64368 2.54313e-06H24.454C26.1063 2.54313e-06 27.0977 1.33333 27.0977 2.66667C27.4282 4 26.1063 5.33333 24.454 5.33333Z" transform="translate(27.4268 94)" fill="#D7DEED"/>
</svg>
