<svg width="169" height="160" viewBox="0 0 169 160" fill="none" xmlns="http://www.w3.org/2000/svg">
<path d="M158.262 5.17647V44.2353L22.8757 43.2941V124.235C22.8757 126.118 21.4751 128 19.1409 128H5.13536C2.33425 128 -2.22612e-07 125.647 -2.22612e-07 122.824V5.17647C0.933701 2.35294 3.26796 0 6.06906 0H153.594C155.928 0 158.262 2.35294 158.262 5.17647Z" transform="translate(9.33691)" fill="#C7CFE2"/>
<path d="M158.262 5.17647V27.2941H115.312C109.243 27.2941 104.108 31.0588 102.707 37.1765C101.773 40.9412 98.9724 43.7647 94.7707 43.7647H35.9475C28.9447 43.7647 22.8757 49.4118 22.8757 56.9412V125.176C22.8757 127.059 21.4751 128.941 19.1409 128.941H5.13536C2.33425 128.941 -1.39132e-08 126.588 -1.39132e-08 123.765V5.17647C0.933702 2.35294 3.26796 0 6.06906 0H153.594C155.928 0 158.262 2.35294 158.262 5.17647Z" transform="translate(0 9.41177)" fill="#EFF2FA"/>
<path d="M145.657 30.1176V115.294C145.657 119.529 141.923 123.294 137.721 123.294H7.93646C3.73481 123.294 8.90447e-07 119.529 8.90447e-07 115.294V24C8.90447e-07 19.7647 3.73481 16 7.93646 16H71.895C76.0967 16 79.8315 12.2353 79.8315 8C79.8315 3.76471 83.5663 8.97576e-07 87.768 8.97576e-07H137.721C141.923 8.97576e-07 145.657 3.76471 145.657 8V30.1176Z" transform="translate(23.3428 36.7059)" fill="#FAA629"/>
<path d="M4.66851 0H45.7514C48.0856 0 50.4199 1.88235 50.4199 4.70588C50.4199 7.05882 48.5525 9.41177 45.7514 9.41177H4.66851C2.33426 9.41177 1.78089e-06 7.52941 1.78089e-06 4.70588C0.466853 1.88235 2.33426 0 4.66851 0Z" transform="translate(38.7471 70.5882)" fill="white"/>
<path d="M4.66851 3.5903e-06H45.7514C48.0856 3.5903e-06 50.4199 1.88236 50.4199 4.70589C50.4199 7.05883 48.5525 9.41177 45.7514 9.41177H4.66851C2.33426 9.41177 1.78089e-06 7.52942 1.78089e-06 4.70589C0.466853 2.35294 2.33426 3.5903e-06 4.66851 3.5903e-06Z" transform="translate(38.7471 85.6471)" fill="white"/>
</svg>
