<svg xmlns="http://www.w3.org/2000/svg" xmlns:xlink="http://www.w3.org/1999/xlink" viewBox="0 0 87.39 52.53"><defs><style>.cls-1{fill:none;}.cls-2{clip-path:url(#clip-path);}.cls-3{opacity:0.5;}.cls-4{clip-path:url(#clip-path-3);}.cls-5{fill:#fff;}.cls-6{opacity:0.15;}.cls-7{clip-path:url(#clip-path-4);}.cls-8{clip-path:url(#clip-path-5);}.cls-9{opacity:0.35;}.cls-10{clip-path:url(#clip-path-6);}.cls-11{opacity:0.6;}.cls-12{clip-path:url(#clip-path-7);}.cls-13{opacity:0.3;}.cls-14{clip-path:url(#clip-path-8);}</style><clipPath id="clip-path" transform="translate(0)"><rect class="cls-1" width="87.39" height="52.53"/></clipPath><clipPath id="clip-path-3" transform="translate(0)"><rect class="cls-1" x="39.51" y="12.01" width="47.88" height="9.22"/></clipPath><clipPath id="clip-path-4" transform="translate(0)"><rect class="cls-1" x="1.2" y="9.21" width="19.35" height="22.52"/></clipPath><clipPath id="clip-path-5" transform="translate(0)"><rect class="cls-1" x="3.04" width="19.35" height="17.61"/></clipPath><clipPath id="clip-path-6" transform="translate(0)"><rect class="cls-1" x="8.57" y="1.47" width="19.35" height="20.14"/></clipPath><clipPath id="clip-path-7" transform="translate(0)"><rect class="cls-1" x="7.31" y="22.02" width="21.76" height="30.51"/></clipPath><clipPath id="clip-path-8" transform="translate(0)"><rect class="cls-1" x="5.99" y="11.79" width="19.35" height="21.37"/></clipPath></defs><title>Ресурс 1</title><g id="Слой_2" data-name="Слой 2"><g id="Слой_1-2" data-name="Слой 1"><g class="cls-2"><g class="cls-2"><g class="cls-3"><g class="cls-4"><polygon class="cls-5" points="39.51 12.19 41.96 12.19 41.96 18.9 46.26 18.9 46.26 21.05 39.51 21.05 39.51 12.19"/><polygon class="cls-5" points="48.58 12.19 55.71 12.19 55.71 14.28 51.01 14.28 51.01 15.62 55.26 15.62 55.26 17.56 51.01 17.56 51.01 18.96 55.77 18.96 55.77 21.05 48.58 21.05 48.58 12.19"/><path class="cls-5" d="M58,16.62A4.6,4.6,0,0,1,62.76,12a5.17,5.17,0,0,1,3.6,1.29L64.92,15a3.13,3.13,0,0,0-2.14-.84,2.34,2.34,0,0,0-2.27,2.46,2.34,2.34,0,0,0,2.41,2.46,2.51,2.51,0,0,0,1.42-.37V17.67H62.59v-1.8h4.08v4a6,6,0,0,1-3.85,1.37A4.56,4.56,0,0,1,58,16.62" transform="translate(0)"/><path class="cls-5" d="M72.37,12.12h2.37l3.77,8.93H75.87l-.65-1.58H71.81l-.63,1.58H68.59Zm2.15,5.43-1-2.52-1,2.52Z" transform="translate(0)"/><polygon class="cls-5" points="80.64 12.19 83.1 12.19 83.1 18.9 87.39 18.9 87.39 21.05 80.64 21.05 80.64 12.19"/></g></g><path class="cls-5" d="M39.61,24.77h7.28A5.23,5.23,0,0,1,50.75,26a3.14,3.14,0,0,1,.91,2.33,3.28,3.28,0,0,1-2.19,3.16c1.72.57,2.82,1.54,2.82,3.51,0,2.43-2,3.91-5.37,3.91H39.61Zm6.3,5.65c1.19,0,1.86-.41,1.86-1.28s-.61-1.22-1.78-1.22H43.44v2.49Zm.57,5.37c1.2,0,1.88-.47,1.88-1.34s-.61-1.28-1.92-1.28h-3v2.61Z" transform="translate(0)"/><polygon class="cls-5" points="77.77 31.74 73.11 24.77 77.63 24.77 80.14 28.76 82.68 24.77 87.09 24.77 82.43 31.7 87.3 38.95 82.78 38.95 80.06 34.68 77.33 38.95 72.91 38.95 77.77 31.74"/><path class="cls-5" d="M63.06,24.49a7.38,7.38,0,1,0,7.62,7.38,7.43,7.43,0,0,0-7.62-7.38m3.73,7.83a.24.24,0,0,1-.11.2l-5.36,3.24a.23.23,0,0,1-.13,0l-.1,0-1.66-1a.24.24,0,0,1-.12-.2V30.45a.24.24,0,0,1,.35-.2l1.42.82a.22.22,0,0,0,.1,0,.24.24,0,0,0,.13,0L66.42,28a.24.24,0,0,1,.36.2Z" transform="translate(0)"/><g class="cls-6"><g class="cls-7"><path class="cls-5" d="M1.93,30l3,1.7V23a1.87,1.87,0,0,1,.92-1.61l14.74-8.62V10a.76.76,0,0,0-1.15-.66L1.57,19.75a.76.76,0,0,0-.38.66v9.38a2,2,0,0,1,.73.25" transform="translate(0)"/></g></g><g class="cls-3"><g class="cls-8"><path class="cls-5" d="M21.24.11,3.42,10.53a.76.76,0,0,0-.38.66v6.42L7.46,15V12.67a1.87,1.87,0,0,1,.92-1.61l14-8.19V.76A.76.76,0,0,0,21.24.11" transform="translate(0)"/></g></g><g class="cls-9"><g class="cls-10"><path class="cls-5" d="M19.78,8.11A1.87,1.87,0,0,1,21.65,10V12.1l2-1.16a1.87,1.87,0,0,1,2.81,1.61v9.06l.66-.4a2,2,0,0,1,.81-.28V2.24a.74.74,0,0,0,0-.19l0-.05a.74.74,0,0,0-.05-.12l0,0a.73.73,0,0,0-.1-.13h0l-.14-.11,0,0-.12,0h-.05l-.15,0h0l-.13,0H27a.72.72,0,0,0-.19.08L8.94,12a.76.76,0,0,0-.38.66v1.71l10.27-6a1.87,1.87,0,0,1,.94-.26" transform="translate(0)"/></g></g><path class="cls-5" d="M6.9,34.17,1.37,31a.92.92,0,0,0-1.37.8V47.91a.92.92,0,0,0,.46.8l6.44,3.7a.9.9,0,0,0,.41.11V34.29a.92.92,0,0,1-.41-.11" transform="translate(0)"/><g class="cls-11"><g class="cls-12"><path class="cls-5" d="M7.83,52.4,28.62,39.82a.92.92,0,0,0,.44-.78V22.94a.92.92,0,0,0-1.39-.78l-19.84,12a.91.91,0,0,1-.52.13V52.53a.91.91,0,0,0,.52-.12" transform="translate(0)"/></g></g><g class="cls-13"><g class="cls-14"><path class="cls-5" d="M7.36,33.16l18-10.88V12.56a.76.76,0,0,0-1.15-.66L6.36,22.33A.76.76,0,0,0,6,23v9.39Z" transform="translate(0)"/></g></g></g></g></g></g></svg>