<svg width="20" height="20" viewBox="0 0 20 20" fill="none" xmlns="http://www.w3.org/2000/svg">
<path fill-rule="evenodd" clip-rule="evenodd" d="M2 10C2 14.41 5.58984 18 10 18C14.4102 18 18 14.41 18 10C18 5.59 14.4102 2 10 2C5.58984 2 2 5.59 2 10ZM6.17334 0.761208C7.38623 0.258659 8.68701 0 10 0C11.313 0 12.6138 0.258659 13.8267 0.761208C15.04 1.26375 16.1426 2.00034 17.0713 2.92893C17.9995 3.85752 18.7363 4.95991 19.2388 6.17316C19.7412 7.38642 20 8.68678 20 10C20 12.6522 18.9463 15.1957 17.0713 17.0711C15.1958 18.9464 12.6523 20 10 20C8.68701 20 7.38623 19.7413 6.17334 19.2388C4.95996 18.7363 3.85742 17.9997 2.92871 17.0711C1.05371 15.1957 0 12.6522 0 10C0 7.34783 1.05371 4.8043 2.92871 2.92893C3.85742 2.00034 4.95996 1.26375 6.17334 0.761208ZM15 9H5V11H15V9Z" fill="#4C636F"/>
</svg>
